<?xml version="1.0" standalone="no"?>
<!DOCTYPE svg PUBLIC "-//W3C//DTD SVG 1.1//EN" "http://www.w3.org/Graphics/SVG/1.1/DTD/svg11.dtd" >
<svg xmlns="http://www.w3.org/2000/svg" xmlns:xlink="http://www.w3.org/1999/xlink" version="1.1">
<metadata>
Created by FontForge 20170731 at Thu Sep  7 09:05:17 2023
 By Aleksey,,,
Copyright (c) 2014 by Rene' Bieder. All rights reserved.
</metadata>
<defs>
<font id="GalanoGrotesque-Light" horiz-adv-x="1249" >
  <font-face 
    font-family="Galano Grotesque Light"
    font-weight="300"
    font-stretch="normal"
    units-per-em="2048"
    panose-1="0 0 4 0 0 0 0 0 0 0"
    ascent="1638"
    descent="-410"
    x-height="1001"
    cap-height="1372"
    bbox="-354 -401 2423 1917"
    underline-thickness="102"
    underline-position="-307"
    unicode-range="U+0020-FB02"
  />
<missing-glyph horiz-adv-x="1644" 
d="M823 1399q192 0 354.5 -91t259.5 -256.5t97 -369.5q0 -202 -97 -366.5t-259.5 -255.5t-354.5 -91q-193 0 -356 91t-259.5 255.5t-96.5 366.5q0 153 57 287.5t153 228t227 147.5t275 54zM823 1343q-177 0 -325.5 -83.5t-237 -235.5t-88.5 -340q0 -186 88.5 -337.5
t237 -235.5t325.5 -84q176 0 324.5 84t237 235.5t88.5 337.5q0 188 -88.5 340t-237 235.5t-324.5 83.5zM1090 821q0 -98 -69 -161.5t-175 -71.5v-103h-66v164h39q85 0 142 47t57 125t-53 126t-140 48q-91 0 -145.5 -56t-54.5 -148l-70 10q0 114 75.5 186t194.5 72
q117 0 191 -66t74 -172zM813 393q20 0 35.5 -14.5t15.5 -34.5t-15.5 -35.5t-35.5 -15.5q-21 0 -36 15t-15 36q0 20 14.5 34.5t36.5 14.5z" />
    <glyph glyph-name="fi" unicode="fi" horiz-adv-x="1243" 
d="M1026 1001v-1001h-98v915h-602v-915h-101v915h-184v86h184v179q0 153 85.5 242t234.5 89q108 0 190 -55l-33 -78q-67 43 -151 43q-105 0 -165 -65.5t-60 -175.5v-179h700zM977 1384q33 0 55.5 -22t22.5 -55q0 -32 -22 -54t-56 -22q-35 0 -57.5 21.5t-22.5 54.5t22.5 55
t57.5 22z" />
    <glyph glyph-name="fl" unicode="fl" horiz-adv-x="1210" 
d="M326 1001h395v-86h-395v-915h-101v915h-184v86h184v179q0 153 85.5 242t232.5 89q82 0 157 -32l-30 -84q-53 26 -121 26q-103 0 -163 -65.5t-60 -175.5v-179zM1014 1475v-1475h-101v1475h101z" />
    <glyph glyph-name=".notdef" horiz-adv-x="1644" 
d="M823 1399q192 0 354.5 -91t259.5 -256.5t97 -369.5q0 -202 -97 -366.5t-259.5 -255.5t-354.5 -91q-193 0 -356 91t-259.5 255.5t-96.5 366.5q0 153 57 287.5t153 228t227 147.5t275 54zM823 1343q-177 0 -325.5 -83.5t-237 -235.5t-88.5 -340q0 -186 88.5 -337.5
t237 -235.5t325.5 -84q176 0 324.5 84t237 235.5t88.5 337.5q0 188 -88.5 340t-237 235.5t-324.5 83.5zM1090 821q0 -98 -69 -161.5t-175 -71.5v-103h-66v164h39q85 0 142 47t57 125t-53 126t-140 48q-91 0 -145.5 -56t-54.5 -148l-70 10q0 114 75.5 186t194.5 72
q117 0 191 -66t74 -172zM813 393q20 0 35.5 -14.5t15.5 -34.5t-15.5 -35.5t-35.5 -15.5q-21 0 -36 15t-15 36q0 20 14.5 34.5t36.5 14.5z" />
    <glyph glyph-name=".null" horiz-adv-x="0" 
 />
    <glyph glyph-name="nonmarkingreturn" horiz-adv-x="682" 
 />
    <glyph glyph-name="space" unicode=" " horiz-adv-x="524" 
 />
    <glyph glyph-name="exclam" unicode="!" horiz-adv-x="532" 
d="M319 1372v-63l-2 -922h-100l-4 922v63h106zM266 147q33 0 55.5 -22t22.5 -53q0 -34 -22 -56t-56 -22t-57 22t-23 56q0 31 23 53t57 22z" />
    <glyph glyph-name="quotedbl" unicode="&#x22;" horiz-adv-x="602" 
d="M119 823v549h100v-549h-100zM385 823v549h100v-549h-100z" />
    <glyph glyph-name="numbersign" unicode="#" horiz-adv-x="1376" 
d="M1059 895l-113 -440h223l-22 -88h-223l-95 -367h-92l94 367h-444l-94 -367h-94l94 367h-223l24 88h221l113 440h-223l24 86h222l100 391h92l-100 -391h446l101 391h92l-101 -391h224l-25 -86h-221zM969 895h-447l-112 -440h444z" />
    <glyph glyph-name="dollar" unicode="$" horiz-adv-x="1187" 
d="M1073 395q0 -161 -117 -259.5t-309 -104.5v-236h-90v240q-183 18 -306 121t-138 262l102 22q13 -133 107.5 -216.5t236.5 -98.5v532l-110 27q-295 63 -295 303q0 154 111.5 249.5t291.5 104.5v236h90v-238q169 -15 278 -111.5t124 -238.5l-99 -20q-13 118 -96.5 192
t-208.5 88v-512l119 -28q65 -14 116 -35.5t97 -57t71 -91.5t25 -130zM559 756v497q-134 -8 -216.5 -78.5t-82.5 -183.5q0 -94 57.5 -142.5t165.5 -74.5zM645 637v-516q150 4 239 77.5t89 192.5q0 97 -59.5 147t-172.5 76z" />
    <glyph glyph-name="percent" unicode="%" horiz-adv-x="1746" 
d="M446 1395q137 0 234.5 -89t97.5 -235q0 -139 -98 -230t-234 -91q-135 0 -234 91t-99 230q0 145 98.5 234.5t234.5 89.5zM301 0l1036 1372h80l-1036 -1372h-80zM446 1323q-102 0 -179 -70.5t-77 -181.5q0 -108 77 -177t179 -69q101 0 177.5 69t76.5 177q0 111 -76.5 181.5
t-177.5 70.5zM1303 623q137 0 234 -89t97 -235q0 -141 -97.5 -231.5t-233.5 -90.5q-135 0 -234.5 91t-99.5 231q0 145 98.5 234.5t235.5 89.5zM1303 551q-102 0 -179 -70.5t-77 -181.5q0 -108 77 -177t179 -69q101 0 177 69t76 177q0 111 -76 181.5t-177 70.5z" />
    <glyph glyph-name="ampersand" unicode="&#x26;" horiz-adv-x="1468" 
d="M1354 -31l-262 215q-82 -101 -202 -154t-257 -53q-220 0 -355 108.5t-135 287.5q0 129 77 229t200 156q-65 74 -94 143t-29 146q0 154 106 251t271 97q158 0 260.5 -90.5t120.5 -253.5l-92 -21q-14 143 -91.5 211t-199.5 68t-199.5 -72t-77.5 -190q0 -114 80.5 -214.5
t278.5 -257.5l317 -260q68 127 68 291v82h90v-82q0 -201 -86 -348l268 -219zM633 63q114 0 216 46t173 133l-342 280q-110 85 -201 172q-112 -50 -174.5 -133t-62.5 -188q0 -140 107 -225t284 -85z" />
    <glyph glyph-name="quotesingle" unicode="'" horiz-adv-x="335" 
d="M119 823v549h100v-549h-100z" />
    <glyph glyph-name="parenleft" unicode="(" horiz-adv-x="708" 
d="M236 684q0 -225 78 -416.5t266 -371.5l-68 -64q-203 185 -293 397t-90 455q0 244 89.5 456t293.5 398l68 -65q-188 -179 -266 -370.5t-78 -418.5z" />
    <glyph glyph-name="parenright" unicode=")" horiz-adv-x="708" 
d="M129 1473l68 65q204 -186 293.5 -398t89.5 -456q0 -243 -90 -455t-293 -397l-68 64q188 180 266 371.5t78 416.5q0 227 -78 418.5t-266 370.5z" />
    <glyph glyph-name="asterisk" unicode="*" horiz-adv-x="851" 
d="M500 1122l260 -147l-37 -62l-258 146v-291h-78v291l-256 -146l-37 62l260 147l-260 148l37 63l256 -145v287h78v-289l258 147l37 -63z" />
    <glyph glyph-name="plus" unicode="+" horiz-adv-x="1187" 
d="M1034 580h-395v-398h-90v398h-395v90h395v397h90v-397h395v-90z" />
    <glyph glyph-name="comma" unicode="," horiz-adv-x="387" 
d="M117 -270h-80l141 534h121v-6z" />
    <glyph glyph-name="hyphen" unicode="-" horiz-adv-x="903" 
d="M780 477h-657v90h657v-90z" />
    <glyph glyph-name="period" unicode="." horiz-adv-x="382" 
d="M193 147q33 0 55 -22t22 -53q0 -34 -21.5 -56t-55.5 -22t-57 22t-23 56q0 31 23 53t57 22z" />
    <glyph glyph-name="slash" unicode="/" horiz-adv-x="702" 
d="M690 1516l-590 -1663h-88l590 1663h88z" />
    <glyph glyph-name="zero" unicode="0" horiz-adv-x="1361" 
d="M680 1395q165 0 292.5 -88.5t197 -249.5t69.5 -371t-69.5 -371t-197 -249.5t-292.5 -88.5q-250 0 -403.5 195.5t-153.5 513.5t153.5 513.5t403.5 195.5zM680 74q205 0 330 168t125 444t-125 445t-330 169q-204 0 -328.5 -169t-124.5 -445q0 -275 124.5 -443.5
t328.5 -168.5z" />
    <glyph glyph-name="one" unicode="1" horiz-adv-x="712" 
d="M520 1372v-1372h-102v1243l-381 -219v100l420 248h63z" />
    <glyph glyph-name="two" unicode="2" horiz-adv-x="1044" 
d="M981 94v-94h-918v66l502 456q68 60 106.5 97t80.5 84.5t62.5 86.5t34 87t13.5 102q0 146 -95 236t-249 90q-160 0 -257.5 -99t-100.5 -266l-97 16q5 198 129.5 318.5t325.5 120.5q200 0 322.5 -114t122.5 -300q0 -52 -8.5 -97.5t-30 -89.5t-45.5 -80.5t-67 -82.5
t-81.5 -83.5t-101.5 -94.5l-396 -359h748z" />
    <glyph glyph-name="three" unicode="3" horiz-adv-x="1214" 
d="M811 707q129 -26 200.5 -110t71.5 -212q0 -183 -126.5 -295.5t-331.5 -112.5q-216 0 -350.5 124t-145.5 327l98 18q9 -172 115 -275t283 -103q161 0 261.5 87t100.5 228q0 131 -94.5 205t-259.5 74h-184v88h180q150 0 239.5 70.5t89.5 191.5q0 132 -94.5 212.5
t-249.5 80.5q-163 0 -262 -95.5t-108 -259.5l-97 19q12 192 138.5 309t328.5 117q198 0 319.5 -105.5t121.5 -277.5q0 -117 -65 -196t-179 -109z" />
    <glyph glyph-name="four" unicode="4" horiz-adv-x="1271" 
d="M1206 356h-237v-356h-101v356h-780v105l758 911h123v-928h237v-88zM868 444v807l-667 -807h667z" />
    <glyph glyph-name="five" unicode="5" horiz-adv-x="1144" 
d="M283 799h321q206 0 325.5 -100.5t119.5 -292.5t-129.5 -310.5t-341.5 -118.5q-216 0 -351.5 126t-138.5 339l102 21q0 -181 108 -287t282 -106q166 0 267 91t101 242t-92.5 227.5t-257.5 76.5h-418l35 665h784v-94h-690z" />
    <glyph glyph-name="six" unicode="6" horiz-adv-x="1245" 
d="M659 887q210 0 336.5 -128t126.5 -325q0 -198 -129 -327.5t-340 -129.5q-256 0 -393 174.5t-137 489.5q0 417 188 610q141 144 353 144q155 0 267 -76t150 -213l-100 -19q-29 105 -114.5 161.5t-207.5 56.5q-171 0 -282 -121q-166 -185 -154 -549v-31q43 126 164 204.5
t272 78.5zM651 72q165 0 267 104.5t102 259.5t-102 258t-267 103q-172 0 -277.5 -109t-105.5 -258q0 -156 110.5 -257t272.5 -101z" />
    <glyph glyph-name="seven" unicode="7" horiz-adv-x="1003" 
d="M971 1372v-67l-570 -1305h-116l569 1278h-801v94h918z" />
    <glyph glyph-name="eight" unicode="8" horiz-adv-x="1193" 
d="M768 707q166 -33 247 -131.5t81 -219.5q0 -169 -137 -274t-359 -105q-225 0 -362.5 105t-137.5 274q0 122 81.5 219t246.5 132q-148 35 -219.5 125t-71.5 208q0 160 126 257.5t337 97.5q207 0 333 -97.5t126 -257.5q0 -75 -27 -139t-94.5 -118t-169.5 -76zM238 1034
q0 -122 97.5 -199t262.5 -77q166 0 263 78t97 198q0 124 -99.5 199.5t-258.5 75.5q-162 0 -262 -75.5t-100 -199.5zM598 70q171 0 278 79.5t107 212.5q0 128 -103 210.5t-280 82.5q-176 0 -281.5 -82.5t-105.5 -212.5q0 -132 106.5 -211t278.5 -79z" />
    <glyph glyph-name="nine" unicode="9" horiz-adv-x="1245" 
d="M594 1395q255 0 391.5 -174t136.5 -490q0 -416 -186 -610q-141 -144 -352 -144q-156 0 -268.5 75.5t-151.5 213.5l100 19q30 -105 115 -160t209 -55q172 0 280 118q164 182 156 549l-2 33q-41 -126 -161.5 -204.5t-272.5 -78.5q-211 0 -338 127.5t-127 323.5
q0 198 129.5 327.5t341.5 129.5zM594 575q116 0 205 52.5t133.5 135.5t44.5 179q0 157 -110 257.5t-273 100.5q-164 0 -266.5 -105t-102.5 -259t102.5 -257.5t266.5 -103.5z" />
    <glyph glyph-name="colon" unicode=":" horiz-adv-x="382" 
d="M193 922q33 0 55 -22.5t22 -53.5q0 -34 -21.5 -55t-55.5 -21t-57 21.5t-23 54.5q0 31 23.5 53.5t56.5 22.5zM193 147q33 0 55 -22t22 -53q0 -34 -21.5 -56t-55.5 -22t-57 22t-23 56q0 31 23 53t57 22z" />
    <glyph glyph-name="semicolon" unicode=";" horiz-adv-x="434" 
d="M242 922q33 0 56.5 -22.5t23.5 -53.5q0 -33 -23 -54.5t-57 -21.5t-56 21t-22 55q0 31 22.5 53.5t55.5 22.5zM117 -270h-80l141 534h121v-6z" />
    <glyph glyph-name="less" unicode="&#x3c;" horiz-adv-x="880" 
d="M801 248l-738 344v90l738 344v-106l-611 -283l611 -285v-104z" />
    <glyph glyph-name="equal" unicode="=" horiz-adv-x="1187" 
d="M1034 793h-880v90h880v-90zM1034 416h-880v88h880v-88z" />
    <glyph glyph-name="greater" unicode="&#x3e;" horiz-adv-x="880" 
d="M692 637l-610 283v106l737 -344v-90l-737 -344v104z" />
    <glyph glyph-name="question" unicode="?" horiz-adv-x="1056" 
d="M537 1395q201 0 323.5 -115t122.5 -303q0 -171 -119 -283t-303 -123v-180h-96v262h57q154 0 258.5 90t104.5 234q0 148 -95.5 238t-252.5 90q-159 0 -258.5 -101t-104.5 -266l-96 18q3 193 129.5 316t329.5 123zM512 147q34 0 57 -22t23 -53q0 -34 -23 -56t-57 -22
t-56 22t-22 56q0 31 22.5 53t55.5 22z" />
    <glyph glyph-name="at" unicode="@" horiz-adv-x="1980" 
d="M995 1395q174 0 328.5 -59t266.5 -162t177.5 -250.5t65.5 -317.5q0 -89 -18 -169.5t-54.5 -148.5t-100.5 -108.5t-147 -40.5q-103 0 -165.5 53t-67.5 142q-51 -87 -137.5 -135.5t-192.5 -48.5q-171 0 -287 116.5t-116 300.5q0 186 116 303t287 117q105 0 192 -49
t138 -137v166h76v-617q0 -65 45.5 -105t116.5 -40q61 0 108 34t75 91.5t42 127t14 146.5q0 209 -101 375.5t-275 258t-386 91.5q-163 0 -306.5 -57t-245.5 -156t-161 -238.5t-59 -299.5q0 -159 59 -300t159.5 -240t237.5 -156.5t288 -57.5q122 0 255.5 36t227.5 99l39 -63
q-97 -66 -242 -104t-278 -38q-167 0 -318 61.5t-261 168.5t-175 261t-65 330q0 175 64.5 328t176.5 260.5t268.5 169.5t335.5 62zM958 223q136 0 229 96t93 250q0 153 -93 246.5t-229 93.5q-138 0 -233.5 -94t-95.5 -246q0 -155 95.5 -250.5t233.5 -95.5z" />
    <glyph glyph-name="A" unicode="A" horiz-adv-x="1402" 
d="M1372 0h-110l-168 375h-783l-170 -375h-110l624 1372h93zM1051 469l-349 772l-348 -772h697z" />
    <glyph glyph-name="B" unicode="B" horiz-adv-x="1378" 
d="M969 700v-4q133 -14 214 -101.5t81 -225.5q0 -164 -113 -266.5t-305 -102.5h-649v1372h610q193 0 301.5 -96t108.5 -256q0 -126 -71.5 -215.5t-176.5 -104.5zM301 1282v-547h528q129 0 209 77.5t80 203.5q0 122 -84.5 194t-234.5 72h-498zM301 90h537q146 0 233.5 79
t87.5 206q0 126 -89.5 200t-233.5 74h-535v-559z" />
    <glyph glyph-name="C" unicode="C" horiz-adv-x="1607" 
d="M836 74q193 0 336.5 93.5t205.5 256.5l101 -25q-70 -194 -241.5 -308t-401.5 -114q-146 0 -277 55.5t-225 150t-149.5 226t-55.5 277.5t55.5 277.5t149.5 226t225 150t277 55.5q229 0 401 -113t242 -303l-99 -31q-60 162 -204.5 256t-339.5 94q-125 0 -237 -47.5
t-192.5 -129t-128 -195t-47.5 -240.5t47.5 -240.5t128 -195t192.5 -129t237 -47.5z" />
    <glyph glyph-name="D" unicode="D" horiz-adv-x="1517" 
d="M197 1372h430q181 0 327.5 -54t240.5 -148t144 -217.5t50 -266.5t-50 -266.5t-144 -217.5t-240.5 -148t-327.5 -54h-430v1372zM301 94h324q158 0 285.5 46.5t208.5 128t124 188t43 229.5t-43 229.5t-124 188t-208.5 128t-285.5 46.5h-324v-1184z" />
    <glyph glyph-name="E" unicode="E" horiz-adv-x="1308" 
d="M301 1278v-543h817v-92h-817v-549h879v-94h-983v1372h983v-94h-879z" />
    <glyph glyph-name="F" unicode="F" horiz-adv-x="1204" 
d="M301 1278v-549h793v-94h-793v-635h-104v1372h962v-94h-858z" />
    <glyph glyph-name="G" unicode="G" horiz-adv-x="1648" 
d="M754 731h764q2 -16 2 -45q0 -196 -84.5 -357t-242 -256.5t-357.5 -95.5q-195 0 -357.5 94t-256 256.5t-93.5 358.5q0 195 93 358t255.5 257t356.5 94q226 0 395.5 -103.5t243.5 -283.5l-93 -35q-69 154 -212.5 239.5t-333.5 85.5q-125 0 -236.5 -47.5t-191.5 -129
t-126.5 -195t-46.5 -240.5q0 -169 80 -310t219 -221.5t306 -80.5q123 0 228.5 43.5t180 119.5t120 179t52.5 221h-665v94z" />
    <glyph glyph-name="H" unicode="H" horiz-adv-x="1509" 
d="M1313 1372v-1372h-103v645h-909v-645h-104v1372h104v-633h909v633h103z" />
    <glyph glyph-name="I" unicode="I" horiz-adv-x="497" 
d="M301 0h-104v1372h104v-1372z" />
    <glyph glyph-name="J" unicode="J" horiz-adv-x="1218" 
d="M1038 1372v-866q0 -235 -136 -382t-357 -147q-199 0 -331 121t-157 318l99 22q21 -166 124.5 -266t264.5 -100q176 0 283.5 120.5t107.5 313.5v866h102z" />
    <glyph glyph-name="K" unicode="K" horiz-adv-x="1374" 
d="M1296 0h-143l-780 637h-72v-637h-104v1372h104v-641h66l749 641h133l-796 -688z" />
    <glyph glyph-name="L" unicode="L" horiz-adv-x="1193" 
d="M1128 94v-94h-931v1372h104v-1278h827z" />
    <glyph glyph-name="M" unicode="M" horiz-adv-x="1849" 
d="M1653 1372v-1372h-101v1147l-596 -1147h-63l-596 1147v-1147h-100v1372h92l637 -1220l637 1220h90z" />
    <glyph glyph-name="N" unicode="N" horiz-adv-x="1556" 
d="M1358 1372v-1372h-92l-965 1194v-1194h-104v1372h92l966 -1202v1202h103z" />
    <glyph glyph-name="O" unicode="O" horiz-adv-x="1660" 
d="M831 1395q145 0 275 -55.5t223.5 -150.5t148 -226t54.5 -277q0 -195 -92.5 -358t-254 -257t-354.5 -94q-194 0 -355.5 94t-254 256.5t-92.5 358.5q0 195 92.5 357.5t254 257t355.5 94.5zM831 74q124 0 235 47.5t191 128.5t126.5 194.5t46.5 241.5q0 127 -46.5 240.5
t-126.5 195t-191 129t-235 47.5q-166 0 -304 -80.5t-217 -221.5t-79 -310q0 -170 79 -310.5t216.5 -221t304.5 -80.5z" />
    <glyph glyph-name="P" unicode="P" horiz-adv-x="1316" 
d="M197 1372h579q209 0 336 -113.5t127 -293.5q0 -183 -127 -296.5t-336 -113.5h-475v-555h-104v1372zM301 649h475q162 0 260.5 88t98.5 228q0 138 -98.5 225.5t-260.5 87.5h-475v-629z" />
    <glyph glyph-name="Q" unicode="Q" horiz-adv-x="1660" 
d="M1468 -326l-317 379q-149 -76 -320 -76q-194 0 -355.5 94t-254 256.5t-92.5 358.5q0 195 92.5 357.5t254 257t355.5 94.5q145 0 275 -55.5t223.5 -150.5t148 -226t54.5 -277q0 -178 -77 -329t-212 -248l305 -363zM231 686q0 -170 79 -310.5t216.5 -221t304.5 -80.5
q124 0 235 47.5t191 128.5t126.5 194.5t46.5 241.5q0 127 -46.5 240.5t-126.5 195t-191 129t-235 47.5q-166 0 -304 -80.5t-217 -221.5t-79 -310z" />
    <glyph glyph-name="R" unicode="R" horiz-adv-x="1368" 
d="M1303 0h-136l-565 631h-301v-631h-104v1372h624q192 0 309 -102t117 -269t-117 -268.5t-309 -101.5h-88zM301 723h520q146 0 235 76t89 202q0 125 -89 201t-235 76h-520v-555z" />
    <glyph glyph-name="S" unicode="S" horiz-adv-x="1267" 
d="M631 1395q201 0 332.5 -100.5t166.5 -266.5l-102 -24q-27 138 -133.5 219.5t-267.5 81.5q-156 0 -255.5 -78.5t-99.5 -208.5q0 -105 63 -158.5t181 -81.5l301 -71q56 -12 101.5 -28t90.5 -43t75.5 -62t49.5 -87.5t19 -117.5q0 -179 -133.5 -285.5t-355.5 -106.5
q-224 0 -376 110t-175 298l110 25q19 -158 142 -249t307 -91q174 0 276.5 80.5t102.5 214.5q0 110 -60.5 163t-195.5 84l-318 74q-149 35 -232 113t-83 217q0 172 130 275.5t339 103.5z" />
    <glyph glyph-name="T" unicode="T" horiz-adv-x="1290" 
d="M1233 1278h-535v-1278h-106v1278h-535v94h1176v-94z" />
    <glyph glyph-name="U" unicode="U" horiz-adv-x="1484" 
d="M1307 1372v-780q0 -277 -155 -446t-407 -169q-255 0 -411 169t-156 446v780h105v-780q0 -233 126.5 -374.5t335.5 -141.5q206 0 332.5 141.5t126.5 374.5v780h103z" />
    <glyph glyph-name="V" unicode="V" horiz-adv-x="1390" 
d="M1348 1372l-605 -1372h-96l-604 1372h113l538 -1229l541 1229h113z" />
    <glyph glyph-name="W" unicode="W" horiz-adv-x="1943" 
d="M1898 1372l-432 -1372h-104l-391 1208l-391 -1208h-103l-434 1372h109l380 -1212l390 1212h100l389 -1212l379 1212h108z" />
    <glyph glyph-name="X" unicode="X" horiz-adv-x="1263" 
d="M1092 0l-461 623l-459 -623h-129l512 690l-496 682h127l445 -614l446 614h127l-497 -682l514 -690h-129z" />
    <glyph glyph-name="Y" unicode="Y" horiz-adv-x="1351" 
d="M727 500v-500h-104v500l-580 872h117l516 -772l514 772h119z" />
    <glyph glyph-name="Z" unicode="Z" horiz-adv-x="1282" 
d="M1167 90v-90h-1036v66l899 1216h-872v90h1007v-72l-889 -1210h891z" />
    <glyph glyph-name="bracketleft" unicode="[" horiz-adv-x="786" 
d="M297 1427v-1507h362v-88h-462v1684h462v-89h-362z" />
    <glyph glyph-name="backslash" unicode="\" horiz-adv-x="702" 
d="M690 -147h-88l-590 1663h88z" />
    <glyph glyph-name="bracketright" unicode="]" horiz-adv-x="786" 
d="M590 1516v-1684h-461v88h363v1507h-363v89h461z" />
    <glyph glyph-name="asciicircum" unicode="^" horiz-adv-x="755" 
d="M154 961h-97l287 411h70l286 -411h-98l-223 317z" />
    <glyph glyph-name="underscore" unicode="_" horiz-adv-x="999" 
d="M958 -201h-917v86h917v-86z" />
    <glyph glyph-name="grave" unicode="`" horiz-adv-x="1228" 
d="M487 1444l179 -283h-91l-202 283h114z" />
    <glyph glyph-name="a" unicode="a" horiz-adv-x="1318" 
d="M1122 1001v-1001h-100v211q-66 -110 -179.5 -172t-250.5 -62q-102 0 -194.5 37.5t-162 104.5t-110.5 166.5t-41 216.5q0 154 70 275t185.5 185t252.5 64q136 0 250 -62.5t180 -172.5v210h100zM602 68q109 0 204 51.5t155.5 152.5t60.5 230q0 128 -60.5 229t-155.5 153
t-204 52q-177 0 -298.5 -120t-121.5 -314q0 -196 121.5 -315t298.5 -119z" />
    <glyph glyph-name="b" unicode="b" horiz-adv-x="1335" 
d="M729 1026q137 0 252 -64t184.5 -185t69.5 -275q0 -117 -40.5 -216.5t-109.5 -166.5t-161.5 -104.5t-194.5 -37.5q-138 0 -252 63t-180 175v-215h-100v1475h100v-687q66 112 180 175t252 63zM717 68q177 0 298.5 119t121.5 315q0 194 -121.5 314t-298.5 120
q-109 0 -204 -52t-155.5 -153t-60.5 -229q0 -129 60.5 -230t155.5 -152.5t204 -51.5z" />
    <glyph glyph-name="c" unicode="c" horiz-adv-x="1179" 
d="M616 70q129 0 231 63t138 176l92 -26q-39 -140 -167.5 -223t-293.5 -83q-103 0 -197 37.5t-164.5 104t-112.5 166t-42 217.5q0 114 42 213t112.5 166.5t164.5 106t197 38.5q162 0 290.5 -86t172.5 -229l-94 -31q-34 118 -137 185t-232 67q-173 0 -295 -120.5t-122 -309.5
q0 -195 121 -313.5t296 -118.5z" />
    <glyph glyph-name="d" unicode="d" horiz-adv-x="1335" 
d="M1139 1475v-1475h-101v215q-66 -112 -180 -175t-252 -63q-102 0 -194.5 37.5t-161.5 104.5t-109.5 166.5t-40.5 216.5q0 154 69.5 275t184.5 185t252 64q138 0 252 -63t180 -175v687h101zM618 68q109 0 204 51.5t155.5 152.5t60.5 230q0 128 -60.5 229t-155.5 153
t-204 52q-115 0 -210 -52t-152 -152.5t-57 -229.5q0 -196 121 -315t298 -119z" />
    <glyph glyph-name="e" unicode="e" horiz-adv-x="1204" 
d="M1106 528v-36h-907q2 -129 62.5 -228t151 -148.5t193.5 -49.5q135 0 236 63t153 193l88 -21q-57 -157 -180.5 -240.5t-296.5 -83.5q-97 0 -187.5 36.5t-161.5 102t-114 165t-43 217.5q0 119 43 219.5t115 167.5t165.5 104t194.5 37q207 0 344 -138.5t144 -359.5zM618 936
q-150 0 -272 -100.5t-143 -266.5h803q-18 171 -125 269t-263 98z" />
    <glyph glyph-name="f" unicode="f" horiz-adv-x="716" 
d="M721 915h-395v-915h-101v915h-184v86h184v179q0 153 85.5 242t232.5 89q82 0 157 -32l-30 -84q-53 26 -121 26q-103 0 -163 -65.5t-60 -175.5v-179h395v-86z" />
    <glyph glyph-name="g" unicode="g" horiz-adv-x="1302" 
d="M1106 1001v-929q-1 -211 -135 -336t-353 -125q-189 0 -312.5 73t-180.5 207l88 54q53 -119 150.5 -180.5t254.5 -61.5q174 0 281.5 104t108.5 275v190q-62 -102 -168.5 -158.5t-241.5 -56.5q-134 0 -247.5 60t-182 172t-68.5 254q0 141 68.5 252t182 170t247.5 59
q136 0 242 -55.5t168 -157.5v190h98zM610 145q163 0 280.5 110.5t117.5 287.5q0 175 -117.5 284t-280.5 109q-174 0 -293.5 -108t-119.5 -285q0 -178 119.5 -288t293.5 -110z" />
    <glyph glyph-name="h" unicode="h" horiz-adv-x="1286" 
d="M709 1026q181 0 292 -119t111 -311v-596h-100v582q0 158 -87.5 254t-228.5 96q-182 0 -290.5 -115.5t-108.5 -314.5v-502h-100v1475h100v-687q59 114 165 176t247 62z" />
    <glyph glyph-name="i" unicode="i" horiz-adv-x="532" 
d="M266 1384q34 0 56 -22t22 -55q0 -32 -22 -54t-56 -22q-35 0 -57.5 21.5t-22.5 54.5t22.5 55t57.5 22zM315 0h-98v1001h98v-1001z" />
    <glyph glyph-name="j" unicode="j" horiz-adv-x="571" 
d="M305 1384q34 0 57 -22.5t23 -54.5t-23 -54t-57 -22t-57 22t-23 54t23 54.5t57 22.5zM-20 -334l26 84q46 -24 98 -24q68 0 110 40.5t42 106.5v1128h98v-1138q0 -104 -63.5 -168t-167.5 -64q-81 0 -143 35z" />
    <glyph glyph-name="k" unicode="k" horiz-adv-x="1153" 
d="M1137 0h-148l-624 469h-68v-469h-100v1475h100v-910h78l555 436h135l-614 -487z" />
    <glyph glyph-name="l" unicode="l" horiz-adv-x="493" 
d="M297 0h-100v1475h100v-1475z" />
    <glyph glyph-name="m" unicode="m" horiz-adv-x="1935" 
d="M1395 1026q160 0 262 -100.5t102 -263.5v-662h-100v647q0 128 -79.5 206.5t-207.5 78.5q-158 0 -252 -109t-94 -297v-526h-100v647q0 128 -79.5 206.5t-207.5 78.5q-155 0 -248.5 -109.5t-93.5 -296.5v-526h-100v1001h100v-196q52 105 146 163t219 58q126 0 218.5 -63
t127.5 -172q55 111 155.5 173t231.5 62z" />
    <glyph glyph-name="n" unicode="n" horiz-adv-x="1286" 
d="M709 1026q181 0 292 -119t111 -311v-596h-100v582q0 158 -87.5 254t-228.5 96q-182 0 -290.5 -115.5t-108.5 -314.5v-502h-100v1001h100v-213q59 114 165 176t247 62z" />
    <glyph glyph-name="o" unicode="o" horiz-adv-x="1253" 
d="M627 1024q147 0 267 -66.5t189.5 -186.5t69.5 -269q0 -226 -151 -375.5t-375 -149.5t-375.5 149.5t-151.5 375.5q0 149 69.5 269t190 186.5t267.5 66.5zM627 68q181 0 304.5 123t123.5 311q0 189 -123 311.5t-305 122.5t-305 -122.5t-123 -311.5q0 -188 123.5 -311
t304.5 -123z" />
    <glyph glyph-name="p" unicode="p" horiz-adv-x="1335" 
d="M729 1026q137 0 252 -64t184.5 -185t69.5 -275q0 -117 -40.5 -216.5t-109.5 -166.5t-161.5 -104.5t-194.5 -37.5q-138 0 -252 63t-180 175v-563h-100v1349h100v-213q66 112 180 175t252 63zM717 68q177 0 298.5 119t121.5 315q0 194 -121.5 314t-298.5 120
q-109 0 -204 -52t-155.5 -153t-60.5 -229q0 -129 60.5 -230t155.5 -152.5t204 -51.5z" />
    <glyph glyph-name="q" unicode="q" horiz-adv-x="1335" 
d="M1139 1001v-1349h-101v563q-66 -112 -180 -175t-252 -63q-102 0 -194.5 37.5t-161.5 104.5t-109.5 166.5t-40.5 216.5q0 154 69.5 275t184.5 185t252 64q138 0 252 -63t180 -175v213h101zM618 68q109 0 204 51.5t155.5 152.5t60.5 230q0 128 -60.5 229t-155.5 153
t-204 52q-115 0 -210 -52t-152 -152.5t-57 -229.5q0 -196 121 -315t298 -119z" />
    <glyph glyph-name="r" unicode="r" horiz-adv-x="825" 
d="M725 1010q41 0 70 -6l-11 -95q-20 4 -59 4q-133 0 -231.5 -69t-146.5 -179.5t-48 -246.5v-418h-100v1001h100v-280q63 131 173 210t253 79z" />
    <glyph glyph-name="s" unicode="s" horiz-adv-x="1038" 
d="M111 274l98 25q10 -111 104 -174.5t236 -63.5q128 0 205 54.5t77 150.5q0 74 -49.5 113.5t-140.5 60.5l-246 54q-123 27 -185.5 85.5t-62.5 157.5q0 129 102 209t265 80q159 0 261.5 -74.5t131.5 -195.5l-92 -25q-21 97 -100.5 154t-202.5 57q-120 0 -192 -54t-72 -145
q0 -73 46.5 -110t137.5 -58l242 -53q43 -10 77.5 -22.5t69 -33t57.5 -46.5t37.5 -64t14.5 -84q0 -137 -106.5 -216t-280.5 -79q-179 0 -295.5 78.5t-136.5 218.5z" />
    <glyph glyph-name="t" unicode="t" horiz-adv-x="763" 
d="M698 139l39 -82q-105 -80 -219 -80q-135 0 -217 81.5t-82 224.5v632h-219v86h219v330h100v-330h375v-86h-375v-626q0 -100 56 -158.5t149 -58.5q95 0 174 67z" />
    <glyph glyph-name="u" unicode="u" horiz-adv-x="1286" 
d="M1090 1001v-1001h-101v213q-59 -114 -164.5 -176t-244.5 -62q-182 0 -293 119.5t-111 313.5v593h98v-579q0 -158 87.5 -255t230.5 -97q181 0 289 115t108 315v501h101z" />
    <glyph glyph-name="v" unicode="v" horiz-adv-x="1114" 
d="M1071 1004l-459 -1004h-110l-459 1004h113l401 -889l401 889h113z" />
    <glyph glyph-name="w" unicode="w" horiz-adv-x="1554" 
d="M1511 1004l-340 -1010h-98l-295 848l-297 -848h-98l-340 1010h102l291 -859l301 856h80l301 -858l291 861h102z" />
    <glyph glyph-name="x" unicode="x" horiz-adv-x="1169" 
d="M655 498l406 -498h-121l-354 438l-357 -438h-120l405 498l-405 506h120l357 -447l354 447h121z" />
    <glyph glyph-name="y" unicode="y" horiz-adv-x="1130" 
d="M1087 1004l-632 -1352h-111l166 356l-467 996h115l407 -881l412 881h110z" />
    <glyph glyph-name="z" unicode="z" horiz-adv-x="1019" 
d="M938 86v-86h-856v70l709 845h-689v86h816v-69l-709 -846h729z" />
    <glyph glyph-name="braceleft" unicode="{" horiz-adv-x="884" 
d="M442 1253v-350q0 -81 -37 -141t-102 -88q65 -28 102 -88t37 -142v-350q0 -79 46.5 -126.5t121.5 -47.5h148v-88h-156q-117 0 -187.5 69.5t-70.5 184.5v350q0 86 -51.5 137t-136.5 56l-37 4v82l37 4q85 6 136.5 56.5t51.5 135.5v351q0 115 70.5 184.5t187.5 69.5h156v-86
h-148q-75 0 -121.5 -49t-46.5 -128z" />
    <glyph glyph-name="bar" unicode="|" horiz-adv-x="493" 
d="M297 -147h-100v1663h100v-1663z" />
    <glyph glyph-name="braceright" unicode="}" horiz-adv-x="884" 
d="M768 715v-82l-37 -4q-86 -5 -137 -56t-51 -137v-350q0 -115 -70.5 -184.5t-187.5 -69.5h-156v88h147q74 0 120 47.5t46 126.5v350q0 82 37 142t103 88q-65 28 -102.5 88t-37.5 141v350q0 79 -46 128t-120 49h-147v86h156q117 0 187.5 -69.5t70.5 -184.5v-351
q0 -85 51 -135.5t137 -56.5z" />
    <glyph glyph-name="asciitilde" unicode="~" horiz-adv-x="950" 
d="M176 498h-90q0 114 60 174.5t151 60.5q54 0 104.5 -24t83 -52.5t76 -52.5t86.5 -24q59 0 93.5 40.5t31.5 110.5h94q0 -117 -62 -179.5t-153 -62.5q-44 0 -84.5 16t-71 38.5t-59.5 45t-62.5 38.5t-68.5 16q-62 0 -97.5 -39.5t-31.5 -105.5z" />
    <glyph glyph-name="exclamdown" unicode="&#xa1;" horiz-adv-x="532" 
d="M266 872q-33 0 -56.5 22.5t-23.5 53.5q0 32 23 54t57 22t56 -22t22 -54q0 -31 -22.5 -53.5t-55.5 -22.5zM213 -291l4 924h100l2 -924v-63h-106v63z" />
    <glyph glyph-name="cent" unicode="&#xa2;" horiz-adv-x="1179" 
d="M649 930v-858q120 8 211.5 70t124.5 167l92 -26q-38 -133 -155 -215t-271 -91v-243h-88v246q-128 13 -232.5 78.5t-167.5 181.5t-63 262q0 214 133.5 357.5t329.5 164.5v266h88v-266q151 -9 269 -93.5t159 -219.5l-94 -31q-31 111 -123.5 176.5t-212.5 73.5zM199 502
q0 -180 104 -295.5t262 -134.5v858q-157 -19 -261.5 -136.5t-104.5 -291.5z" />
    <glyph glyph-name="sterling" unicode="&#xa3;" horiz-adv-x="1320" 
d="M1210 94v-94h-1081v63l174 25v502h-174v94h174v272q0 196 123.5 317.5t323.5 121.5t322.5 -120.5t127.5 -316.5l-100 -20q-3 166 -97.5 262t-252.5 96q-154 0 -249 -93.5t-95 -246.5v-272h542v-94h-542v-496h804z" />
    <glyph glyph-name="yen" unicode="&#xa5;" horiz-adv-x="1337" 
d="M766 616h364v-81h-411v-181h411v-82h-411v-272h-103v272h-409v82h409v181h-409v81h362l-497 756h116l480 -737l477 737h121z" />
    <glyph glyph-name="section" unicode="&#xa7;" horiz-adv-x="1085" 
d="M993 475q0 -102 -50 -170t-128 -100q88 -79 88 -195q0 -134 -103 -216.5t-268 -82.5q-195 0 -304 98.5t-107 258.5l88 20q2 -139 83.5 -216t235.5 -77q124 0 199.5 60.5t75.5 156.5q0 64 -36.5 110.5t-117.5 82.5l-323 147q-131 58 -187.5 122t-56.5 159q0 101 49.5 169
t126.5 101q-86 77 -86 193q0 136 102 217.5t267 81.5q184 0 289.5 -97t107.5 -254l-92 -22q-2 136 -81.5 213.5t-219.5 77.5q-123 0 -199 -60t-76 -157q0 -64 37 -110.5t119 -84.5l324 -145q129 -58 186 -122.5t57 -158.5zM741 256q156 63 156 213q0 63 -41 112t-149 99
l-326 147q-9 4 -51 25q-154 -62 -154 -213q0 -64 41.5 -112t151.5 -99l323 -147q24 -11 49 -25z" />
    <glyph glyph-name="dieresis" unicode="&#xa8;" horiz-adv-x="1228" 
d="M422 1352q33 0 55.5 -23.5t22.5 -54.5q0 -34 -22 -55t-56 -21t-57 21.5t-23 54.5q0 31 23.5 54.5t56.5 23.5zM809 1352q33 0 55.5 -23.5t22.5 -54.5q0 -34 -22 -55t-56 -21t-57 21.5t-23 54.5q0 31 23.5 54.5t56.5 23.5z" />
    <glyph glyph-name="copyright" unicode="&#xa9;" horiz-adv-x="1607" 
d="M803 1395q192 0 353.5 -90.5t257 -255t95.5 -367.5q0 -201 -95.5 -363.5t-257 -252t-353.5 -89.5q-193 0 -355 89.5t-258 252t-96 363.5q0 203 96 367.5t258 255t355 90.5zM803 1337q-176 0 -323.5 -83t-234.5 -233.5t-87 -336.5q0 -138 51 -259.5t138.5 -206t206 -133
t249.5 -48.5t249 48.5t205 133t138 206t51 259.5q0 186 -87 336.5t-234 233.5t-322 83zM817 1071q133 0 234 -75t123 -189l-74 -19q-26 94 -106 151.5t-177 57.5q-130 0 -218.5 -87t-88.5 -224q0 -139 88.5 -227t218.5 -88q97 0 177.5 59t103.5 154l73 -17
q-23 -118 -122 -194t-232 -76q-162 0 -274.5 109t-112.5 280q0 170 112.5 277.5t274.5 107.5z" />
    <glyph glyph-name="ordfeminine" unicode="&#xaa;" horiz-adv-x="790" 
d="M412 1378q123 0 196.5 -65t73.5 -187v-421h-80v106q-86 -123 -260 -123q-104 0 -165.5 54.5t-61.5 144.5q0 91 77 145.5t214 54.5h196v43q0 86 -50.5 134.5t-137.5 48.5q-77 0 -129 -39.5t-66 -120.5l-74 14q20 104 91.5 157.5t175.5 53.5zM354 752q107 0 177.5 61.5
t70.5 153.5v63h-192q-103 0 -159 -38.5t-56 -104.5q0 -61 43.5 -98t115.5 -37z" />
    <glyph glyph-name="guillemotleft" unicode="&#xab;" horiz-adv-x="790" 
d="M51 537l260 364h105l-260 -364l260 -365h-105zM375 537l260 364h104l-260 -364l260 -365h-104z" />
    <glyph glyph-name="registered" unicode="&#xae;" horiz-adv-x="1024" 
d="M512 1395q171 0 290.5 -117t119.5 -295q0 -176 -119.5 -293t-290.5 -117t-290.5 117t-119.5 293q0 178 119.5 295t290.5 117zM512 621q152 0 257 103.5t105 258.5q0 159 -105 264t-257 105q-151 0 -256.5 -105t-105.5 -264q0 -155 105.5 -258.5t256.5 -103.5zM688 1067
q0 -51 -34.5 -85t-92.5 -40l148 -143h-60l-143 141h-92v-141h-45v393h168q68 0 109.5 -34t41.5 -91zM414 981h121q47 0 76.5 24t29.5 62t-28.5 61t-75.5 23h-123v-170z" />
    <glyph glyph-name="macron" unicode="&#xaf;" horiz-adv-x="1228" 
d="M889 1206h-547v82h547v-82z" />
    <glyph glyph-name="degree" unicode="&#xb0;" horiz-adv-x="823" 
d="M414 1395q107 0 183.5 -70.5t76.5 -183.5q0 -111 -77 -182.5t-183 -71.5q-108 0 -186 71.5t-78 182.5q0 113 78 183.5t186 70.5zM414 958q73 0 127.5 51.5t54.5 131.5q0 81 -54.5 132.5t-127.5 51.5q-75 0 -131 -52t-56 -132t56 -131.5t131 -51.5z" />
    <glyph glyph-name="plusminus" unicode="&#xb1;" horiz-adv-x="1187" 
d="M1034 752v-90h-395v-367h-90v367h-395v90h395v376h90v-376h395zM154 90h880v-90h-880v90z" />
    <glyph glyph-name="acute" unicode="&#xb4;" horiz-adv-x="1228" 
d="M618 1161h-90l177 283h114z" />
    <glyph glyph-name="paragraph" unicode="&#xb6;" horiz-adv-x="1112" 
d="M657 0h-86v612h-102q-186 0 -307 105.5t-121 281.5q0 181 107.5 277t291.5 96h217v-1372zM915 0h-86v1372h86v-1372z" />
    <glyph glyph-name="periodcentered" unicode="&#xb7;" horiz-adv-x="382" 
d="M193 621q33 0 55 -22.5t22 -53.5q0 -34 -21.5 -55t-55.5 -21t-57 21.5t-23 54.5q0 31 23.5 53.5t56.5 22.5z" />
    <glyph glyph-name="cedilla" unicode="&#xb8;" horiz-adv-x="1228" 
d="M596 0h82l-180 -358h-111z" />
    <glyph glyph-name="ordmasculine" unicode="&#xba;" horiz-adv-x="911" 
d="M455 1378q146 0 247 -96t101 -248t-101 -249t-247 -97q-141 0 -242.5 97.5t-101.5 248.5t101.5 247.5t242.5 96.5zM455 762q110 0 189 76.5t79 195.5t-79 196t-189 77q-105 0 -185 -77.5t-80 -195.5t80 -195t185 -77z" />
    <glyph glyph-name="guillemotright" unicode="&#xbb;" horiz-adv-x="790" 
d="M51 172l260 365l-260 364h105l260 -364l-260 -365h-105zM375 172l260 365l-260 364h104l260 -364l-260 -365h-104z" />
    <glyph glyph-name="onequarter" unicode="&#xbc;" horiz-adv-x="1398" 
d="M231 1266l-180 -109v84l211 131h51v-745h-82v639zM1235 1372l-1036 -1372h-80l1036 1372h80zM1354 182h-129v-184h-76v184h-424v76l412 485h88v-493h129v-68zM1149 250v401l-344 -401h344z" />
    <glyph glyph-name="onehalf" unicode="&#xbd;" horiz-adv-x="1527" 
d="M231 1266l-180 -109v84l211 131h51v-745h-82v639zM1217 1372l-1037 -1372h-80l1037 1372h80zM1462 72v-72h-530v53l285 244q89 75 123 121.5t34 107.5q0 73 -49 117.5t-129 44.5q-85 0 -134.5 -51t-49.5 -137l-74 14q0 106 70.5 175t187.5 69q115 0 186.5 -63t71.5 -167
q0 -79 -43.5 -139.5t-138.5 -140.5l-209 -176h399z" />
    <glyph glyph-name="threequarters" unicode="&#xbe;" horiz-adv-x="1595" 
d="M618 848q0 -97 -73.5 -160t-192.5 -63q-121 0 -201 67.5t-81 184.5l67 14q4 -94 64.5 -146.5t150.5 -52.5q86 0 138.5 44t52.5 114q0 65 -52 103t-139 38h-69v60h67q79 0 127.5 35t48.5 96q0 63 -51 104t-129 41q-84 0 -138.5 -48.5t-57.5 -135.5l-72 16q4 106 79 170
t187 64q114 0 186 -59.5t72 -151.5q0 -57 -32.5 -98t-88.5 -62q63 -19 100 -64.5t37 -109.5zM1442 1372l-1036 -1372h-80l1036 1372h80zM1550 182h-129v-184h-75v184h-424v76l411 485h88v-493h129v-68zM1346 250v401l-345 -401h345z" />
    <glyph glyph-name="questiondown" unicode="&#xbf;" horiz-adv-x="1056" 
d="M545 872q-33 0 -56.5 22.5t-23.5 53.5q0 32 23 54t57 22t56 -22t22 -54q0 -31 -22.5 -53.5t-55.5 -22.5zM883 80l98 -17q-3 -193 -130.5 -316.5t-330.5 -123.5q-201 0 -323.5 115.5t-122.5 304.5q0 171 119 282.5t303 123.5v180h96v-262h-55q-154 0 -259.5 -91
t-105.5 -233q0 -148 95.5 -239t252.5 -91q160 0 259 101.5t104 265.5z" />
    <glyph glyph-name="Agrave" unicode="&#xc0;" horiz-adv-x="1402" 
d="M655 1532l-200 283h114l176 -283h-90zM1372 0h-110l-168 375h-783l-170 -375h-110l624 1372h93zM1051 469l-349 772l-348 -772h697z" />
    <glyph glyph-name="Aacute" unicode="&#xc1;" horiz-adv-x="1402" 
d="M760 1532h-90l176 283h115zM1372 0h-110l-168 375h-783l-170 -375h-110l624 1372h93zM1051 469l-349 772l-348 -772h697z" />
    <glyph glyph-name="Acircumflex" unicode="&#xc2;" horiz-adv-x="1402" 
d="M518 1518h-104l241 282h95l243 -282h-106l-185 215zM1372 0h-110l-168 375h-783l-170 -375h-110l624 1372h93zM1051 469l-349 772l-348 -772h697z" />
    <glyph glyph-name="Atilde" unicode="&#xc3;" horiz-adv-x="1402" 
d="M582 1692q-41 0 -64.5 -28t-23.5 -75h-76q0 89 44.5 134.5t112.5 45.5q39 0 75 -17t59 -37t54.5 -37t63.5 -17q38 0 60 29t22 77h78q0 -89 -44.5 -135.5t-111.5 -46.5q-39 0 -75 16.5t-59 37t-54 37t-61 16.5zM1372 0h-110l-168 375h-783l-170 -375h-110l624 1372h93z
M1051 469l-349 772l-348 -772h697z" />
    <glyph glyph-name="Adieresis" unicode="&#xc4;" horiz-adv-x="1402" 
d="M510 1569q-34 0 -57 21.5t-23 54.5q0 31 23.5 54t56.5 23t55.5 -23t22.5 -54q0 -34 -22 -55t-56 -21zM897 1569q-34 0 -57 21.5t-23 54.5q0 31 23.5 54t56.5 23t55.5 -23t22.5 -54q0 -34 -22 -55t-56 -21zM1372 0h-110l-168 375h-783l-170 -375h-110l624 1372h93z
M1051 469l-349 772l-348 -772h697z" />
    <glyph glyph-name="Aring" unicode="&#xc5;" horiz-adv-x="1402" 
d="M702 1503q-81 0 -138.5 56.5t-57.5 134.5t57.5 134t138.5 56q83 0 140 -55.5t57 -134.5t-57 -135t-140 -56zM702 1819q-54 0 -91.5 -37t-37.5 -88t37.5 -88t91.5 -37t91.5 37t37.5 88t-37.5 88t-91.5 37zM1372 0h-110l-168 375h-783l-170 -375h-110l624 1372h93z
M1051 469l-349 772l-348 -772h697z" />
    <glyph glyph-name="AE" unicode="&#xc6;" horiz-adv-x="2129" 
d="M1174 1278v-543h817v-92h-817v-549h878v-94h-983v348h-661l-256 -348h-121l1013 1372h1008v-94h-878zM1069 442v811l-594 -811h594z" />
    <glyph glyph-name="Ccedilla" unicode="&#xc7;" horiz-adv-x="1607" 
d="M836 74q193 0 336.5 93.5t205.5 256.5l101 -25q-68 -189 -234 -302.5t-387 -119.5l-170 -335h-110l196 338q-135 11 -254.5 70.5t-205.5 152.5t-135.5 218.5t-49.5 264.5q0 146 55.5 277.5t149.5 226t225 150t277 55.5q229 0 401 -113t242 -303l-99 -31
q-60 162 -204.5 256t-339.5 94q-125 0 -237 -47.5t-192.5 -129t-128 -195t-47.5 -240.5t47.5 -240.5t128 -195t192.5 -129t237 -47.5z" />
    <glyph glyph-name="Egrave" unicode="&#xc8;" horiz-adv-x="1308" 
d="M649 1532l-200 283h114l176 -283h-90zM301 1278v-543h817v-92h-817v-549h879v-94h-983v1372h983v-94h-879z" />
    <glyph glyph-name="Eacute" unicode="&#xc9;" horiz-adv-x="1308" 
d="M754 1532h-90l176 283h114zM301 1278v-543h817v-92h-817v-549h879v-94h-983v1372h983v-94h-879z" />
    <glyph glyph-name="Ecircumflex" unicode="&#xca;" horiz-adv-x="1308" 
d="M512 1518h-104l241 282h94l244 -282h-106l-185 215zM301 1278v-543h817v-92h-817v-549h879v-94h-983v1372h983v-94h-879z" />
    <glyph glyph-name="Edieresis" unicode="&#xcb;" horiz-adv-x="1308" 
d="M504 1569q-34 0 -57 21.5t-23 54.5q0 31 23.5 54t56.5 23t55.5 -23t22.5 -54q0 -34 -22 -55t-56 -21zM891 1569q-34 0 -57 21.5t-23 54.5q0 31 23.5 54t56.5 23t55.5 -23t22.5 -54q0 -34 -22 -55t-56 -21zM301 1278v-543h817v-92h-817v-549h879v-94h-983v1372h983v-94
h-879z" />
    <glyph glyph-name="Igrave" unicode="&#xcc;" horiz-adv-x="497" 
d="M115 1815l176 -283h-90l-201 283h115zM301 0h-104v1372h104v-1372z" />
    <glyph glyph-name="Iacute" unicode="&#xcd;" horiz-adv-x="497" 
d="M305 1532h-90l176 283h115zM301 0h-104v1372h104v-1372z" />
    <glyph glyph-name="Icircumflex" unicode="&#xce;" horiz-adv-x="497" 
d="M539 1518h-107l-184 215l-185 -215h-104l242 282h94zM197 1372h104v-1372h-104v1372z" />
    <glyph glyph-name="Idieresis" unicode="&#xcf;" horiz-adv-x="497" 
d="M55 1722q33 0 55.5 -23t22.5 -54q0 -34 -22 -55t-56 -21t-57 21.5t-23 54.5q0 31 23.5 54t56.5 23zM442 1722q33 0 55.5 -23t22.5 -54q0 -34 -22 -55t-56 -21t-57 21.5t-23 54.5q0 31 23.5 54t56.5 23zM301 0h-104v1372h104v-1372z" />
    <glyph glyph-name="Eth" unicode="&#xd0;" horiz-adv-x="1529" 
d="M231 1372h428q181 0 327.5 -54t241 -148t145 -218t50.5 -266t-50.5 -266t-145 -218t-241 -148t-327.5 -54h-428v645h-170v94h170v633zM334 94h323q158 0 285.5 46.5t209 128t124.5 188t43 229.5t-43 229.5t-124.5 188t-209 128t-285.5 46.5h-323v-539h368v-94h-368v-551z
" />
    <glyph glyph-name="Ntilde" unicode="&#xd1;" horiz-adv-x="1556" 
d="M676 1692q-41 0 -64.5 -28t-23.5 -75h-76q0 89 45 134.5t113 45.5q39 0 75 -17t59 -37t54.5 -37t63.5 -17q38 0 60 29t22 77h77q0 -89 -44 -135.5t-111 -46.5q-39 0 -75.5 16.5t-59 37t-54 37t-61.5 16.5zM1358 1372v-1372h-92l-965 1194v-1194h-104v1372h92l966 -1202
v1202h103z" />
    <glyph glyph-name="Ograve" unicode="&#xd2;" horiz-adv-x="1660" 
d="M784 1532l-200 283h114l176 -283h-90zM831 1395q145 0 275 -55.5t223.5 -150.5t148 -226t54.5 -277q0 -195 -92.5 -358t-254 -257t-354.5 -94q-194 0 -355.5 94t-254 256.5t-92.5 358.5q0 195 92.5 357.5t254 257t355.5 94.5zM831 74q124 0 235 47.5t191 128.5
t126.5 194.5t46.5 241.5q0 127 -46.5 240.5t-126.5 195t-191 129t-235 47.5q-166 0 -304 -80.5t-217 -221.5t-79 -310q0 -170 79 -310.5t216.5 -221t304.5 -80.5z" />
    <glyph glyph-name="Oacute" unicode="&#xd3;" horiz-adv-x="1660" 
d="M889 1532h-90l176 283h115zM831 1395q145 0 275 -55.5t223.5 -150.5t148 -226t54.5 -277q0 -195 -92.5 -358t-254 -257t-354.5 -94q-194 0 -355.5 94t-254 256.5t-92.5 358.5q0 195 92.5 357.5t254 257t355.5 94.5zM831 74q124 0 235 47.5t191 128.5t126.5 194.5
t46.5 241.5q0 127 -46.5 240.5t-126.5 195t-191 129t-235 47.5q-166 0 -304 -80.5t-217 -221.5t-79 -310q0 -170 79 -310.5t216.5 -221t304.5 -80.5z" />
    <glyph glyph-name="Ocircumflex" unicode="&#xd4;" horiz-adv-x="1660" 
d="M647 1518h-104l241 282h95l243 -282h-106l-185 215zM831 1395q145 0 275 -55.5t223.5 -150.5t148 -226t54.5 -277q0 -195 -92.5 -358t-254 -257t-354.5 -94q-194 0 -355.5 94t-254 256.5t-92.5 358.5q0 195 92.5 357.5t254 257t355.5 94.5zM831 74q124 0 235 47.5
t191 128.5t126.5 194.5t46.5 241.5q0 127 -46.5 240.5t-126.5 195t-191 129t-235 47.5q-166 0 -304 -80.5t-217 -221.5t-79 -310q0 -170 79 -310.5t216.5 -221t304.5 -80.5z" />
    <glyph glyph-name="Otilde" unicode="&#xd5;" horiz-adv-x="1660" 
d="M711 1692q-41 0 -64.5 -28t-23.5 -75h-76q0 89 45 134.5t113 45.5q39 0 75 -17t58.5 -37t54 -37t63.5 -17q38 0 60 29t22 77h78q0 -89 -44 -135.5t-111 -46.5q-39 0 -75.5 16.5t-59 37t-54 37t-61.5 16.5zM831 1395q145 0 275 -55.5t223.5 -150.5t148 -226t54.5 -277
q0 -195 -92.5 -358t-254 -257t-354.5 -94q-194 0 -355.5 94t-254 256.5t-92.5 358.5q0 195 92.5 357.5t254 257t355.5 94.5zM831 74q124 0 235 47.5t191 128.5t126.5 194.5t46.5 241.5q0 127 -46.5 240.5t-126.5 195t-191 129t-235 47.5q-166 0 -304 -80.5t-217 -221.5
t-79 -310q0 -170 79 -310.5t216.5 -221t304.5 -80.5z" />
    <glyph glyph-name="Odieresis" unicode="&#xd6;" horiz-adv-x="1660" 
d="M639 1569q-34 0 -57 21.5t-23 54.5q0 31 23.5 54t56.5 23t55.5 -23t22.5 -54q0 -34 -22 -55t-56 -21zM1026 1569q-34 0 -57 21.5t-23 54.5q0 31 23.5 54t56.5 23t55.5 -23t22.5 -54q0 -34 -22 -55t-56 -21zM831 1395q145 0 275 -55.5t223.5 -150.5t148 -226t54.5 -277
q0 -195 -92.5 -358t-254 -257t-354.5 -94q-194 0 -355.5 94t-254 256.5t-92.5 358.5q0 195 92.5 357.5t254 257t355.5 94.5zM831 74q124 0 235 47.5t191 128.5t126.5 194.5t46.5 241.5q0 127 -46.5 240.5t-126.5 195t-191 129t-235 47.5q-166 0 -304 -80.5t-217 -221.5
t-79 -310q0 -170 79 -310.5t216.5 -221t304.5 -80.5z" />
    <glyph glyph-name="multiply" unicode="&#xd7;" horiz-adv-x="1017" 
d="M575 625l295 -295l-65 -68l-295 297l-297 -297l-66 68l295 295l-295 297l66 65l297 -295l295 295l65 -65z" />
    <glyph glyph-name="Oslash" unicode="&#xd8;" horiz-adv-x="1660" 
d="M1493 1282l-131 -131q170 -197 170 -465q0 -195 -92.5 -358t-254 -257t-354.5 -94q-270 0 -466 177l-134 -134l-61 62l133 133q-83 94 -128.5 215t-45.5 256q0 195 92.5 357.5t254 257t355.5 94.5q135 0 256.5 -47.5t215.5 -133.5l129 129zM231 686q0 -230 142 -401
l860 860q-169 153 -402 153q-166 0 -304 -80.5t-217 -221.5t-79 -310zM831 74q124 0 235 47.5t191 128.5t126.5 194.5t46.5 241.5q0 225 -138 395l-858 -858q165 -149 397 -149z" />
    <glyph glyph-name="Ugrave" unicode="&#xd9;" horiz-adv-x="1484" 
d="M694 1532l-200 283h114l176 -283h-90zM1307 1372v-780q0 -277 -155 -446t-407 -169q-255 0 -411 169t-156 446v780h105v-780q0 -233 126.5 -374.5t335.5 -141.5q206 0 332.5 141.5t126.5 374.5v780h103z" />
    <glyph glyph-name="Uacute" unicode="&#xda;" horiz-adv-x="1484" 
d="M801 1532h-90l176 283h114zM1307 1372v-780q0 -277 -155 -446t-407 -169q-255 0 -411 169t-156 446v780h105v-780q0 -233 126.5 -374.5t335.5 -141.5q206 0 332.5 141.5t126.5 374.5v780h103z" />
    <glyph glyph-name="Ucircumflex" unicode="&#xdb;" horiz-adv-x="1484" 
d="M559 1518h-104l241 282h95l243 -282h-106l-185 215zM1307 1372v-780q0 -277 -155 -446t-407 -169q-255 0 -411 169t-156 446v780h105v-780q0 -233 126.5 -374.5t335.5 -141.5q206 0 332.5 141.5t126.5 374.5v780h103z" />
    <glyph glyph-name="Udieresis" unicode="&#xdc;" horiz-adv-x="1484" 
d="M551 1569q-34 0 -57 21.5t-23 54.5q0 31 23.5 54t56.5 23t55.5 -23t22.5 -54q0 -34 -22 -55t-56 -21zM938 1569q-34 0 -57 21.5t-23 54.5q0 31 23.5 54t56.5 23t55.5 -23t22.5 -54q0 -34 -22 -55t-56 -21zM1307 1372v-780q0 -277 -155 -446t-407 -169q-255 0 -411 169
t-156 446v780h105v-780q0 -233 126.5 -374.5t335.5 -141.5q206 0 332.5 141.5t126.5 374.5v780h103z" />
    <glyph glyph-name="Yacute" unicode="&#xdd;" horiz-adv-x="1351" 
d="M733 1532h-90l176 283h115zM727 500v-500h-104v500l-580 872h117l516 -772l514 772h119z" />
    <glyph glyph-name="Thorn" unicode="&#xde;" horiz-adv-x="1263" 
d="M301 1110h424q211 0 342 -118.5t131 -305.5t-131 -305.5t-342 -118.5h-424v-262h-104v1372h104v-262zM301 356h422q166 0 268.5 93t102.5 237q0 146 -102.5 239t-268.5 93h-422v-662z" />
    <glyph glyph-name="germandbls" unicode="&#xdf;" horiz-adv-x="1339" 
d="M891 786q159 -26 253.5 -126t94.5 -261q0 -177 -118 -297t-322 -120q-196 0 -357 81l27 84q151 -77 326 -77q164 0 259 95.5t95 233.5q0 160 -118 249t-314 89h-107v88h97q155 0 249.5 80.5t94.5 210.5q0 137 -98 220t-259 83q-180 0 -288.5 -115.5t-108.5 -310.5v-993
h-100v989q0 234 137 377t360 143q203 0 328 -106t125 -273q0 -124 -67.5 -217.5t-188.5 -126.5z" />
    <glyph glyph-name="agrave" unicode="&#xe0;" horiz-adv-x="1318" 
d="M586 1161l-201 283h115l176 -283h-90zM1122 1001v-1001h-100v211q-66 -110 -179.5 -172t-250.5 -62q-102 0 -194.5 37.5t-162 104.5t-110.5 166.5t-41 216.5q0 154 70 275t185.5 185t252.5 64q136 0 250 -62.5t180 -172.5v210h100zM602 68q109 0 204 51.5t155.5 152.5
t60.5 230q0 128 -60.5 229t-155.5 153t-204 52q-177 0 -298.5 -120t-121.5 -314q0 -196 121.5 -315t298.5 -119z" />
    <glyph glyph-name="aacute" unicode="&#xe1;" horiz-adv-x="1318" 
d="M690 1161h-90l176 283h115zM1122 1001v-1001h-100v211q-66 -110 -179.5 -172t-250.5 -62q-102 0 -194.5 37.5t-162 104.5t-110.5 166.5t-41 216.5q0 154 70 275t185.5 185t252.5 64q136 0 250 -62.5t180 -172.5v210h100zM602 68q109 0 204 51.5t155.5 152.5t60.5 230
q0 128 -60.5 229t-155.5 153t-204 52q-177 0 -298.5 -120t-121.5 -314q0 -196 121.5 -315t298.5 -119z" />
    <glyph glyph-name="acircumflex" unicode="&#xe2;" horiz-adv-x="1318" 
d="M449 1147h-105l242 283h94l244 -283h-107l-184 215zM1122 1001v-1001h-100v211q-66 -110 -179.5 -172t-250.5 -62q-102 0 -194.5 37.5t-162 104.5t-110.5 166.5t-41 216.5q0 154 70 275t185.5 185t252.5 64q136 0 250 -62.5t180 -172.5v210h100zM602 68q109 0 204 51.5
t155.5 152.5t60.5 230q0 128 -60.5 229t-155.5 153t-204 52q-177 0 -298.5 -120t-121.5 -314q0 -196 121.5 -315t298.5 -119z" />
    <glyph glyph-name="atilde" unicode="&#xe3;" horiz-adv-x="1318" 
d="M512 1321q-41 0 -64.5 -27.5t-23.5 -74.5h-76q0 89 45 134.5t113 45.5q39 0 75 -17t59 -37.5t54.5 -37.5t63.5 -17q38 0 60 29.5t22 77.5h78q0 -89 -44.5 -136t-111.5 -47q-39 0 -75.5 16.5t-59 37t-54 37t-61.5 16.5zM1122 1001v-1001h-100v211q-66 -110 -179.5 -172
t-250.5 -62q-102 0 -194.5 37.5t-162 104.5t-110.5 166.5t-41 216.5q0 154 70 275t185.5 185t252.5 64q136 0 250 -62.5t180 -172.5v210h100zM602 68q109 0 204 51.5t155.5 152.5t60.5 230q0 128 -60.5 229t-155.5 153t-204 52q-177 0 -298.5 -120t-121.5 -314
q0 -196 121.5 -315t298.5 -119z" />
    <glyph glyph-name="adieresis" unicode="&#xe4;" horiz-adv-x="1318" 
d="M440 1198q-34 0 -57 21.5t-23 54.5q0 31 23.5 54.5t56.5 23.5t55.5 -23.5t22.5 -54.5q0 -34 -22 -55t-56 -21zM827 1198q-34 0 -56.5 21.5t-22.5 54.5q0 31 23 54.5t56 23.5t55.5 -23.5t22.5 -54.5q0 -34 -22 -55t-56 -21zM1122 1001v-1001h-100v211
q-66 -110 -179.5 -172t-250.5 -62q-102 0 -194.5 37.5t-162 104.5t-110.5 166.5t-41 216.5q0 154 70 275t185.5 185t252.5 64q136 0 250 -62.5t180 -172.5v210h100zM602 68q109 0 204 51.5t155.5 152.5t60.5 230q0 128 -60.5 229t-155.5 153t-204 52q-177 0 -298.5 -120
t-121.5 -314q0 -196 121.5 -315t298.5 -119z" />
    <glyph glyph-name="aring" unicode="&#xe5;" horiz-adv-x="1318" 
d="M633 1133q-82 0 -139.5 56t-57.5 134t57.5 134t139.5 56q83 0 139.5 -55.5t56.5 -134.5t-56.5 -134.5t-139.5 -55.5zM633 1448q-54 0 -91.5 -37t-37.5 -88t37.5 -88t91.5 -37t91.5 37t37.5 88t-37.5 88t-91.5 37zM1122 1001v-1001h-100v211q-66 -110 -179.5 -172
t-250.5 -62q-102 0 -194.5 37.5t-162 104.5t-110.5 166.5t-41 216.5q0 154 70 275t185.5 185t252.5 64q136 0 250 -62.5t180 -172.5v210h100zM602 68q109 0 204 51.5t155.5 152.5t60.5 230q0 128 -60.5 229t-155.5 153t-204 52q-177 0 -298.5 -120t-121.5 -314
q0 -196 121.5 -315t298.5 -119z" />
    <glyph glyph-name="ae" unicode="&#xe6;" horiz-adv-x="1925" 
d="M1825 473h-856q9 -188 117 -297.5t276 -109.5q69 0 138.5 28t130 88.5t85.5 141.5l90 -23q-36 -143 -165.5 -233.5t-280.5 -90.5q-157 0 -270.5 76.5t-171.5 216.5q-50 -135 -168 -214t-273 -79q-181 0 -279 81.5t-98 211.5q0 132 102 206.5t277 74.5h395v106
q0 127 -83 204t-218 77q-142 0 -225.5 -61.5t-101.5 -171.5l-90 22q15 135 125 217t292 82q136 0 236 -65.5t135 -176.5q64 115 171 178.5t245 63.5q201 0 330.5 -145t134.5 -371v-37zM969 551h755q-15 174 -114 280.5t-246 106.5q-162 0 -272.5 -104t-122.5 -283zM874 473
h-395q-131 0 -206.5 -52.5t-75.5 -148.5q0 -95 75.5 -153t212.5 -58q163 0 276 110t113 284v18z" />
    <glyph glyph-name="ccedilla" unicode="&#xe7;" horiz-adv-x="1179" 
d="M616 70q129 0 231 63t138 176l92 -26q-38 -132 -155 -213.5t-269 -89.5l-170 -338h-110l196 338q-96 8 -181.5 48t-149 106.5t-101 161.5t-37.5 206q0 114 42 213t112.5 166.5t164.5 106t197 38.5q162 0 290.5 -86t172.5 -229l-94 -31q-34 118 -137 185t-232 67
q-173 0 -295 -120.5t-122 -309.5q0 -195 121 -313.5t296 -118.5z" />
    <glyph glyph-name="egrave" unicode="&#xe8;" horiz-adv-x="1204" 
d="M571 1161l-200 283h114l177 -283h-91zM1106 528v-36h-907q2 -129 62.5 -228t151 -148.5t193.5 -49.5q135 0 236 63t153 193l88 -21q-57 -157 -180.5 -240.5t-296.5 -83.5q-97 0 -187.5 36.5t-161.5 102t-114 165t-43 217.5q0 119 43 219.5t115 167.5t165.5 104t194.5 37
q207 0 344 -138.5t144 -359.5zM618 936q-150 0 -272 -100.5t-143 -266.5h803q-18 171 -125 269t-263 98z" />
    <glyph glyph-name="eacute" unicode="&#xe9;" horiz-adv-x="1204" 
d="M676 1161h-90l176 283h115zM1106 528v-36h-907q2 -129 62.5 -228t151 -148.5t193.5 -49.5q135 0 236 63t153 193l88 -21q-57 -157 -180.5 -240.5t-296.5 -83.5q-97 0 -187.5 36.5t-161.5 102t-114 165t-43 217.5q0 119 43 219.5t115 167.5t165.5 104t194.5 37
q207 0 344 -138.5t144 -359.5zM618 936q-150 0 -272 -100.5t-143 -266.5h803q-18 171 -125 269t-263 98z" />
    <glyph glyph-name="ecircumflex" unicode="&#xea;" horiz-adv-x="1204" 
d="M434 1147h-104l241 283h95l243 -283h-106l-185 215zM1106 528v-36h-907q2 -129 62.5 -228t151 -148.5t193.5 -49.5q135 0 236 63t153 193l88 -21q-57 -157 -180.5 -240.5t-296.5 -83.5q-97 0 -187.5 36.5t-161.5 102t-114 165t-43 217.5q0 119 43 219.5t115 167.5
t165.5 104t194.5 37q207 0 344 -138.5t144 -359.5zM618 936q-150 0 -272 -100.5t-143 -266.5h803q-18 171 -125 269t-263 98z" />
    <glyph glyph-name="edieresis" unicode="&#xeb;" horiz-adv-x="1204" 
d="M426 1198q-34 0 -57 21.5t-23 54.5q0 31 23.5 54.5t56.5 23.5t55.5 -23.5t22.5 -54.5q0 -34 -22 -55t-56 -21zM813 1198q-34 0 -57 21.5t-23 54.5q0 31 23.5 54.5t56.5 23.5t55.5 -23.5t22.5 -54.5q0 -34 -22 -55t-56 -21zM1106 528v-36h-907q2 -129 62.5 -228
t151 -148.5t193.5 -49.5q135 0 236 63t153 193l88 -21q-57 -157 -180.5 -240.5t-296.5 -83.5q-97 0 -187.5 36.5t-161.5 102t-114 165t-43 217.5q0 119 43 219.5t115 167.5t165.5 104t194.5 37q207 0 344 -138.5t144 -359.5zM618 936q-150 0 -272 -100.5t-143 -266.5h803
q-18 171 -125 269t-263 98z" />
    <glyph glyph-name="igrave" unicode="&#xec;" horiz-adv-x="552" 
d="M143 1444l176 -283h-90l-200 283h114zM326 0h-99v1001h99v-1001z" />
    <glyph glyph-name="iacute" unicode="&#xed;" horiz-adv-x="552" 
d="M334 1161h-90l176 283h115zM326 0h-99v1001h99v-1001z" />
    <glyph glyph-name="icircumflex" unicode="&#xee;" horiz-adv-x="552" 
d="M567 1147h-106l-185 215l-184 -215h-104l241 283h95zM227 1001h99v-1001h-99v1001z" />
    <glyph glyph-name="idieresis" unicode="&#xef;" horiz-adv-x="552" 
d="M84 1352q33 0 55.5 -23.5t22.5 -54.5q0 -34 -22 -55t-56 -21t-57 21.5t-23 54.5q0 31 23.5 54.5t56.5 23.5zM471 1352q33 0 55.5 -23.5t22.5 -54.5q0 -34 -22 -55t-56 -21t-57 21.5t-23 54.5q0 31 23.5 54.5t56.5 23.5zM326 0h-99v1001h99v-1001z" />
    <glyph glyph-name="eth" unicode="&#xf0;" horiz-adv-x="1247" 
d="M918 1360l-179 -86q189 -161 298.5 -366t109.5 -400q0 -121 -43 -222.5t-115 -168t-165 -103.5t-193 -37q-143 0 -263.5 64.5t-194 186t-73.5 274.5q0 152 70.5 273t187.5 186t256 65q90 0 174.5 -33t145.5 -94q-113 196 -287 332l-268 -127l-33 74l227 108
q-138 97 -317 168v21h170q124 -56 242 -144l217 103zM631 68q82 0 152 27t118 71t81.5 102t49 118.5t15.5 121.5q0 183 -125.5 305.5t-296.5 122.5q-175 0 -300.5 -122t-125.5 -312t127 -312t305 -122z" />
    <glyph glyph-name="ntilde" unicode="&#xf1;" horiz-adv-x="1286" 
d="M545 1321q-41 0 -64.5 -27.5t-23.5 -74.5h-76q0 89 45 134.5t113 45.5q39 0 75 -17t59 -37.5t54.5 -37.5t63.5 -17q38 0 59.5 29.5t21.5 77.5h78q0 -89 -44 -136t-111 -47q-39 0 -75.5 16.5t-59 37t-54 37t-61.5 16.5zM709 1026q181 0 292 -119t111 -311v-596h-100v582
q0 158 -87.5 254t-228.5 96q-182 0 -290.5 -115.5t-108.5 -314.5v-502h-100v1001h100v-213q59 114 165 176t247 62z" />
    <glyph glyph-name="ograve" unicode="&#xf2;" horiz-adv-x="1253" 
d="M580 1178l-201 282h115l176 -282h-90zM627 1024q147 0 267 -66.5t189.5 -186.5t69.5 -269q0 -226 -151 -375.5t-375 -149.5t-375.5 149.5t-151.5 375.5q0 149 69.5 269t190 186.5t267.5 66.5zM627 68q181 0 304.5 123t123.5 311q0 189 -123 311.5t-305 122.5t-305 -122.5
t-123 -311.5q0 -188 123.5 -311t304.5 -123z" />
    <glyph glyph-name="oacute" unicode="&#xf3;" horiz-adv-x="1253" 
d="M684 1178h-90l176 282h115zM627 1024q147 0 267 -66.5t189.5 -186.5t69.5 -269q0 -226 -151 -375.5t-375 -149.5t-375.5 149.5t-151.5 375.5q0 149 69.5 269t190 186.5t267.5 66.5zM627 68q181 0 304.5 123t123.5 311q0 189 -123 311.5t-305 122.5t-305 -122.5
t-123 -311.5q0 -188 123.5 -311t304.5 -123z" />
    <glyph glyph-name="ocircumflex" unicode="&#xf4;" horiz-adv-x="1253" 
d="M442 1163h-104l242 283h94l244 -283h-107l-184 215zM627 1024q147 0 267 -66.5t189.5 -186.5t69.5 -269q0 -226 -151 -375.5t-375 -149.5t-375.5 149.5t-151.5 375.5q0 149 69.5 269t190 186.5t267.5 66.5zM627 68q181 0 304.5 123t123.5 311q0 189 -123 311.5
t-305 122.5t-305 -122.5t-123 -311.5q0 -188 123.5 -311t304.5 -123z" />
    <glyph glyph-name="otilde" unicode="&#xf5;" horiz-adv-x="1253" 
d="M506 1337q-41 0 -64.5 -27.5t-23.5 -74.5h-76q0 89 45 134.5t113 45.5q39 0 75 -17t59 -37t54.5 -37t63.5 -17q38 0 60 29t22 77h77q0 -89 -44 -135.5t-111 -46.5q-39 0 -75.5 16.5t-59 36.5t-54 36.5t-61.5 16.5zM627 1024q147 0 267 -66.5t189.5 -186.5t69.5 -269
q0 -226 -151 -375.5t-375 -149.5t-375.5 149.5t-151.5 375.5q0 149 69.5 269t190 186.5t267.5 66.5zM627 68q181 0 304.5 123t123.5 311q0 189 -123 311.5t-305 122.5t-305 -122.5t-123 -311.5q0 -188 123.5 -311t304.5 -123z" />
    <glyph glyph-name="odieresis" unicode="&#xf6;" horiz-adv-x="1253" 
d="M434 1214q-34 0 -57 21.5t-23 54.5q0 31 23.5 54.5t56.5 23.5t55.5 -23.5t22.5 -54.5q0 -34 -22 -55t-56 -21zM821 1214q-34 0 -57 21.5t-23 54.5q0 31 23.5 54.5t56.5 23.5t55.5 -23.5t22.5 -54.5q0 -34 -22 -55t-56 -21zM627 1024q147 0 267 -66.5t189.5 -186.5
t69.5 -269q0 -226 -151 -375.5t-375 -149.5t-375.5 149.5t-151.5 375.5q0 149 69.5 269t190 186.5t267.5 66.5zM627 68q181 0 304.5 123t123.5 311q0 189 -123 311.5t-305 122.5t-305 -122.5t-123 -311.5q0 -188 123.5 -311t304.5 -123z" />
    <glyph glyph-name="divide" unicode="&#xf7;" horiz-adv-x="1187" 
d="M592 1073q33 0 55.5 -22.5t22.5 -53.5q0 -32 -22 -53.5t-56 -21.5t-57 21.5t-23 53.5q0 31 23.5 53.5t56.5 22.5zM1034 580h-880v90h880v-90zM592 330q33 0 55.5 -23.5t22.5 -54.5q0 -32 -22 -54t-56 -22t-57 22t-23 54q0 31 23.5 54.5t56.5 23.5z" />
    <glyph glyph-name="oslash" unicode="&#xf8;" horiz-adv-x="1245" 
d="M1143 967l-117 -117q127 -143 127 -348q0 -226 -151 -375.5t-375 -149.5q-204 0 -348 125l-123 -122l-54 55l121 121q-123 142 -123 346q0 149 69.5 269t190 186.5t267.5 66.5q200 0 346 -121l117 117zM199 502q0 -162 94 -277l612 613q-119 98 -278 98
q-182 0 -305 -122.5t-123 -311.5zM627 68q181 0 304.5 123t123.5 311q0 162 -94 280l-615 -612q117 -102 281 -102z" />
    <glyph glyph-name="ugrave" unicode="&#xf9;" horiz-adv-x="1286" 
d="M584 1161l-201 283h115l176 -283h-90zM1090 1001v-1001h-101v213q-59 -114 -164.5 -176t-244.5 -62q-182 0 -293 119.5t-111 313.5v593h98v-579q0 -158 87.5 -255t230.5 -97q181 0 289 115t108 315v501h101z" />
    <glyph glyph-name="uacute" unicode="&#xfa;" horiz-adv-x="1286" 
d="M688 1161h-90l176 283h115zM1090 1001v-1001h-101v213q-59 -114 -164.5 -176t-244.5 -62q-182 0 -293 119.5t-111 313.5v593h98v-579q0 -158 87.5 -255t230.5 -97q181 0 289 115t108 315v501h101z" />
    <glyph glyph-name="ucircumflex" unicode="&#xfb;" horiz-adv-x="1286" 
d="M446 1147h-104l242 283h94l244 -283h-107l-184 215zM1090 1001v-1001h-101v213q-59 -114 -164.5 -176t-244.5 -62q-182 0 -293 119.5t-111 313.5v593h98v-579q0 -158 87.5 -255t230.5 -97q181 0 289 115t108 315v501h101z" />
    <glyph glyph-name="udieresis" unicode="&#xfc;" horiz-adv-x="1286" 
d="M438 1198q-34 0 -57 21.5t-23 54.5q0 31 23.5 54.5t56.5 23.5t55.5 -23.5t22.5 -54.5q0 -34 -22 -55t-56 -21zM825 1198q-34 0 -57 21.5t-23 54.5q0 31 23.5 54.5t56.5 23.5t55.5 -23.5t22.5 -54.5q0 -34 -22 -55t-56 -21zM1090 1001v-1001h-101v213
q-59 -114 -164.5 -176t-244.5 -62q-182 0 -293 119.5t-111 313.5v593h98v-579q0 -158 87.5 -255t230.5 -97q181 0 289 115t108 315v501h101z" />
    <glyph glyph-name="yacute" unicode="&#xfd;" horiz-adv-x="1130" 
d="M635 1163h-90l176 283h115zM1087 1004l-632 -1352h-111l166 356l-467 996h115l407 -881l412 881h110z" />
    <glyph glyph-name="thorn" unicode="&#xfe;" horiz-adv-x="1335" 
d="M729 1026q137 0 252 -64t184.5 -185t69.5 -275q0 -117 -40.5 -216.5t-109.5 -166.5t-161.5 -104.5t-194.5 -37.5q-138 0 -252 63t-180 175v-563h-100v1823h100v-687q66 112 180 175t252 63zM717 68q177 0 298.5 119t121.5 315q0 194 -121.5 314t-298.5 120
q-109 0 -204 -52t-155.5 -153t-60.5 -229q0 -129 60.5 -230t155.5 -152.5t204 -51.5z" />
    <glyph glyph-name="ydieresis" unicode="&#xff;" horiz-adv-x="1130" 
d="M385 1200q-34 0 -57 21.5t-23 54.5q0 31 23.5 54.5t56.5 23.5t55.5 -23.5t22.5 -54.5q0 -34 -22 -55t-56 -21zM772 1200q-34 0 -57 21.5t-23 54.5q0 31 23.5 54.5t56.5 23.5t55.5 -23.5t22.5 -54.5q0 -34 -22 -55t-56 -21zM1087 1004l-632 -1352h-111l166 356l-467 996
h115l407 -881l412 881h110z" />
    <glyph glyph-name="Amacron" unicode="&#x100;" horiz-adv-x="1402" 
d="M977 1577h-547v82h547v-82zM1372 0h-110l-168 375h-783l-170 -375h-110l624 1372h93zM1051 469l-349 772l-348 -772h697z" />
    <glyph glyph-name="amacron" unicode="&#x101;" horiz-adv-x="1318" 
d="M907 1206h-547v82h547v-82zM1122 1001v-1001h-100v211q-66 -110 -179.5 -172t-250.5 -62q-102 0 -194.5 37.5t-162 104.5t-110.5 166.5t-41 216.5q0 154 70 275t185.5 185t252.5 64q136 0 250 -62.5t180 -172.5v210h100zM602 68q109 0 204 51.5t155.5 152.5t60.5 230
q0 128 -60.5 229t-155.5 153t-204 52q-177 0 -298.5 -120t-121.5 -314q0 -196 121.5 -315t298.5 -119z" />
    <glyph glyph-name="Abreve" unicode="&#x102;" horiz-adv-x="1402" 
d="M702 1513q-121 0 -197.5 71.5t-76.5 187.5h86q0 -82 54 -133.5t134 -51.5q81 0 136 51.5t55 133.5h84q0 -116 -77 -187.5t-198 -71.5zM1372 0h-110l-168 375h-783l-170 -375h-110l624 1372h93zM1051 469l-349 772l-348 -772h697z" />
    <glyph glyph-name="abreve" unicode="&#x103;" horiz-adv-x="1318" 
d="M633 1143q-121 0 -198 71t-77 187h86q0 -82 54.5 -133t134.5 -51q81 0 135.5 51t54.5 133h84q0 -116 -76.5 -187t-197.5 -71zM1122 1001v-1001h-100v211q-66 -110 -179.5 -172t-250.5 -62q-102 0 -194.5 37.5t-162 104.5t-110.5 166.5t-41 216.5q0 154 70 275t185.5 185
t252.5 64q136 0 250 -62.5t180 -172.5v210h100zM602 68q109 0 204 51.5t155.5 152.5t60.5 230q0 128 -60.5 229t-155.5 153t-204 52q-177 0 -298.5 -120t-121.5 -314q0 -196 121.5 -315t298.5 -119z" />
    <glyph glyph-name="Aogonek" unicode="&#x104;" horiz-adv-x="1402" 
d="M1419 -301l13 -72q-77 -26 -121 -26q-67 0 -116.5 38t-49.5 123q0 59 31.5 110t111.5 128h-26l-168 375h-783l-170 -375h-110l624 1372h93l624 -1372q-85 -85 -115 -128.5t-30 -94.5q0 -101 98 -101q27 0 94 23zM1051 469l-349 772l-348 -772h697z" />
    <glyph glyph-name="aogonek" unicode="&#x105;" horiz-adv-x="1318" 
d="M1169 -301l13 -72q-77 -26 -121 -26q-67 0 -116.5 38t-49.5 123q0 59 31.5 110t111.5 128h-16v211q-66 -110 -179.5 -172t-250.5 -62q-102 0 -194.5 37.5t-162 104.5t-110.5 166.5t-41 216.5q0 154 70 275t185.5 185t252.5 64q136 0 250 -62.5t180 -172.5v210h100v-1001
q-85 -85 -115 -128.5t-30 -94.5q0 -101 98 -101q27 0 94 23zM602 68q109 0 204 51.5t155.5 152.5t60.5 230q0 128 -60.5 229t-155.5 153t-204 52q-177 0 -298.5 -120t-121.5 -314q0 -196 121.5 -315t298.5 -119z" />
    <glyph glyph-name="Cacute" unicode="&#x106;" horiz-adv-x="1607" 
d="M887 1532h-90l176 283h114zM836 74q193 0 336.5 93.5t205.5 256.5l101 -25q-70 -194 -241.5 -308t-401.5 -114q-146 0 -277 55.5t-225 150t-149.5 226t-55.5 277.5t55.5 277.5t149.5 226t225 150t277 55.5q229 0 401 -113t242 -303l-99 -31q-60 162 -204.5 256t-339.5 94
q-125 0 -237 -47.5t-192.5 -129t-128 -195t-47.5 -240.5t47.5 -240.5t128 -195t192.5 -129t237 -47.5z" />
    <glyph glyph-name="cacute" unicode="&#x107;" horiz-adv-x="1179" 
d="M678 1161h-90l176 283h115zM616 70q129 0 231 63t138 176l92 -26q-39 -140 -167.5 -223t-293.5 -83q-103 0 -197 37.5t-164.5 104t-112.5 166t-42 217.5q0 114 42 213t112.5 166.5t164.5 106t197 38.5q162 0 290.5 -86t172.5 -229l-94 -31q-34 118 -137 185t-232 67
q-173 0 -295 -120.5t-122 -309.5q0 -195 121 -313.5t296 -118.5z" />
    <glyph glyph-name="Cdotaccent" unicode="&#x10a;" horiz-adv-x="1607" 
d="M829 1581q-34 0 -55.5 21t-21.5 55q0 31 22 53.5t55 22.5t55.5 -22.5t22.5 -53.5q0 -34 -22 -55t-56 -21zM836 74q193 0 336.5 93.5t205.5 256.5l101 -25q-70 -194 -241.5 -308t-401.5 -114q-146 0 -277 55.5t-225 150t-149.5 226t-55.5 277.5t55.5 277.5t149.5 226
t225 150t277 55.5q229 0 401 -113t242 -303l-99 -31q-60 162 -204.5 256t-339.5 94q-125 0 -237 -47.5t-192.5 -129t-128 -195t-47.5 -240.5t47.5 -240.5t128 -195t192.5 -129t237 -47.5z" />
    <glyph glyph-name="cdotaccent" unicode="&#x10b;" horiz-adv-x="1179" 
d="M621 1210q-34 0 -56 21t-22 55q0 31 22.5 53.5t55.5 22.5t55 -22.5t22 -53.5q0 -34 -21.5 -55t-55.5 -21zM616 70q129 0 231 63t138 176l92 -26q-39 -140 -167.5 -223t-293.5 -83q-103 0 -197 37.5t-164.5 104t-112.5 166t-42 217.5q0 114 42 213t112.5 166.5t164.5 106
t197 38.5q162 0 290.5 -86t172.5 -229l-94 -31q-34 118 -137 185t-232 67q-173 0 -295 -120.5t-122 -309.5q0 -195 121 -313.5t296 -118.5z" />
    <glyph glyph-name="Ccaron" unicode="&#x10c;" horiz-adv-x="1607" 
d="M782 1520l-241 284h104l184 -217l185 217h106l-243 -284h-95zM836 74q193 0 336.5 93.5t205.5 256.5l101 -25q-70 -194 -241.5 -308t-401.5 -114q-146 0 -277 55.5t-225 150t-149.5 226t-55.5 277.5t55.5 277.5t149.5 226t225 150t277 55.5q229 0 401 -113t242 -303
l-99 -31q-60 162 -204.5 256t-339.5 94q-125 0 -237 -47.5t-192.5 -129t-128 -195t-47.5 -240.5t47.5 -240.5t128 -195t192.5 -129t237 -47.5z" />
    <glyph glyph-name="ccaron" unicode="&#x10d;" horiz-adv-x="1179" 
d="M573 1149l-241 285h104l185 -217l184 217h106l-243 -285h-95zM616 70q129 0 231 63t138 176l92 -26q-39 -140 -167.5 -223t-293.5 -83q-103 0 -197 37.5t-164.5 104t-112.5 166t-42 217.5q0 114 42 213t112.5 166.5t164.5 106t197 38.5q162 0 290.5 -86t172.5 -229
l-94 -31q-34 118 -137 185t-232 67q-173 0 -295 -120.5t-122 -309.5q0 -195 121 -313.5t296 -118.5z" />
    <glyph glyph-name="Dcaron" unicode="&#x10e;" horiz-adv-x="1517" 
d="M664 1520l-242 284h104l185 -217l184 217h106l-243 -284h-94zM197 1372h430q181 0 327.5 -54t240.5 -148t144 -217.5t50 -266.5t-50 -266.5t-144 -217.5t-240.5 -148t-327.5 -54h-430v1372zM301 94h324q158 0 285.5 46.5t208.5 128t124 188t43 229.5t-43 229.5t-124 188
t-208.5 128t-285.5 46.5h-324v-1184z" />
    <glyph glyph-name="dcaron" unicode="&#x10f;" horiz-adv-x="1335" 
d="M1038 1475h101v-1475h-101v215q-66 -112 -180 -175t-252 -63q-102 0 -194.5 37.5t-161.5 104.5t-109.5 166.5t-40.5 216.5q0 154 69.5 275t184.5 185t252 64q138 0 252 -63t180 -175v687zM1432 1475l-21 -326h-82v326h103zM618 68q109 0 204 51.5t155.5 152.5t60.5 230
q0 128 -60.5 229t-155.5 153t-204 52q-115 0 -210 -52t-152 -152.5t-57 -229.5q0 -196 121 -315t298 -119z" />
    <glyph glyph-name="Dcroat" unicode="&#x110;" horiz-adv-x="1529" 
d="M231 1372h428q181 0 327.5 -54t241 -148t145 -218t50.5 -266t-50.5 -266t-145 -218t-241 -148t-327.5 -54h-428v645h-170v94h170v633zM334 94h323q158 0 285.5 46.5t209 128t124.5 188t43 229.5t-43 229.5t-124.5 188t-209 128t-285.5 46.5h-323v-539h368v-94h-368v-551z
" />
    <glyph glyph-name="dcroat" unicode="&#x111;" horiz-adv-x="1370" 
d="M1307 1196h-168v-1196h-101v215q-66 -112 -180 -175t-252 -63q-102 0 -194.5 37.5t-161.5 104.5t-109.5 166.5t-40.5 216.5q0 154 69.5 275t184.5 185t252 64q138 0 252 -63t180 -175v408h-381v82h381v197h101v-197h168v-82zM618 68q109 0 204 51.5t155.5 152.5t60.5 230
q0 128 -60.5 229t-155.5 153t-204 52q-115 0 -210 -52t-152 -152.5t-57 -229.5q0 -196 121 -315t298 -119z" />
    <glyph glyph-name="Emacron" unicode="&#x112;" horiz-adv-x="1308" 
d="M971 1577h-547v82h547v-82zM301 1278v-543h817v-92h-817v-549h879v-94h-983v1372h983v-94h-879z" />
    <glyph glyph-name="emacron" unicode="&#x113;" horiz-adv-x="1204" 
d="M893 1206h-547v82h547v-82zM1106 528v-36h-907q2 -129 62.5 -228t151 -148.5t193.5 -49.5q135 0 236 63t153 193l88 -21q-57 -157 -180.5 -240.5t-296.5 -83.5q-97 0 -187.5 36.5t-161.5 102t-114 165t-43 217.5q0 119 43 219.5t115 167.5t165.5 104t194.5 37
q207 0 344 -138.5t144 -359.5zM618 936q-150 0 -272 -100.5t-143 -266.5h803q-18 171 -125 269t-263 98z" />
    <glyph glyph-name="Edotaccent" unicode="&#x116;" horiz-adv-x="1308" 
d="M696 1581q-34 0 -56 21t-22 55q0 31 22.5 53.5t55.5 22.5t55.5 -22.5t22.5 -53.5q0 -34 -22 -55t-56 -21zM301 1278v-543h817v-92h-817v-549h879v-94h-983v1372h983v-94h-879z" />
    <glyph glyph-name="edotaccent" unicode="&#x117;" horiz-adv-x="1204" 
d="M618 1210q-34 0 -55.5 21t-21.5 55q0 31 22 53.5t55 22.5t55.5 -22.5t22.5 -53.5q0 -34 -22 -55t-56 -21zM1106 528v-36h-907q2 -129 62.5 -228t151 -148.5t193.5 -49.5q135 0 236 63t153 193l88 -21q-57 -157 -180.5 -240.5t-296.5 -83.5q-97 0 -187.5 36.5t-161.5 102
t-114 165t-43 217.5q0 119 43 219.5t115 167.5t165.5 104t194.5 37q207 0 344 -138.5t144 -359.5zM618 936q-150 0 -272 -100.5t-143 -266.5h803q-18 171 -125 269t-263 98z" />
    <glyph glyph-name="Eogonek" unicode="&#x118;" horiz-adv-x="1308" 
d="M301 1278v-543h817v-92h-817v-549h879v-94h-74q-85 -85 -115 -128.5t-30 -94.5q0 -101 98 -101q27 0 94 23l12 -72q-77 -26 -121 -26q-67 0 -116 38t-49 123q0 59 31.5 110t111.5 128h-825v1372h983v-94h-879z" />
    <glyph glyph-name="eogonek" unicode="&#x119;" horiz-adv-x="1206" 
d="M1106 492h-907q3 -190 122 -308t279 -118q132 0 242.5 72.5t154.5 189.5l82 -21q-25 -70 -94 -155q-131 -164 -174 -231.5t-43 -127.5q0 -52 31 -79t84 -27q44 0 96 24l12 -67q-65 -37 -125 -37q-83 0 -132.5 45t-49.5 121q0 54 25.5 109.5t85.5 137.5q-88 -43 -193 -43
q-133 0 -246.5 63t-184.5 184.5t-71 277.5q0 117 44 217t116.5 166.5t165.5 103.5t192 37q136 0 246 -62.5t174.5 -177t67.5 -260.5v-34zM203 569h801q-15 173 -123.5 271t-262.5 98q-95 0 -183.5 -43t-153 -129t-78.5 -197z" />
    <glyph glyph-name="Ecaron" unicode="&#x11a;" horiz-adv-x="1308" 
d="M649 1520l-241 284h104l184 -217l185 217h106l-244 -284h-94zM301 1278v-543h817v-92h-817v-549h879v-94h-983v1372h983v-94h-879z" />
    <glyph glyph-name="ecaron" unicode="&#x11b;" horiz-adv-x="1204" 
d="M571 1149l-241 285h104l184 -217l185 217h106l-243 -285h-95zM1106 528v-36h-907q2 -129 62.5 -228t151 -148.5t193.5 -49.5q135 0 236 63t153 193l88 -21q-57 -157 -180.5 -240.5t-296.5 -83.5q-97 0 -187.5 36.5t-161.5 102t-114 165t-43 217.5q0 119 43 219.5
t115 167.5t165.5 104t194.5 37q207 0 344 -138.5t144 -359.5zM618 936q-150 0 -272 -100.5t-143 -266.5h803q-18 171 -125 269t-263 98z" />
    <glyph glyph-name="Gbreve" unicode="&#x11e;" horiz-adv-x="1648" 
d="M838 1513q-121 0 -198 71.5t-77 187.5h86q0 -82 54.5 -133.5t134.5 -51.5q81 0 135.5 51.5t54.5 133.5h84q0 -116 -76.5 -187.5t-197.5 -71.5zM754 731h764q2 -16 2 -45q0 -196 -84.5 -357t-242 -256.5t-357.5 -95.5q-195 0 -357.5 94t-256 256.5t-93.5 358.5
q0 195 93 358t255.5 257t356.5 94q226 0 395.5 -103.5t243.5 -283.5l-93 -35q-69 154 -212.5 239.5t-333.5 85.5q-125 0 -236.5 -47.5t-191.5 -129t-126.5 -195t-46.5 -240.5q0 -169 80 -310t219 -221.5t306 -80.5q123 0 228.5 43.5t180 119.5t120 179t52.5 221h-665v94z
" />
    <glyph glyph-name="gbreve" unicode="&#x11f;" horiz-adv-x="1302" 
d="M625 1143q-121 0 -198 71t-77 187h86q0 -82 54.5 -133t134.5 -51q81 0 135.5 51t54.5 133h84q0 -116 -76.5 -187t-197.5 -71zM1106 1001v-929q-1 -211 -135 -336t-353 -125q-189 0 -312.5 73t-180.5 207l88 54q53 -119 150.5 -180.5t254.5 -61.5q174 0 281.5 104
t108.5 275v190q-62 -102 -168.5 -158.5t-241.5 -56.5q-134 0 -247.5 60t-182 172t-68.5 254q0 141 68.5 252t182 170t247.5 59q136 0 242 -55.5t168 -157.5v190h98zM610 145q163 0 280.5 110.5t117.5 287.5q0 175 -117.5 284t-280.5 109q-174 0 -293.5 -108t-119.5 -285
q0 -178 119.5 -288t293.5 -110z" />
    <glyph glyph-name="Gdotaccent" unicode="&#x120;" horiz-adv-x="1648" 
d="M838 1581q-34 0 -56 21t-22 55q0 31 22.5 53.5t55.5 22.5t55 -22.5t22 -53.5q0 -34 -21.5 -55t-55.5 -21zM754 731h764q2 -16 2 -45q0 -196 -84.5 -357t-242 -256.5t-357.5 -95.5q-195 0 -357.5 94t-256 256.5t-93.5 358.5q0 195 93 358t255.5 257t356.5 94
q226 0 395.5 -103.5t243.5 -283.5l-93 -35q-69 154 -212.5 239.5t-333.5 85.5q-125 0 -236.5 -47.5t-191.5 -129t-126.5 -195t-46.5 -240.5q0 -169 80 -310t219 -221.5t306 -80.5q123 0 228.5 43.5t180 119.5t120 179t52.5 221h-665v94z" />
    <glyph glyph-name="gdotaccent" unicode="&#x121;" horiz-adv-x="1302" 
d="M623 1210q-34 0 -56 21t-22 55q0 31 22.5 53.5t55.5 22.5t55 -22.5t22 -53.5q0 -34 -21.5 -55t-55.5 -21zM1106 1001v-929q-1 -211 -135 -336t-353 -125q-189 0 -312.5 73t-180.5 207l88 54q53 -119 150.5 -180.5t254.5 -61.5q174 0 281.5 104t108.5 275v190
q-62 -102 -168.5 -158.5t-241.5 -56.5q-134 0 -247.5 60t-182 172t-68.5 254q0 141 68.5 252t182 170t247.5 59q136 0 242 -55.5t168 -157.5v190h98zM610 145q163 0 280.5 110.5t117.5 287.5q0 175 -117.5 284t-280.5 109q-174 0 -293.5 -108t-119.5 -285q0 -178 119.5 -288
t293.5 -110z" />
    <glyph glyph-name="Gcommaaccent" unicode="&#x122;" horiz-adv-x="1648" 
d="M754 731h764q2 -16 2 -45q0 -196 -84.5 -357t-242 -256.5t-357.5 -95.5q-195 0 -357.5 94t-256 256.5t-93.5 358.5q0 195 93 358t255.5 257t356.5 94q226 0 395.5 -103.5t243.5 -283.5l-93 -35q-69 154 -212.5 239.5t-333.5 85.5q-125 0 -236.5 -47.5t-191.5 -129
t-126.5 -195t-46.5 -240.5q0 -169 80 -310t219 -221.5t306 -80.5q123 0 228.5 43.5t180 119.5t120 179t52.5 221h-665v94zM758 -92h108l-121 -285h-79z" />
    <glyph glyph-name="gcommaaccent" unicode="&#x123;" horiz-adv-x="1314" 
d="M702 1171h-108l119 283h82zM1106 1001v-929q-1 -211 -135 -336t-353 -125q-189 0 -312.5 73t-180.5 207l88 54q53 -119 150.5 -180.5t254.5 -61.5q174 0 281.5 104t108.5 275v190q-62 -102 -168.5 -158.5t-241.5 -56.5q-134 0 -247.5 60t-182 172t-68.5 254
q0 141 68.5 252t182 170t247.5 59q136 0 242 -55.5t168 -157.5v190h98zM610 145q163 0 280.5 110.5t117.5 287.5q0 175 -117.5 284t-280.5 109q-174 0 -293.5 -108t-119.5 -285q0 -178 119.5 -288t293.5 -110z" />
    <glyph glyph-name="Hbar" unicode="&#x126;" horiz-adv-x="1536" 
d="M1473 975h-150v-975h-102v625h-906v-625h-104v975h-150v88h150v309h104v-309h906v309h102v-309h150v-88zM1221 975h-906v-256h906v256z" />
    <glyph glyph-name="hbar" unicode="&#x127;" horiz-adv-x="1273" 
d="M741 1026q181 0 292.5 -119t111.5 -311v-596h-101v582q0 158 -87 254t-228 96q-182 0 -290.5 -115.5t-108.5 -314.5v-502h-99v1202h-170v76h170v197h99v-197h381v-76h-381v-414q59 114 164.5 176t246.5 62z" />
    <glyph glyph-name="Imacron" unicode="&#x12a;" horiz-adv-x="497" 
d="M522 1577h-549v82h549v-82zM301 0h-104v1372h104v-1372z" />
    <glyph glyph-name="imacron" unicode="&#x12b;" horiz-adv-x="552" 
d="M551 1206h-547v82h547v-82zM326 0h-99v1001h99v-1001z" />
    <glyph glyph-name="Iogonek" unicode="&#x12e;" horiz-adv-x="497" 
d="M348 -301l12 -72q-77 -26 -120 -26q-67 0 -116.5 38t-49.5 123q0 59 31.5 110t111.5 128h-20v1372h104v-1372q-85 -85 -115 -128.5t-30 -94.5q0 -101 98 -101q27 0 94 23z" />
    <glyph glyph-name="iogonek" unicode="&#x12f;" horiz-adv-x="552" 
d="M276 1210q-34 0 -55.5 21t-21.5 55q0 31 22 53.5t55 22.5t55.5 -22.5t22.5 -53.5q0 -34 -22 -55t-56 -21zM373 -301l12 -72q-77 -26 -121 -26q-67 0 -116.5 38t-49.5 123q0 58 32 109.5t112 128.5h-15v1001h99v-1001q-86 -86 -116 -129t-30 -94q0 -58 29.5 -79.5
t69.5 -21.5q27 0 94 23z" />
    <glyph glyph-name="Idotaccent" unicode="&#x130;" horiz-adv-x="497" 
d="M248 1733q33 0 55.5 -22.5t22.5 -53.5q0 -34 -22 -55t-56 -21t-56 21t-22 55q0 31 22.5 53.5t55.5 22.5zM301 0h-104v1372h104v-1372z" />
    <glyph glyph-name="dotlessi" unicode="&#x131;" horiz-adv-x="552" 
d="M326 0h-99v1001h99v-1001z" />
    <glyph glyph-name="IJ" unicode="&#x132;" horiz-adv-x="1716" 
d="M197 1372h104v-1372h-104v1372zM1536 1372v-866q0 -235 -136 -382t-358 -147q-199 0 -330.5 121t-156.5 318l98 22q21 -166 124.5 -266t264.5 -100q176 0 284 120.5t108 313.5v866h102z" />
    <glyph glyph-name="ij" unicode="&#x133;" horiz-adv-x="1103" 
d="M266 1384q34 0 56 -22t22 -55q0 -32 -22 -54t-56 -22q-35 0 -57.5 21.5t-22.5 54.5t22.5 55t57.5 22zM838 1384q34 0 57 -22.5t23 -54.5t-23 -54t-57 -22t-57 22t-23 54t23 54.5t57 22.5zM315 0h-98v1001h98v-1001zM512 -334l27 84q47 -24 98 -24q68 0 109.5 40.5
t41.5 106.5v1128h99v-1138q0 -104 -64 -168t-168 -64q-81 0 -143 35z" />
    <glyph glyph-name="Kcommaaccent" unicode="&#x136;" horiz-adv-x="1374" 
d="M1296 0h-143l-780 637h-72v-637h-104v1372h104v-641h66l749 641h133l-796 -688zM610 -92h109l-121 -285h-80z" />
    <glyph glyph-name="kcommaaccent" unicode="&#x137;" horiz-adv-x="1153" 
d="M1137 0h-148l-624 469h-68v-469h-100v1475h100v-910h78l555 436h135l-614 -487zM500 -92h108l-121 -285h-79z" />
    <glyph glyph-name="Lacute" unicode="&#x139;" horiz-adv-x="1193" 
d="M305 1532h-90l176 283h115zM1128 94v-94h-931v1372h104v-1278h827z" />
    <glyph glyph-name="lacute" unicode="&#x13a;" horiz-adv-x="493" 
d="M305 1634h-90l176 283h115zM297 0h-100v1475h100v-1475z" />
    <glyph glyph-name="Lcommaaccent" unicode="&#x13b;" horiz-adv-x="1193" 
d="M1128 94v-94h-931v1372h104v-1278h827zM631 -92h108l-121 -285h-79z" />
    <glyph glyph-name="lcommaaccent" unicode="&#x13c;" horiz-adv-x="493" 
d="M297 0h-100v1475h100v-1475zM100 -377l93 285h108l-121 -285h-80z" />
    <glyph glyph-name="Lcaron" unicode="&#x13d;" horiz-adv-x="1193" 
d="M1128 94v-94h-931v1372h104v-1278h827zM721 1047h-82v325h102z" />
    <glyph glyph-name="lcaron" unicode="&#x13e;" horiz-adv-x="493" 
d="M297 0h-100v1475h100v-1475zM551 1149h-82v326h102z" />
    <glyph glyph-name="Ldot" unicode="&#x13f;" horiz-adv-x="1189" 
d="M1128 94v-94h-931v1372h104v-1278h827zM774 618q-34 0 -56 22t-22 54q0 31 22.5 53.5t55.5 22.5t55.5 -22.5t22.5 -53.5q0 -32 -22 -54t-56 -22z" />
    <glyph glyph-name="ldot" unicode="&#x140;" horiz-adv-x="610" 
d="M297 0h-100v1475h100v-1475zM514 756q32 0 55 -22.5t23 -53.5q0 -33 -22.5 -54.5t-55.5 -21.5q-34 0 -56 21t-22 55q0 31 22.5 53.5t55.5 22.5z" />
    <glyph glyph-name="Lslash" unicode="&#x141;" horiz-adv-x="1214" 
d="M1153 94v-94h-930v545l-162 -80v100l162 80v727h103v-678l360 178v-100l-360 -178v-500h827z" />
    <glyph glyph-name="lslash" unicode="&#x142;" horiz-adv-x="593" 
d="M532 827l-184 -120v-707h-100v641l-187 -121v101l187 120v734h100v-668l184 121v-101z" />
    <glyph glyph-name="Nacute" unicode="&#x143;" horiz-adv-x="1556" 
d="M854 1532h-90l176 283h115zM1358 1372v-1372h-92l-965 1194v-1194h-104v1372h92l966 -1202v1202h103z" />
    <glyph glyph-name="nacute" unicode="&#x144;" horiz-adv-x="1286" 
d="M723 1161h-90l176 283h115zM709 1026q181 0 292 -119t111 -311v-596h-100v582q0 158 -87.5 254t-228.5 96q-182 0 -290.5 -115.5t-108.5 -314.5v-502h-100v1001h100v-213q59 114 165 176t247 62z" />
    <glyph glyph-name="Ncommaaccent" unicode="&#x145;" horiz-adv-x="1556" 
d="M1358 1372v-1372h-92l-965 1194v-1194h-104v1372h92l966 -1202v1202h103zM762 -92h108l-120 -285h-80z" />
    <glyph glyph-name="ncommaaccent" unicode="&#x146;" horiz-adv-x="1286" 
d="M709 1026q181 0 292 -119t111 -311v-596h-100v582q0 158 -87.5 254t-228.5 96q-182 0 -290.5 -115.5t-108.5 -314.5v-502h-100v1001h100v-213q59 114 165 176t247 62zM608 -92h109l-121 -285h-80z" />
    <glyph glyph-name="Ncaron" unicode="&#x147;" horiz-adv-x="1556" 
d="M750 1520l-242 284h104l185 -217l184 217h106l-243 -284h-94zM1358 1372v-1372h-92l-965 1194v-1194h-104v1372h92l966 -1202v1202h103z" />
    <glyph glyph-name="ncaron" unicode="&#x148;" horiz-adv-x="1286" 
d="M618 1149l-241 285h104l185 -217l184 217h106l-243 -285h-95zM709 1026q181 0 292 -119t111 -311v-596h-100v582q0 158 -87.5 254t-228.5 96q-182 0 -290.5 -115.5t-108.5 -314.5v-502h-100v1001h100v-213q59 114 165 176t247 62z" />
    <glyph glyph-name="Eng" unicode="&#x14a;" horiz-adv-x="1546" 
d="M1358 1372v-1503q0 -105 -64 -171.5t-168 -66.5q-91 0 -161 45l24 80q59 -32 119 -32q68 0 108.5 39t40.5 106v141l-956 1184v-1194h-104v1372h92l966 -1202v1202h103z" />
    <glyph glyph-name="eng" unicode="&#x14b;" horiz-adv-x="1286" 
d="M709 1026q181 0 292 -119t111 -311v-727q0 -105 -64.5 -171.5t-166.5 -66.5q-94 0 -164 45l24 78q56 -35 119 -35q68 0 110 41.5t42 108.5v713q0 158 -87.5 254t-228.5 96q-182 0 -290.5 -115.5t-108.5 -314.5v-502h-100v1001h100v-213q59 114 165 176t247 62z" />
    <glyph glyph-name="Omacron" unicode="&#x14c;" horiz-adv-x="1660" 
d="M1106 1577h-547v82h547v-82zM831 1395q145 0 275 -55.5t223.5 -150.5t148 -226t54.5 -277q0 -195 -92.5 -358t-254 -257t-354.5 -94q-194 0 -355.5 94t-254 256.5t-92.5 358.5q0 195 92.5 357.5t254 257t355.5 94.5zM831 74q124 0 235 47.5t191 128.5t126.5 194.5
t46.5 241.5q0 127 -46.5 240.5t-126.5 195t-191 129t-235 47.5q-166 0 -304 -80.5t-217 -221.5t-79 -310q0 -170 79 -310.5t216.5 -221t304.5 -80.5z" />
    <glyph glyph-name="omacron" unicode="&#x14d;" horiz-adv-x="1253" 
d="M901 1223h-547v82h547v-82zM627 1024q147 0 267 -66.5t189.5 -186.5t69.5 -269q0 -226 -151 -375.5t-375 -149.5t-375.5 149.5t-151.5 375.5q0 149 69.5 269t190 186.5t267.5 66.5zM627 68q181 0 304.5 123t123.5 311q0 189 -123 311.5t-305 122.5t-305 -122.5
t-123 -311.5q0 -188 123.5 -311t304.5 -123z" />
    <glyph glyph-name="Ohungarumlaut" unicode="&#x150;" horiz-adv-x="1660" 
d="M729 1532h-92l176 280h125zM920 1532l174 280h125l-207 -280h-92zM831 1395q145 0 275 -55.5t223.5 -150.5t148 -226t54.5 -277q0 -195 -92.5 -358t-254 -257t-354.5 -94q-194 0 -355.5 94t-254 256.5t-92.5 358.5q0 195 92.5 357.5t254 257t355.5 94.5zM831 74
q124 0 235 47.5t191 128.5t126.5 194.5t46.5 241.5q0 127 -46.5 240.5t-126.5 195t-191 129t-235 47.5q-166 0 -304 -80.5t-217 -221.5t-79 -310q0 -170 79 -310.5t216.5 -221t304.5 -80.5z" />
    <glyph glyph-name="ohungarumlaut" unicode="&#x151;" horiz-adv-x="1253" 
d="M524 1178h-92l176 280h125zM715 1178l174 280h125l-207 -280h-92zM627 1024q147 0 267 -66.5t189.5 -186.5t69.5 -269q0 -226 -151 -375.5t-375 -149.5t-375.5 149.5t-151.5 375.5q0 149 69.5 269t190 186.5t267.5 66.5zM627 68q181 0 304.5 123t123.5 311
q0 189 -123 311.5t-305 122.5t-305 -122.5t-123 -311.5q0 -188 123.5 -311t304.5 -123z" />
    <glyph glyph-name="OE" unicode="&#x152;" horiz-adv-x="2158" 
d="M2032 94v-94h-1080q-192 0 -348 51.5t-259.5 143t-159.5 217t-56 274.5q0 148 56 274t159.5 217.5t259.5 143t348 51.5h1078v-94h-879v-543h817v-92h-817v-549h881zM1049 94v1184h-97q-339 0 -530 -163.5t-191 -428.5t191 -428.5t530 -163.5h97z" />
    <glyph glyph-name="oe" unicode="&#x153;" horiz-adv-x="2160" 
d="M2062 528v-36h-907q2 -129 62.5 -228t151.5 -148.5t194 -49.5q135 0 236 63t153 193l88 -21q-57 -157 -180.5 -240.5t-296.5 -83.5q-145 0 -271 78.5t-188 216.5q-64 -136 -190.5 -215.5t-286.5 -79.5q-224 0 -375.5 149.5t-151.5 375.5q0 149 69.5 269t190 186.5
t267.5 66.5q160 0 287.5 -79.5t189.5 -215.5q64 139 191.5 218t279.5 79q136 0 245 -62t173 -176t69 -260zM627 68q181 0 304.5 123t123.5 311q0 189 -123 311.5t-305 122.5t-305 -122.5t-123 -311.5q0 -188 123.5 -311t304.5 -123zM1575 936q-150 0 -272.5 -100.5
t-143.5 -266.5h803q-18 171 -125 269t-262 98z" />
    <glyph glyph-name="Racute" unicode="&#x154;" horiz-adv-x="1368" 
d="M719 1532h-90l176 283h115zM1303 0h-136l-565 631h-301v-631h-104v1372h624q192 0 309 -102t117 -269t-117 -268.5t-309 -101.5h-88zM301 723h520q146 0 235 76t89 202q0 125 -89 201t-235 76h-520v-555z" />
    <glyph glyph-name="racute" unicode="&#x155;" horiz-adv-x="825" 
d="M496 1161h-90l176 283h114zM725 1010q41 0 70 -6l-11 -95q-20 4 -59 4q-133 0 -231.5 -69t-146.5 -179.5t-48 -246.5v-418h-100v1001h100v-280q63 131 173 210t253 79z" />
    <glyph glyph-name="Rcommaaccent" unicode="&#x156;" horiz-adv-x="1368" 
d="M1303 0h-136l-565 631h-301v-631h-104v1372h624q192 0 309 -102t117 -269t-117 -268.5t-309 -101.5h-88zM301 723h520q146 0 235 76t89 202q0 125 -89 201t-235 76h-520v-555zM625 -92h108l-121 -285h-80z" />
    <glyph glyph-name="rcommaaccent" unicode="&#x157;" horiz-adv-x="825" 
d="M725 1010q41 0 70 -6l-11 -95q-20 4 -59 4q-133 0 -231.5 -69t-146.5 -179.5t-48 -246.5v-418h-100v1001h100v-280q63 131 173 210t253 79zM195 -92h108l-121 -285h-80z" />
    <glyph glyph-name="Rcaron" unicode="&#x158;" horiz-adv-x="1368" 
d="M614 1520l-241 284h104l185 -217l184 217h106l-243 -284h-95zM1303 0h-136l-565 631h-301v-631h-104v1372h624q192 0 309 -102t117 -269t-117 -268.5t-309 -101.5h-88zM301 723h520q146 0 235 76t89 202q0 125 -89 201t-235 76h-520v-555z" />
    <glyph glyph-name="rcaron" unicode="&#x159;" horiz-adv-x="825" 
d="M391 1149l-241 285h104l184 -217l185 217h106l-244 -285h-94zM725 1010q41 0 70 -6l-11 -95q-20 4 -59 4q-133 0 -231.5 -69t-146.5 -179.5t-48 -246.5v-418h-100v1001h100v-280q63 131 173 210t253 79z" />
    <glyph glyph-name="Sacute" unicode="&#x15a;" horiz-adv-x="1267" 
d="M702 1532h-90l176 283h115zM631 1395q201 0 332.5 -100.5t166.5 -266.5l-102 -24q-27 138 -133.5 219.5t-267.5 81.5q-156 0 -255.5 -78.5t-99.5 -208.5q0 -105 63 -158.5t181 -81.5l301 -71q56 -12 101.5 -28t90.5 -43t75.5 -62t49.5 -87.5t19 -117.5
q0 -179 -133.5 -285.5t-355.5 -106.5q-224 0 -376 110t-175 298l110 25q19 -158 142 -249t307 -91q174 0 276.5 80.5t102.5 214.5q0 110 -60.5 163t-195.5 84l-318 74q-149 35 -232 113t-83 217q0 172 130 275.5t339 103.5z" />
    <glyph glyph-name="sacute" unicode="&#x15b;" horiz-adv-x="1038" 
d="M584 1161h-90l176 283h114zM111 274l98 25q10 -111 104 -174.5t236 -63.5q128 0 205 54.5t77 150.5q0 74 -49.5 113.5t-140.5 60.5l-246 54q-123 27 -185.5 85.5t-62.5 157.5q0 129 102 209t265 80q159 0 261.5 -74.5t131.5 -195.5l-92 -25q-21 97 -100.5 154t-202.5 57
q-120 0 -192 -54t-72 -145q0 -73 46.5 -110t137.5 -58l242 -53q43 -10 77.5 -22.5t69 -33t57.5 -46.5t37.5 -64t14.5 -84q0 -137 -106.5 -216t-280.5 -79q-179 0 -295.5 78.5t-136.5 218.5z" />
    <glyph glyph-name="Scedilla" unicode="&#x15e;" horiz-adv-x="1267" 
d="M1153 369q0 -171 -123 -276t-328 -116l-170 -335h-110l196 338q-208 11 -346 118.5t-159 286.5l110 25q19 -158 142 -249t307 -91q174 0 276.5 80.5t102.5 214.5q0 110 -60.5 163t-195.5 84l-318 74q-149 35 -232 113t-83 217q0 172 130 275.5t339 103.5
q201 0 332.5 -100.5t166.5 -266.5l-102 -24q-27 138 -133.5 219.5t-267.5 81.5q-156 0 -255.5 -78.5t-99.5 -208.5q0 -105 63 -158.5t181 -81.5l301 -71q56 -12 101.5 -28t90.5 -43t75.5 -62t49.5 -87.5t19 -117.5z" />
    <glyph glyph-name="scedilla" unicode="&#x15f;" horiz-adv-x="1038" 
d="M930 272q0 -128 -92.5 -204.5t-247.5 -87.5l-170 -338h-111l197 335q-165 9 -270.5 87t-124.5 210l98 25q10 -111 104 -174.5t236 -63.5q128 0 205 54.5t77 150.5q0 74 -49.5 113.5t-140.5 60.5l-246 54q-123 27 -185.5 85.5t-62.5 157.5q0 129 102 209t265 80
q159 0 261.5 -74.5t131.5 -195.5l-92 -25q-21 97 -100.5 154t-202.5 57q-120 0 -192 -54t-72 -145q0 -73 46.5 -110t137.5 -58l242 -53q43 -10 77.5 -22.5t69 -33t57.5 -46.5t37.5 -64t14.5 -84z" />
    <glyph glyph-name="Scaron" unicode="&#x160;" horiz-adv-x="1267" 
d="M598 1520l-242 284h105l184 -217l184 217h107l-244 -284h-94zM516 778l301 -71q56 -12 101.5 -28t90.5 -43t75.5 -62t49.5 -87.5t19 -117.5q0 -179 -133.5 -285.5t-355.5 -106.5q-224 0 -376 110t-175 298l110 25q19 -158 142 -249t307 -91q174 0 276.5 80.5t102.5 214.5
q0 110 -60.5 163t-195.5 84l-318 74q-149 35 -232 113t-83 217q0 172 130 275.5t339 103.5q201 0 332.5 -100.5t166.5 -266.5l-102 -24q-27 138 -133.5 219.5t-267.5 81.5q-156 0 -255.5 -78.5t-99.5 -208.5q0 -105 63 -158.5t181 -81.5z" />
    <glyph glyph-name="scaron" unicode="&#x161;" horiz-adv-x="1038" 
d="M479 1149l-241 285h104l184 -217l185 217h106l-244 -285h-94zM432 575l242 -53q43 -10 77.5 -22.5t69 -33t57.5 -46.5t37.5 -64t14.5 -84q0 -137 -106.5 -216t-280.5 -79q-179 0 -295.5 78.5t-136.5 218.5l98 25q10 -111 104 -174.5t236 -63.5q128 0 205 54.5t77 150.5
q0 74 -49.5 113.5t-140.5 60.5l-246 54q-123 27 -185.5 85.5t-62.5 157.5q0 129 102 209t265 80q159 0 261.5 -74.5t131.5 -195.5l-92 -25q-21 97 -100.5 154t-202.5 57q-120 0 -192 -54t-72 -145q0 -73 46.5 -110t137.5 -58z" />
    <glyph glyph-name="tcedilla" unicode="&#x163;" horiz-adv-x="763" 
d="M698 139l39 -82q-105 -80 -219 -80h-6l-168 -335h-111l201 344q-100 24 -157.5 101.5t-57.5 195.5v632h-219v86h219v330h100v-330h375v-86h-375v-626q0 -100 56 -158.5t149 -58.5q95 0 174 67z" />
    <glyph glyph-name="Tcaron" unicode="&#x164;" horiz-adv-x="1290" 
d="M600 1520l-242 284h105l184 -217l184 217h107l-244 -284h-94zM1233 1278h-535v-1278h-106v1278h-535v94h1176v-94z" />
    <glyph glyph-name="tcaron" unicode="&#x165;" horiz-adv-x="763" 
d="M555 1122h-82v326h102zM698 139l39 -82q-105 -80 -219 -80q-135 0 -217 81.5t-82 224.5v632h-219v86h219v330h100v-330h375v-86h-375v-626q0 -100 56 -158.5t149 -58.5q95 0 174 67z" />
    <glyph glyph-name="Tbar" unicode="&#x166;" horiz-adv-x="1320" 
d="M698 1278v-547h281v-86h-281v-645h-106v645h-283v86h283v547h-535v94h1176v-94h-535z" />
    <glyph glyph-name="tbar" unicode="&#x167;" horiz-adv-x="763" 
d="M694 139l31 -84q-93 -78 -211 -78q-135 0 -217 81.5t-82 224.5v301h-205v84h205v247h-215v86h215v330h100v-330h375v-86h-375v-247h314v-84h-314v-295q0 -100 56 -158.5t149 -58.5q95 0 174 67z" />
    <glyph glyph-name="Umacron" unicode="&#x16a;" horiz-adv-x="1484" 
d="M1018 1577h-547v82h547v-82zM1307 1372v-780q0 -277 -155 -446t-407 -169q-255 0 -411 169t-156 446v780h105v-780q0 -233 126.5 -374.5t335.5 -141.5q206 0 332.5 141.5t126.5 374.5v780h103z" />
    <glyph glyph-name="umacron" unicode="&#x16b;" horiz-adv-x="1286" 
d="M905 1206h-547v82h547v-82zM1090 1001v-1001h-101v213q-59 -114 -164.5 -176t-244.5 -62q-182 0 -293 119.5t-111 313.5v593h98v-579q0 -158 87.5 -255t230.5 -97q181 0 289 115t108 315v501h101z" />
    <glyph glyph-name="Uring" unicode="&#x16e;" horiz-adv-x="1484" 
d="M743 1503q-81 0 -138.5 56.5t-57.5 134.5t57.5 134t138.5 56q83 0 140 -55.5t57 -134.5t-57 -135t-140 -56zM743 1819q-54 0 -91.5 -37t-37.5 -88t37.5 -88t91.5 -37t91.5 37t37.5 88t-37.5 88t-91.5 37zM1307 1372v-780q0 -277 -155 -446t-407 -169q-255 0 -411 169
t-156 446v780h105v-780q0 -233 126.5 -374.5t335.5 -141.5q206 0 332.5 141.5t126.5 374.5v780h103z" />
    <glyph glyph-name="uring" unicode="&#x16f;" horiz-adv-x="1286" 
d="M631 1133q-82 0 -139.5 56t-57.5 134t57.5 134t139.5 56q83 0 139.5 -55.5t56.5 -134.5t-56.5 -134.5t-139.5 -55.5zM631 1448q-54 0 -91.5 -37t-37.5 -88t37.5 -88t91.5 -37t91.5 37t37.5 88t-37.5 88t-91.5 37zM1090 1001v-1001h-101v213q-59 -114 -164.5 -176
t-244.5 -62q-182 0 -293 119.5t-111 313.5v593h98v-579q0 -158 87.5 -255t230.5 -97q181 0 289 115t108 315v501h101z" />
    <glyph glyph-name="Uhungarumlaut" unicode="&#x170;" horiz-adv-x="1484" 
d="M641 1532h-92l176 280h125zM831 1532l175 280h124l-206 -280h-93zM1307 1372v-780q0 -277 -155 -446t-407 -169q-255 0 -411 169t-156 446v780h105v-780q0 -233 126.5 -374.5t335.5 -141.5q206 0 332.5 141.5t126.5 374.5v780h103z" />
    <glyph glyph-name="uhungarumlaut" unicode="&#x171;" horiz-adv-x="1286" 
d="M528 1161h-92l176 281h125zM719 1161l174 281h125l-207 -281h-92zM1090 1001v-1001h-101v213q-59 -114 -164.5 -176t-244.5 -62q-182 0 -293 119.5t-111 313.5v593h98v-579q0 -158 87.5 -255t230.5 -97q181 0 289 115t108 315v501h101z" />
    <glyph glyph-name="Uogonek" unicode="&#x172;" horiz-adv-x="1484" 
d="M1307 1372v-797q0 -153 -55.5 -273t-141.5 -196q-176 -147 -216 -190q-54 -58 -59 -115q-1 -9 -1 -20q0 -46 30.5 -73t81.5 -27q31 0 96 26l23 -72q-77 -36 -137 -36q-80 0 -131.5 44.5t-51.5 116.5q0 64 32 115t112 121q-78 -19 -144 -19q-254 0 -410.5 165t-156.5 433
v797h105v-797q0 -225 127.5 -362t334.5 -137q205 0 332 137t127 362v797h103z" />
    <glyph glyph-name="uogonek" unicode="&#x173;" horiz-adv-x="1286" 
d="M1137 -301l12 -72q-77 -26 -121 -26q-67 0 -116.5 38t-49.5 123q0 58 32 109.5t112 128.5h-17v213q-59 -114 -164.5 -176t-244.5 -62q-182 0 -293 119.5t-111 313.5v593h98v-579q0 -158 87.5 -255t230.5 -97q181 0 289 115t108 315v501h101v-1001q-86 -86 -116 -129
t-30 -94q0 -101 98 -101q28 0 95 23z" />
    <glyph glyph-name="Wcircumflex" unicode="&#x174;" horiz-adv-x="1943" 
d="M786 1518h-104l242 282h94l244 -282h-107l-184 215zM1898 1372l-432 -1372h-104l-391 1208l-391 -1208h-103l-434 1372h109l380 -1212l390 1212h100l389 -1212l379 1212h108z" />
    <glyph glyph-name="wcircumflex" unicode="&#x175;" horiz-adv-x="1554" 
d="M594 1147h-105l242 283h94l244 -283h-106l-185 215zM1511 1004l-340 -1010h-98l-295 848l-297 -848h-98l-340 1010h102l291 -859l301 856h80l301 -858l291 861h102z" />
    <glyph glyph-name="Ycircumflex" unicode="&#x176;" horiz-adv-x="1351" 
d="M492 1518h-105l242 282h94l244 -282h-107l-184 215zM727 500v-500h-104v500l-580 872h117l516 -772l514 772h119z" />
    <glyph glyph-name="ycircumflex" unicode="&#x177;" horiz-adv-x="1130" 
d="M393 1149h-104l241 283h95l243 -283h-106l-184 215zM1087 1004l-632 -1352h-111l166 356l-467 996h115l407 -881l412 881h110z" />
    <glyph glyph-name="Ydieresis" unicode="&#x178;" horiz-adv-x="1351" 
d="M483 1569q-34 0 -57 21.5t-23 54.5q0 31 23.5 54t56.5 23t55.5 -23t22.5 -54q0 -34 -22 -55t-56 -21zM870 1569q-34 0 -56.5 21.5t-22.5 54.5q0 31 23 54t56 23t55.5 -23t22.5 -54q0 -34 -22 -55t-56 -21zM727 500v-500h-104v500l-580 872h117l516 -772l514 772h119z" />
    <glyph glyph-name="Zacute" unicode="&#x179;" horiz-adv-x="1282" 
d="M717 1532h-90l176 283h115zM1167 90v-90h-1036v66l899 1216h-872v90h1007v-72l-889 -1210h891z" />
    <glyph glyph-name="zacute" unicode="&#x17a;" horiz-adv-x="1019" 
d="M586 1161h-90l176 283h114zM938 86v-86h-856v70l709 845h-689v86h816v-69l-709 -846h729z" />
    <glyph glyph-name="Zdotaccent" unicode="&#x17b;" horiz-adv-x="1282" 
d="M659 1581q-34 0 -55.5 21t-21.5 55q0 31 22 53.5t55 22.5t55.5 -22.5t22.5 -53.5q0 -34 -22 -55t-56 -21zM1167 90v-90h-1036v66l899 1216h-872v90h1007v-72l-889 -1210h891z" />
    <glyph glyph-name="zdotaccent" unicode="&#x17c;" horiz-adv-x="1019" 
d="M528 1210q-34 0 -55.5 21t-21.5 55q0 31 22 53.5t55 22.5t55.5 -22.5t22.5 -53.5q0 -34 -22 -55t-56 -21zM938 86v-86h-856v70l709 845h-689v86h816v-69l-709 -846h729z" />
    <glyph glyph-name="Zcaron" unicode="&#x17d;" horiz-adv-x="1282" 
d="M612 1520l-241 284h104l184 -217l185 217h106l-243 -284h-95zM1167 90v-90h-1036v66l899 1216h-872v90h1007v-72l-889 -1210h891z" />
    <glyph glyph-name="zcaron" unicode="&#x17e;" horiz-adv-x="1019" 
d="M481 1149l-241 285h104l184 -217l185 217h106l-244 -285h-94zM938 86v-86h-856v70l709 845h-689v86h816v-69l-709 -846h729z" />
    <glyph glyph-name="florin" unicode="&#x192;" horiz-adv-x="1093" 
d="M825 1305q-110 0 -183 -68t-95 -184l-60 -326h422v-86h-436l-131 -729q-22 -114 -99 -182t-186 -68q-86 0 -149 47l39 82q46 -35 112 -35q70 0 121.5 43.5t63.5 112.5l131 729h-264v86h278l60 326q28 156 130 249t255 93q135 0 223 -82l-45 -78q-76 70 -187 70z" />
    <glyph glyph-name="AEacute" unicode="&#x1fc;" horiz-adv-x="2129" 
d="M1481 1532h-90l176 283h114zM1174 1278v-543h817v-92h-817v-549h878v-94h-983v348h-661l-256 -348h-121l1013 1372h1008v-94h-878zM1069 442v811l-594 -811h594z" />
    <glyph glyph-name="aeacute" unicode="&#x1fd;" horiz-adv-x="1925" 
d="M1010 1161h-90l176 283h114zM1825 473h-856q9 -188 117 -297.5t276 -109.5q69 0 138.5 28t130 88.5t85.5 141.5l90 -23q-36 -143 -165.5 -233.5t-280.5 -90.5q-157 0 -270.5 76.5t-171.5 216.5q-50 -135 -168 -214t-273 -79q-181 0 -279 81.5t-98 211.5q0 132 102 206.5
t277 74.5h395v106q0 127 -83 204t-218 77q-142 0 -225.5 -61.5t-101.5 -171.5l-90 22q15 135 125 217t292 82q136 0 236 -65.5t135 -176.5q64 115 171 178.5t245 63.5q201 0 330.5 -145t134.5 -371v-37zM969 551h755q-15 174 -114 280.5t-246 106.5q-162 0 -272.5 -104
t-122.5 -283zM874 473h-395q-131 0 -206.5 -52.5t-75.5 -148.5q0 -95 75.5 -153t212.5 -58q163 0 276 110t113 284v18z" />
    <glyph glyph-name="Scommaaccent" unicode="&#x218;" horiz-adv-x="1267" 
d="M631 1395q201 0 332.5 -100.5t166.5 -266.5l-102 -24q-27 138 -133.5 219.5t-267.5 81.5q-156 0 -255.5 -78.5t-99.5 -208.5q0 -105 63 -158.5t181 -81.5l301 -71q56 -12 101.5 -28t90.5 -43t75.5 -62t49.5 -87.5t19 -117.5q0 -179 -133.5 -285.5t-355.5 -106.5
q-224 0 -376 110t-175 298l110 25q19 -158 142 -249t307 -91q174 0 276.5 80.5t102.5 214.5q0 110 -60.5 163t-195.5 84l-318 74q-149 35 -232 113t-83 217q0 172 130 275.5t339 103.5zM498 -377l92 285h108l-120 -285h-80z" />
    <glyph glyph-name="scommaaccent" unicode="&#x219;" horiz-adv-x="1038" 
d="M111 274l98 25q10 -111 104 -174.5t236 -63.5q128 0 205 54.5t77 150.5q0 74 -49.5 113.5t-140.5 60.5l-246 54q-123 27 -185.5 85.5t-62.5 157.5q0 129 102 209t265 80q159 0 261.5 -74.5t131.5 -195.5l-92 -25q-21 97 -100.5 154t-202.5 57q-120 0 -192 -54t-72 -145
q0 -73 46.5 -110t137.5 -58l242 -53q43 -10 77.5 -22.5t69 -33t57.5 -46.5t37.5 -64t14.5 -84q0 -137 -106.5 -216t-280.5 -79q-179 0 -295.5 78.5t-136.5 218.5zM385 -377l92 285h109l-121 -285h-80z" />
    <glyph glyph-name="uni021A" unicode="&#x21a;" horiz-adv-x="1290" 
d="M1233 1278h-535v-1278h-106v1278h-535v94h1176v-94zM590 -92h108l-120 -285h-80z" />
    <glyph glyph-name="uni021B" unicode="&#x21b;" horiz-adv-x="763" 
d="M698 139l39 -82q-105 -80 -219 -80q-135 0 -217 81.5t-82 224.5v632h-219v86h219v330h100v-330h375v-86h-375v-626q0 -100 56 -158.5t149 -58.5q95 0 174 67zM401 -92h109l-121 -285h-80z" />
    <glyph glyph-name="circumflex" unicode="&#x2c6;" horiz-adv-x="1228" 
d="M799 1147l-185 215l-184 -215h-104l241 283h95l243 -283h-106z" />
    <glyph glyph-name="caron" unicode="&#x2c7;" horiz-adv-x="1228" 
d="M905 1434l-243 -285h-95l-241 285h104l184 -217l185 217h106z" />
    <glyph glyph-name="breve" unicode="&#x2d8;" horiz-adv-x="1228" 
d="M614 1143q-121 0 -197.5 71t-76.5 187h86q0 -82 54 -133t134 -51q81 0 136 51t55 133h84q0 -116 -77 -187t-198 -71z" />
    <glyph glyph-name="dotaccent" unicode="&#x2d9;" horiz-adv-x="1228" 
d="M614 1362q33 0 55.5 -22.5t22.5 -53.5q0 -34 -22 -55t-56 -21t-55.5 21t-21.5 55q0 31 22 53.5t55 22.5z" />
    <glyph glyph-name="ring" unicode="&#x2da;" horiz-adv-x="1228" 
d="M811 1321q0 -79 -57 -135t-140 -56q-81 0 -138.5 56.5t-57.5 134.5t57.5 134t138.5 56q83 0 140 -55.5t57 -134.5zM743 1321q0 51 -37.5 88t-91.5 37t-91.5 -37t-37.5 -88t37.5 -88t91.5 -37t91.5 37t37.5 88z" />
    <glyph glyph-name="ogonek" unicode="&#x2db;" horiz-adv-x="1228" 
d="M573 8l76 -8q-85 -85 -115 -128.5t-30 -94.5q0 -101 98 -101q27 0 94 23l13 -72q-77 -26 -121 -26q-67 0 -116.5 38t-49.5 123q0 60 33 113.5t118 132.5z" />
    <glyph glyph-name="tilde" unicode="&#x2dc;" horiz-adv-x="1228" 
d="M406 1221h-76q0 89 44.5 134.5t112.5 45.5q39 0 75 -17t59 -37.5t54.5 -37.5t63.5 -17q38 0 60 29.5t22 77.5h78q0 -89 -44.5 -135.5t-111.5 -46.5q-39 0 -75 16.5t-59 36.5t-54 36.5t-61 16.5q-41 0 -64.5 -27.5t-23.5 -74.5z" />
    <glyph glyph-name="hungarumlaut" unicode="&#x2dd;" horiz-adv-x="1228" 
d="M442 1161h-92l176 281h125zM725 1161h-92l174 281h125z" />
    <glyph glyph-name="uni0326" unicode="&#x326;" horiz-adv-x="0" 
d="M465 -377l92 285h109l-121 -285h-80z" />
    <glyph glyph-name="Wgrave" unicode="&#x1e80;" horiz-adv-x="1943" 
d="M924 1532l-201 283h115l176 -283h-90zM1898 1372l-432 -1372h-104l-391 1208l-391 -1208h-103l-434 1372h109l380 -1212l390 1212h100l389 -1212l379 1212h108z" />
    <glyph glyph-name="wgrave" unicode="&#x1e81;" horiz-adv-x="1554" 
d="M731 1161l-201 283h115l176 -283h-90zM1511 1004l-340 -1010h-98l-295 848l-297 -848h-98l-340 1010h102l291 -859l301 856h80l301 -858l291 861h102z" />
    <glyph glyph-name="Wacute" unicode="&#x1e82;" horiz-adv-x="1943" 
d="M1028 1532h-90l176 283h115zM1898 1372l-432 -1372h-104l-391 1208l-391 -1208h-103l-434 1372h109l380 -1212l390 1212h100l389 -1212l379 1212h108z" />
    <glyph glyph-name="wacute" unicode="&#x1e83;" horiz-adv-x="1554" 
d="M836 1161h-91l177 283h114zM1511 1004l-340 -1010h-98l-295 848l-297 -848h-98l-340 1010h102l291 -859l301 856h80l301 -858l291 861h102z" />
    <glyph glyph-name="Wdieresis" unicode="&#x1e84;" horiz-adv-x="1943" 
d="M778 1569q-34 0 -57 21.5t-23 54.5q0 31 23.5 54t56.5 23t55.5 -23t22.5 -54q0 -34 -22 -55t-56 -21zM1165 1569q-34 0 -57 21.5t-23 54.5q0 31 23.5 54t56.5 23t55.5 -23t22.5 -54q0 -34 -22 -55t-56 -21zM1898 1372l-432 -1372h-104l-391 1208l-391 -1208h-103
l-434 1372h109l380 -1212l390 1212h100l389 -1212l379 1212h108z" />
    <glyph glyph-name="wdieresis" unicode="&#x1e85;" horiz-adv-x="1554" 
d="M586 1198q-34 0 -57 21.5t-23 54.5q0 31 23.5 54.5t56.5 23.5t55.5 -23.5t22.5 -54.5q0 -34 -22 -55t-56 -21zM973 1198q-34 0 -57 21.5t-23 54.5q0 31 23.5 54.5t56.5 23.5t55.5 -23.5t22.5 -54.5q0 -34 -22 -55t-56 -21zM1511 1004l-340 -1010h-98l-295 848l-297 -848
h-98l-340 1010h102l291 -859l301 856h80l301 -858l291 861h102z" />
    <glyph glyph-name="Ygrave" unicode="&#x1ef2;" horiz-adv-x="1351" 
d="M629 1532l-201 283h115l176 -283h-90zM727 500v-500h-104v500l-580 872h117l516 -772l514 772h119z" />
    <glyph glyph-name="ygrave" unicode="&#x1ef3;" horiz-adv-x="1130" 
d="M528 1163l-200 283h114l176 -283h-90zM1087 1004l-632 -1352h-111l166 356l-467 996h115l407 -881l412 881h110z" />
    <glyph glyph-name="endash" unicode="&#x2013;" horiz-adv-x="1269" 
d="M1147 481h-1024v82h1024v-82z" />
    <glyph glyph-name="emdash" unicode="&#x2014;" horiz-adv-x="2129" 
d="M2007 481h-1884v82h1884v-82z" />
    <glyph glyph-name="quoteleft" unicode="&#x2018;" horiz-adv-x="479" 
d="M289 1372h80l-142 -532h-121v4z" />
    <glyph glyph-name="quoteright" unicode="&#x2019;" horiz-adv-x="479" 
d="M193 840h-82l141 532h121v-4z" />
    <glyph glyph-name="quotesinglbase" unicode="&#x201a;" horiz-adv-x="479" 
d="M193 -270h-82l141 534h121v-6z" />
    <glyph glyph-name="quotedblleft" unicode="&#x201c;" horiz-adv-x="792" 
d="M289 1372h80l-142 -532h-121v4zM600 1372h82l-141 -532h-121v4z" />
    <glyph glyph-name="quotedblright" unicode="&#x201d;" horiz-adv-x="792" 
d="M193 840h-82l141 532h121v-4zM504 840h-82l141 532h121v-4z" />
    <glyph glyph-name="quotedblbase" unicode="&#x201e;" horiz-adv-x="792" 
d="M193 -270h-82l141 534h121v-6zM504 -270h-82l141 534h121v-6z" />
    <glyph glyph-name="dagger" unicode="&#x2020;" horiz-adv-x="684" 
d="M606 1331v-76h-225v-487h-78v487h-225v76h225v185h78v-185h225z" />
    <glyph glyph-name="daggerdbl" unicode="&#x2021;" horiz-adv-x="684" 
d="M381 1255v-227h225v-76h-225v-184h-78v184h-225v76h225v227h-225v76h225v185h78v-185h225v-76h-225z" />
    <glyph glyph-name="bullet" unicode="&#x2022;" horiz-adv-x="788" 
d="M393 817q118 0 200.5 -81t82.5 -191q0 -118 -81 -194.5t-202 -76.5t-200.5 76.5t-79.5 194.5q0 111 81 191.5t199 80.5z" />
    <glyph glyph-name="ellipsis" unicode="&#x2026;" horiz-adv-x="1181" 
d="M193 147q33 0 55 -22t22 -53q0 -34 -21.5 -56t-55.5 -22t-57 22t-23 56q0 31 23 53t57 22zM592 147q33 0 55.5 -22t22.5 -53q0 -34 -22 -56t-56 -22t-57 22t-23 56q0 31 23 53t57 22zM991 147q33 0 55.5 -22t22.5 -53q0 -34 -22 -56t-56 -22t-57 22t-23 56q0 31 23 53
t57 22z" />
    <glyph glyph-name="perthousand" unicode="&#x2030;" horiz-adv-x="2535" 
d="M446 1395q137 0 234.5 -89t97.5 -235q0 -139 -98 -230t-234 -91q-135 0 -234 91t-99 230q0 145 98.5 234.5t234.5 89.5zM303 0l1036 1372h80l-1036 -1372h-80zM446 1323q-102 0 -179 -70.5t-77 -181.5q0 -108 77 -177t179 -69q101 0 177.5 69t76.5 177q0 111 -76.5 181.5
t-177.5 70.5zM1303 623q137 0 234 -89t97 -235q0 -141 -97.5 -231.5t-233.5 -90.5q-135 0 -234.5 91t-99.5 231q0 145 98.5 234.5t235.5 89.5zM2091 623q137 0 234.5 -89t97.5 -235q0 -141 -98 -231.5t-234 -90.5q-135 0 -234.5 91t-99.5 231q0 145 98.5 234.5t235.5 89.5z
M1303 551q-102 0 -179 -70.5t-77 -181.5q0 -108 77 -177t179 -69q101 0 177 69t76 177q0 111 -76 181.5t-177 70.5zM2091 551q-102 0 -179 -70.5t-77 -181.5q0 -108 77 -177t179 -69q101 0 177.5 69t76.5 177q0 111 -76.5 181.5t-177.5 70.5z" />
    <glyph glyph-name="guilsinglleft" unicode="&#x2039;" horiz-adv-x="466" 
d="M51 537l260 364h105l-260 -364l260 -365h-105z" />
    <glyph glyph-name="guilsinglright" unicode="&#x203a;" horiz-adv-x="466" 
d="M51 172l260 365l-260 364h105l260 -364l-260 -365h-105z" />
    <glyph glyph-name="fraction" unicode="&#x2044;" horiz-adv-x="419" 
d="M-354 0l1038 1372h80l-1038 -1372h-80z" />
    <glyph glyph-name="Euro" unicode="&#x20ac;" horiz-adv-x="1634" 
d="M979 74q157 0 269 102.5t159 288.5l98 -23q-48 -213 -188 -339t-338 -126q-204 0 -347 136.5t-188 369.5h-247v80h235q-6 59 -6 123q0 37 4 107h-233v79h245q42 241 185 382t352 141q198 0 338 -126.5t188 -340.5l-100 -25q-44 187 -156.5 292t-269.5 105
q-164 0 -278.5 -115t-153.5 -313h569l-20 -79h-559q-7 -61 -7 -107q0 -55 7 -123h497l-18 -80h-465q40 -190 153 -299.5t275 -109.5z" />
    <glyph glyph-name="uni2116" unicode="&#x2116;" horiz-adv-x="2527" 
d="M1985 702q-141 0 -244 98t-103 249t103 247.5t244 96.5q145 0 245.5 -96t100.5 -248t-101 -249.5t-245 -97.5zM1255 1372h103v-1372h-92l-965 1194v-1194h-104v1372h92l966 -1202v1202zM1985 1313q-104 0 -181.5 -74.5t-77.5 -189.5t78 -191t181 -76q107 0 183.5 75.5
t76.5 191.5t-76.5 190t-183.5 74zM1659 518h651v-84h-651v84z" />
    <glyph glyph-name="uni2117" unicode="&#x2117;" horiz-adv-x="1607" 
d="M803 1395q192 0 353.5 -90.5t257 -255t95.5 -367.5q0 -201 -95.5 -363.5t-257 -252t-353.5 -89.5q-193 0 -355 89.5t-258 252t-96 363.5q0 203 96 367.5t258 255t355 90.5zM803 37q131 0 249 48.5t205 133t138 206t51 259.5q0 186 -87 336.5t-234 233.5t-322 83
q-176 0 -323.5 -83t-234.5 -233.5t-87 -336.5q0 -138 51 -259.5t138.5 -206t206 -133t249.5 -48.5zM549 1059h321q129 0 207 -68.5t78 -181.5q0 -114 -78 -184t-207 -70h-249v-264h-72v768zM621 618h245q98 0 157.5 52.5t59.5 138.5q0 85 -59.5 135.5t-157.5 50.5h-245v-377
z" />
    <glyph glyph-name="trademark" unicode="&#x2122;" horiz-adv-x="1314" 
d="M541 1313h-197v-479h-70v479h-194v59h461v-59zM1214 834h-65v407l-203 -403h-45l-201 403v-407h-65v538h72l219 -430l219 430h69v-538z" />
    <glyph glyph-name="oneeighth" unicode="&#x215b;" horiz-adv-x="1501" 
d="M231 1266l-180 -109v84l211 131h51v-745h-82v639zM1221 1372l-1037 -1372h-80l1037 1372h80zM1276 383q87 -21 133.5 -73t46.5 -122q0 -93 -79.5 -152t-209.5 -59q-132 0 -212.5 59t-80.5 152q0 73 47.5 124t137.5 71q-72 21 -115 64.5t-43 105.5q0 85 76 140t190 55
q112 0 187.5 -55t75.5 -140q0 -62 -41.5 -105.5t-112.5 -64.5zM975 547q0 -57 54.5 -94t137.5 -37t134 36t53 95q3 63 -50.5 102t-136.5 39t-137.5 -39t-54.5 -102zM1165 47q93 0 150 40.5t57 107.5q0 64 -55 106.5t-150 42.5q-96 0 -153.5 -42t-57.5 -107
q0 -67 57.5 -107.5t151.5 -40.5z" />
    <glyph glyph-name="threeeighths" unicode="&#x215c;" horiz-adv-x="1710" 
d="M618 848q0 -97 -73.5 -160t-192.5 -63q-121 0 -201 67.5t-81 184.5l67 14q4 -94 64.5 -146.5t150.5 -52.5q86 0 138.5 44t52.5 114q0 65 -52 103t-139 38h-69v60h67q79 0 127.5 35t48.5 96q0 63 -51 104t-129 41q-84 0 -138.5 -48.5t-57.5 -135.5l-72 16q4 106 79 170
t187 64q114 0 186 -59.5t72 -151.5q0 -57 -32.5 -98t-88.5 -62q63 -19 100 -64.5t37 -109.5zM1407 1372l-1036 -1372h-80l1036 1372h80zM1462 383q87 -21 133.5 -73t46.5 -122q0 -93 -79.5 -152t-208.5 -59q-132 0 -212.5 59t-80.5 152q0 73 47 124t137 71q-72 21 -115 64.5
t-43 105.5q0 85 76.5 140t190.5 55q112 0 187 -55t75 -140q0 -62 -41.5 -105.5t-112.5 -64.5zM1161 547q0 -57 55 -94t138 -37t133.5 36t52.5 95q3 63 -50 102t-136 39t-138 -39t-55 -102zM1352 47q93 0 150 40.5t57 107.5q0 64 -55 106.5t-150 42.5q-96 0 -153.5 -42
t-57.5 -107q0 -67 57.5 -107.5t151.5 -40.5z" />
    <glyph glyph-name="fiveeighths" unicode="&#x215d;" horiz-adv-x="1687" 
d="M629 858q0 -109 -77.5 -176.5t-201.5 -67.5q-110 0 -190 61.5t-92 155.5l77 13q12 -72 70 -116t135 -44q90 0 146.5 46.5t56.5 125.5q0 73 -54 116.5t-141 43.5h-247l14 356h467v-72h-395l-11 -217h187q115 0 185.5 -61.5t70.5 -163.5zM1413 1372l-1036 -1372h-80
l1036 1372h80zM1462 383q87 -21 133.5 -73t46.5 -122q0 -93 -79.5 -152t-208.5 -59q-132 0 -212.5 59t-80.5 152q0 73 47 124t137 71q-72 21 -115 64.5t-43 105.5q0 85 76.5 140t190.5 55q112 0 187 -55t75 -140q0 -62 -41.5 -105.5t-112.5 -64.5zM1161 547q0 -57 55 -94
t138 -37t133.5 36t52.5 95q3 63 -50 102t-136 39t-138 -39t-55 -102zM1352 47q93 0 150 40.5t57 107.5q0 64 -55 106.5t-150 42.5q-96 0 -153.5 -42t-57.5 -107q0 -67 57.5 -107.5t151.5 -40.5z" />
    <glyph glyph-name="seveneighths" unicode="&#x215e;" horiz-adv-x="1456" 
d="M444 1300h-430v72h523v-59l-342 -684h-91zM1186 1372l-1036 -1372h-80l1036 1372h80zM1231 383q87 -21 133.5 -73t46.5 -122q0 -93 -79.5 -152t-209.5 -59q-132 0 -212.5 59t-80.5 152q0 73 47.5 124t137.5 71q-72 21 -115 64.5t-43 105.5q0 85 76 140t190 55
q112 0 187 -55t75 -140q0 -62 -41 -105.5t-112 -64.5zM930 547q0 -57 54.5 -94t137.5 -37t134 36t53 95q3 63 -50.5 102t-136.5 39t-137.5 -39t-54.5 -102zM1120 47q93 0 150 40.5t57 107.5q0 64 -55 106.5t-150 42.5q-96 0 -153.5 -42t-57.5 -107q0 -67 57.5 -107.5
t151.5 -40.5z" />
    <glyph glyph-name="arrowleft" unicode="&#x2190;" horiz-adv-x="1488" 
d="M1407 612h-1188l559 -557l-73 -75l-685 684l685 684l73 -74l-559 -559h1188v-103z" />
    <glyph glyph-name="arrowup" unicode="&#x2191;" horiz-adv-x="1531" 
d="M1376 629l-559 561v-1190h-102v1190l-559 -561l-74 73l684 684l684 -684z" />
    <glyph glyph-name="arrowright" unicode="&#x2192;" horiz-adv-x="1488" 
d="M1468 664l-684 -684l-73 75l561 557h-1190v103h1190l-561 559l73 74z" />
    <glyph glyph-name="arrowdown" unicode="&#x2193;" horiz-adv-x="1531" 
d="M1450 670l-684 -684l-684 684l74 73l559 -559v1188h102v-1188l559 559z" />
    <glyph glyph-name="uni2196" unicode="&#x2196;" horiz-adv-x="1527" 
d="M1372 -14l-1206 1208v-832h-105v1010h1008v-102h-831l1208 -1209z" />
    <glyph glyph-name="uni2197" unicode="&#x2197;" horiz-adv-x="1527" 
d="M1466 1372v-1010h-104v832l-1208 -1208l-72 75l1208 1209h-833l2 102h1007z" />
    <glyph glyph-name="uni2198" unicode="&#x2198;" horiz-adv-x="1527" 
d="M1466 1010v-1010h-1007l-2 104h833l-1208 1207l72 75l1208 -1208v832h104z" />
    <glyph glyph-name="uni2199" unicode="&#x2199;" horiz-adv-x="1527" 
d="M238 104h831v-104h-1008v1010h105v-832l1206 1208l74 -75z" />
    <glyph glyph-name="minus" unicode="&#x2212;" horiz-adv-x="1187" 
d="M1034 580h-880v90h880v-90z" />
    <glyph glyph-name="approxequal" unicode="&#x2248;" horiz-adv-x="1187" 
d="M1034 862v-96q-85 -47 -198 -47q-55 0 -105 12.5t-89 30.5t-77 36.5t-86 31t-100 12.5q-61 0 -124.5 -19t-100.5 -55v92q37 31 99.5 49.5t125.5 18.5q64 0 126.5 -19t105 -41.5t103.5 -41.5t124 -19q120 0 196 55zM1034 526v-96q-85 -47 -198 -47q-55 0 -105 12.5
t-89 30.5t-77 36.5t-86 31t-100 12.5q-61 0 -124.5 -19t-100.5 -55v92q37 31 99.5 49.5t125.5 18.5q64 0 126.5 -19t105 -41.5t103.5 -41.5t124 -19q120 0 196 55z" />
    <glyph glyph-name="notequal" unicode="&#x2260;" horiz-adv-x="1187" 
d="M735 793l-182 -289h481v-88h-538l-129 -205h-101l131 205h-243v88h299l184 289h-483v90h540l131 207h99l-131 -207h241v-90h-299z" />
    <glyph glyph-name="lessequal" unicode="&#x2264;" horiz-adv-x="856" 
d="M776 373l-713 286v84l713 289v-104l-583 -226l583 -227v-102zM776 279v-91h-706v91h706z" />
    <glyph glyph-name="greaterequal" unicode="&#x2265;" horiz-adv-x="856" 
d="M666 702l-584 226v104l713 -289v-84l-713 -286v102zM788 188h-706v91h706v-91z" />
    <glyph glyph-name="K.ss03" horiz-adv-x="1435" 
d="M1389 0h-134l-591 711l-363 -375v-336h-104v1372h104v-909l877 909h122l-569 -590z" />
    <glyph glyph-name="Kcommaaccent.ss03" horiz-adv-x="1435" 
d="M1389 0h-134l-591 711l-363 -375v-336h-104v1372h104v-909l877 909h122l-569 -590zM680 -92h108l-120 -285h-80z" />
    <glyph glyph-name="Q.ss04" horiz-adv-x="1660" 
d="M1462 -348l-329 391q-141 -66 -302 -66q-194 0 -355.5 94t-254 256.5t-92.5 358.5q0 195 92.5 357.5t254 257t355.5 94.5q145 0 275 -55.5t223.5 -150.5t148 -226t54.5 -277q0 -183 -81 -337t-222 -251l379 -446h-146zM231 686q0 -170 79 -310.5t216.5 -221t304.5 -80.5
q124 0 235 47.5t191 128.5t126.5 194.5t46.5 241.5q0 127 -46.5 240.5t-126.5 195t-191 129t-235 47.5q-166 0 -304 -80.5t-217 -221.5t-79 -310z" />
    <glyph glyph-name="I.ss05" horiz-adv-x="882" 
d="M494 1278v-1184h331v-94h-768v94h332v1184h-332v94h768v-94h-331z" />
    <glyph glyph-name="IJ.ss05" horiz-adv-x="2099" 
d="M825 1372v-94h-331v-1184h331v-94h-768v94h332v1184h-332v94h768zM1921 1372v-866q0 -235 -136 -382t-358 -147q-199 0 -330.5 121t-156.5 318l98 22q21 -166 124.5 -266t264.5 -100q176 0 284 120.5t108 313.5v772h-559v94h661z" />
    <glyph glyph-name="Iacute.ss05" horiz-adv-x="882" 
d="M498 1532h-90l176 283h114zM494 1278v-1184h331v-94h-768v94h332v1184h-332v94h768v-94h-331z" />
    <glyph glyph-name="Icircumflex.ss05" horiz-adv-x="882" 
d="M256 1518h-104l241 282h94l244 -282h-106l-185 215zM494 1278v-1184h331v-94h-768v94h332v1184h-332v94h768v-94h-331z" />
    <glyph glyph-name="Idieresis.ss05" horiz-adv-x="882" 
d="M248 1569q-34 0 -57 21.5t-23 54.5q0 31 23.5 54t56.5 23t55.5 -23t22.5 -54q0 -34 -22 -55t-56 -21zM635 1569q-34 0 -57 21.5t-23 54.5q0 31 23.5 54t56.5 23t55.5 -23t22.5 -54q0 -34 -22 -55t-56 -21zM494 1278v-1184h331v-94h-768v94h332v1184h-332v94h768v-94h-331
z" />
    <glyph glyph-name="Idotaccent.ss05" horiz-adv-x="882" 
d="M440 1581q-34 0 -56 21t-22 55q0 31 22.5 53.5t55.5 22.5t55.5 -22.5t22.5 -53.5q0 -34 -22 -55t-56 -21zM494 1278v-1184h331v-94h-768v94h332v1184h-332v94h768v-94h-331z" />
    <glyph glyph-name="Igrave.ss05" horiz-adv-x="882" 
d="M393 1532l-200 283h114l176 -283h-90zM494 1278v-1184h331v-94h-768v94h332v1184h-332v94h768v-94h-331z" />
    <glyph glyph-name="Imacron.ss05" horiz-adv-x="882" 
d="M715 1577h-547v82h547v-82zM494 1278v-1184h331v-94h-768v94h332v1184h-332v94h768v-94h-331z" />
    <glyph glyph-name="Iogonek.ss05" horiz-adv-x="882" 
d="M494 1278v-1184h331v-94h-333q-86 -86 -116 -129t-30 -94q0 -101 98 -101q28 0 95 23l12 -72q-77 -26 -121 -26q-67 0 -116.5 38t-49.5 123q0 58 32 109.5t112 128.5h-351v94h332v1184h-332v94h768v-94h-331z" />
    <glyph glyph-name="J.ss05" horiz-adv-x="1218" 
d="M1038 1372v-866q0 -235 -136 -382t-357 -147q-199 0 -331 121t-157 318l99 22q21 -166 124.5 -266t264.5 -100q176 0 283.5 120.5t107.5 313.5v772h-559v94h661z" />
    <glyph glyph-name="i.loclTRK" horiz-adv-x="552" 
d="M276 1362q33 0 55.5 -22.5t22.5 -53.5q0 -34 -22 -55t-56 -21t-55.5 21t-21.5 55q0 31 22 53.5t55 22.5zM326 0h-99v1001h99v-1001z" />
    <glyph glyph-name="germandbls.case" horiz-adv-x="2496" 
d="M631 1395q201 0 332.5 -100.5t166.5 -266.5l-102 -24q-27 138 -133.5 219.5t-267.5 81.5q-156 0 -255.5 -78.5t-99.5 -208.5q0 -105 63 -158.5t181 -81.5l301 -71q56 -12 101.5 -28t90.5 -43t75.5 -62t49.5 -87.5t19 -117.5q0 -179 -133.5 -285.5t-355.5 -106.5
q-224 0 -376 110t-175 298l110 25q19 -158 142 -249t307 -91q174 0 276.5 80.5t102.5 214.5q0 110 -60.5 163t-195.5 84l-318 74q-149 35 -232 113t-83 217q0 172 130 275.5t339 103.5zM1858 1395q201 0 332.5 -100.5t166.5 -266.5l-102 -24q-27 138 -134 219.5t-268 81.5
q-156 0 -255 -78.5t-99 -208.5q0 -105 63 -158.5t181 -81.5l301 -71q56 -12 101.5 -28t90.5 -43t75.5 -62t49.5 -87.5t19 -117.5q0 -179 -134 -285.5t-356 -106.5q-224 0 -376 110t-175 298l111 25q19 -158 141.5 -249t306.5 -91q174 0 276.5 80.5t102.5 214.5
q0 110 -60.5 163t-195.5 84l-317 74q-149 35 -232 113t-83 217q0 172 130 275.5t339 103.5z" />
    <glyph glyph-name="a.ss01" horiz-adv-x="1116" 
d="M565 1026q184 0 293 -100t109 -279v-647h-97v197q-61 -100 -168.5 -160t-244.5 -60q-161 0 -259 82t-98 211q0 140 106 226t302 86l362 -2v63q0 138 -82 215.5t-219 77.5q-126 0 -212 -62.5t-105 -166.5l-94 24q22 131 134 213t273 82zM467 61q168 0 285.5 105t117.5 258
v74h-364q-149 0 -229 -62.5t-80 -163.5q0 -93 74 -152t196 -59z" />
    <glyph glyph-name="aacute.ss01" horiz-adv-x="1116" 
d="M633 1161h-90l176 283h115zM565 1026q184 0 293 -100t109 -279v-647h-97v197q-61 -100 -168.5 -160t-244.5 -60q-161 0 -259 82t-98 211q0 140 106 226t302 86l362 -2v63q0 138 -82 215.5t-219 77.5q-126 0 -212 -62.5t-105 -166.5l-94 24q22 131 134 213t273 82zM467 61
q168 0 285.5 105t117.5 258v74h-364q-149 0 -229 -62.5t-80 -163.5q0 -93 74 -152t196 -59z" />
    <glyph glyph-name="abreve.ss01" horiz-adv-x="1116" 
d="M575 1143q-121 0 -197.5 71t-76.5 187h86q0 -82 54 -133t134 -51q81 0 136 51t55 133h84q0 -116 -77 -187t-198 -71zM565 1026q184 0 293 -100t109 -279v-647h-97v197q-61 -100 -168.5 -160t-244.5 -60q-161 0 -259 82t-98 211q0 140 106 226t302 86l362 -2v63
q0 138 -82 215.5t-219 77.5q-126 0 -212 -62.5t-105 -166.5l-94 24q22 131 134 213t273 82zM467 61q168 0 285.5 105t117.5 258v74h-364q-149 0 -229 -62.5t-80 -163.5q0 -93 74 -152t196 -59z" />
    <glyph glyph-name="acircumflex.ss01" horiz-adv-x="1116" 
d="M391 1147h-104l241 283h95l243 -283h-106l-185 215zM565 1026q184 0 293 -100t109 -279v-647h-97v197q-61 -100 -168.5 -160t-244.5 -60q-161 0 -259 82t-98 211q0 140 106 226t302 86l362 -2v63q0 138 -82 215.5t-219 77.5q-126 0 -212 -62.5t-105 -166.5l-94 24
q22 131 134 213t273 82zM467 61q168 0 285.5 105t117.5 258v74h-364q-149 0 -229 -62.5t-80 -163.5q0 -93 74 -152t196 -59z" />
    <glyph glyph-name="adieresis.ss01" horiz-adv-x="1116" 
d="M383 1198q-34 0 -57 21.5t-23 54.5q0 31 23.5 54.5t56.5 23.5t55.5 -23.5t22.5 -54.5q0 -34 -22 -55t-56 -21zM770 1198q-34 0 -57 21.5t-23 54.5q0 31 23.5 54.5t56.5 23.5t55.5 -23.5t22.5 -54.5q0 -34 -22 -55t-56 -21zM565 1026q184 0 293 -100t109 -279v-647h-97
v197q-61 -100 -168.5 -160t-244.5 -60q-161 0 -259 82t-98 211q0 140 106 226t302 86l362 -2v63q0 138 -82 215.5t-219 77.5q-126 0 -212 -62.5t-105 -166.5l-94 24q22 131 134 213t273 82zM467 61q168 0 285.5 105t117.5 258v74h-364q-149 0 -229 -62.5t-80 -163.5
q0 -93 74 -152t196 -59z" />
    <glyph glyph-name="agrave.ss01" horiz-adv-x="1116" 
d="M528 1161l-200 283h114l176 -283h-90zM565 1026q184 0 293 -100t109 -279v-647h-97v197q-61 -100 -168.5 -160t-244.5 -60q-161 0 -259 82t-98 211q0 140 106 226t302 86l362 -2v63q0 138 -82 215.5t-219 77.5q-126 0 -212 -62.5t-105 -166.5l-94 24q22 131 134 213
t273 82zM467 61q168 0 285.5 105t117.5 258v74h-364q-149 0 -229 -62.5t-80 -163.5q0 -93 74 -152t196 -59z" />
    <glyph glyph-name="amacron.ss01" horiz-adv-x="1116" 
d="M850 1206h-547v82h547v-82zM565 1026q184 0 293 -100t109 -279v-647h-97v197q-61 -100 -168.5 -160t-244.5 -60q-161 0 -259 82t-98 211q0 140 106 226t302 86l362 -2v63q0 138 -82 215.5t-219 77.5q-126 0 -212 -62.5t-105 -166.5l-94 24q22 131 134 213t273 82zM467 61
q168 0 285.5 105t117.5 258v74h-364q-149 0 -229 -62.5t-80 -163.5q0 -93 74 -152t196 -59z" />
    <glyph glyph-name="aogonek.ss01" horiz-adv-x="1116" 
d="M1022 -301l12 -72q-77 -26 -121 -26q-67 0 -116 38t-49 123q0 59 31.5 110t111.5 128h-21v197q-61 -100 -168.5 -160t-244.5 -60q-161 0 -259 82t-98 211q0 140 106 226t302 86l362 -2v63q0 138 -82 215.5t-219 77.5q-126 0 -212 -62.5t-105 -166.5l-94 24
q22 131 134 213t273 82q184 0 293 -100t109 -279v-647h8q-86 -86 -116 -129t-30 -94q0 -58 29.5 -79.5t69.5 -21.5q27 0 94 23zM467 61q168 0 285.5 105t117.5 258v74h-364q-149 0 -229 -62.5t-80 -163.5q0 -93 74 -152t196 -59z" />
    <glyph glyph-name="aring.ss01" horiz-adv-x="1116" 
d="M575 1133q-81 0 -138.5 56t-57.5 134t57.5 134t138.5 56q83 0 140 -55.5t57 -134.5t-57 -134.5t-140 -55.5zM575 1448q-54 0 -91.5 -37t-37.5 -88t37.5 -88t91.5 -37t92 37t38 88t-38 88t-92 37zM565 1026q184 0 293 -100t109 -279v-647h-97v197q-61 -100 -168.5 -160
t-244.5 -60q-161 0 -259 82t-98 211q0 140 106 226t302 86l362 -2v63q0 138 -82 215.5t-219 77.5q-126 0 -212 -62.5t-105 -166.5l-94 24q22 131 134 213t273 82zM467 61q168 0 285.5 105t117.5 258v74h-364q-149 0 -229 -62.5t-80 -163.5q0 -93 74 -152t196 -59z" />
    <glyph glyph-name="atilde.ss01" horiz-adv-x="1116" 
d="M455 1321q-41 0 -64.5 -27.5t-23.5 -74.5h-76q0 89 45 134.5t113 45.5q39 0 75 -17t58.5 -37.5t54 -37.5t63.5 -17q38 0 60 29.5t22 77.5h78q0 -89 -44 -136t-111 -47q-39 0 -75.5 16.5t-59 37t-54 37t-61.5 16.5zM565 1026q184 0 293 -100t109 -279v-647h-97v197
q-61 -100 -168.5 -160t-244.5 -60q-161 0 -259 82t-98 211q0 140 106 226t302 86l362 -2v63q0 138 -82 215.5t-219 77.5q-126 0 -212 -62.5t-105 -166.5l-94 24q22 131 134 213t273 82zM467 61q168 0 285.5 105t117.5 258v74h-364q-149 0 -229 -62.5t-80 -163.5
q0 -93 74 -152t196 -59z" />
    <glyph glyph-name="l.ss02" horiz-adv-x="620" 
d="M276 1475v-1252q0 -67 43.5 -109t114.5 -42q62 0 117 34l27 -83q-71 -46 -160 -46q-108 0 -175 67t-67 175v1256h100z" />
    <glyph glyph-name="lacute.ss02" horiz-adv-x="620" 
d="M283 1634h-90l176 283h114zM276 1475v-1252q0 -67 43.5 -109t114.5 -42q62 0 117 34l27 -83q-71 -46 -160 -46q-108 0 -175 67t-67 175v1256h100z" />
    <glyph glyph-name="lcaron.ss02" horiz-adv-x="620" 
d="M276 1475v-1252q0 -67 43.5 -109t114.5 -42q62 0 117 34l27 -83q-71 -46 -160 -46q-108 0 -175 67t-67 175v1256h100zM530 1149h-81v326h102z" />
    <glyph glyph-name="lcommaaccent.ss02" horiz-adv-x="620" 
d="M276 1475v-1252q0 -67 43.5 -109t114.5 -42q62 0 117 34l27 -83q-71 -46 -160 -46q-108 0 -175 67t-67 175v1256h100zM221 -377l92 285h109l-121 -285h-80z" />
    <glyph glyph-name="ldot.ss02" horiz-adv-x="677" 
d="M297 1475v-1252q0 -67 43.5 -109t114.5 -42q61 0 116 34l27 -83q-71 -46 -160 -46q-108 0 -174.5 66.5t-66.5 175.5v1256h100zM580 756q33 0 55 -22.5t22 -53.5q0 -34 -21.5 -55t-55.5 -21t-56 21t-22 55q0 31 22.5 53.5t55.5 22.5z" />
    <glyph glyph-name="lslash.ss02" horiz-adv-x="673" 
d="M604 106l27 -83q-71 -46 -158 -46q-109 0 -175.5 66.5t-66.5 175.5v412l-170 -111v101l170 110v744h99v-680l202 133v-101l-202 -133v-471q0 -68 43.5 -109.5t113.5 -41.5q62 0 117 34z" />
    <glyph glyph-name="k.ss03" horiz-adv-x="1208" 
d="M1178 0h-127l-476 518l-278 -287v-231h-100v1475h100v-1106l631 632h123l-408 -415z" />
    <glyph glyph-name="kcommaaccent.ss03" horiz-adv-x="1208" 
d="M1178 0h-127l-476 518l-278 -287v-231h-100v1475h100v-1106l631 632h123l-408 -415zM578 -92h108l-121 -285h-80z" />
    <glyph glyph-name="f_j" horiz-adv-x="1292" 
d="M1077 1001v-1138q0 -104 -64 -168t-167 -64q-84 0 -146 35l27 84q47 -24 98 -24q68 0 110 40.5t42 106.5v1042h-651v-915h-101v915h-184v86h184v179q0 153 85.5 242t234.5 89q108 0 190 -55l-33 -78q-67 43 -151 43q-105 0 -165 -65.5t-60 -175.5v-179h751zM1026 1384
q34 0 57 -22.5t23 -54.5t-23 -54t-57 -22t-57 22t-23 54t23 54.5t57 22.5z" />
    <glyph glyph-name="f_t" horiz-adv-x="1490" 
d="M1425 139l37 -82q-105 -80 -219 -80q-135 0 -216 81.5t-81 224.5v632h-620v-915h-101v915h-184v86h184v179q0 153 85.5 242t234.5 89q108 0 190 -55l-33 -78q-67 43 -151 43q-105 0 -165 -65.5t-60 -175.5v-179h620v330h98v-330h377v-86h-377v-626q0 -100 56.5 -158.5
t148.5 -58.5q93 0 176 67z" />
    <glyph glyph-name="fl.ss02" horiz-adv-x="1337" 
d="M326 1001h395v-86h-395v-915h-101v915h-184v86h184v179q0 153 85.5 242t232.5 89q82 0 157 -32l-30 -84q-53 26 -121 26q-103 0 -163 -65.5t-60 -175.5v-179zM1268 106l24 -83q-71 -46 -157 -46q-109 0 -175.5 66.5t-66.5 175.5v1256h100v-1252q0 -68 43 -109.5
t113 -41.5q64 0 119 34z" />
    <glyph glyph-name="zero.tf" 
d="M625 1395q247 0 399 -195.5t152 -513.5t-152 -513.5t-399 -195.5t-398 195.5t-151 513.5t151 513.5t398 195.5zM625 74q201 0 323.5 168.5t122.5 443.5q0 276 -122.5 445t-323.5 169t-323 -169t-122 -445t122 -444t323 -168z" />
    <glyph glyph-name="one.tf" 
d="M1126 94v-94h-956v94h448v1151l-417 -223v98l456 252h62v-1278h407z" />
    <glyph glyph-name="two.tf" 
d="M1114 94v-94h-917v66l501 456q85 75 131 120.5t89.5 102.5t61 112t17.5 122q0 146 -95.5 236t-250.5 90q-160 0 -256.5 -99t-101.5 -266l-96 16q6 198 130.5 318.5t323.5 120.5q200 0 322.5 -114t122.5 -300q0 -62 -15 -118t-38 -100.5t-69.5 -99.5t-90 -98t-119.5 -112
l-397 -359h747z" />
    <glyph glyph-name="three.tf" 
d="M864 707q129 -27 201 -110.5t72 -211.5q0 -183 -127 -295.5t-334 -112.5q-216 0 -350 124t-146 327l101 18q8 -172 114 -275t281 -103q163 0 263.5 87t100.5 228q0 131 -95 205t-259 74h-184v88h178q151 0 240.5 70.5t89.5 191.5q0 132 -94.5 212.5t-249.5 80.5
q-161 0 -260.5 -95.5t-108.5 -259.5l-98 19q12 192 138.5 309t330.5 117q196 0 317 -105.5t121 -277.5q0 -117 -64 -196t-178 -109z" />
    <glyph glyph-name="four.tf" 
d="M1182 356h-232v-356h-100v356h-766v105l743 911h123v-928h232v-88zM850 444v807l-660 -807h660z" />
    <glyph glyph-name="five.tf" 
d="M326 799h323q206 0 324.5 -100.5t118.5 -292.5t-129.5 -310.5t-341.5 -118.5q-141 0 -251 56t-173 162t-64 247l100 21q0 -181 108 -287t282 -106q166 0 268 91.5t102 241.5q0 151 -93.5 227.5t-258.5 76.5h-418l35 665h784v-94h-690z" />
    <glyph glyph-name="six.tf" 
d="M678 887q211 0 337 -127.5t126 -325.5q0 -199 -128.5 -328t-340.5 -129q-255 0 -393 175t-138 489q0 415 189 610q141 144 352 144q155 0 268 -76t152 -213l-101 -19q-30 106 -115.5 162t-207.5 56q-172 0 -283 -121q-165 -184 -153 -549v-35q40 127 161.5 207t274.5 80z
M670 72q165 0 267.5 105t102.5 259q0 155 -102.5 258t-267.5 103q-172 0 -277.5 -109t-105.5 -258q0 -156 110.5 -257t272.5 -101z" />
    <glyph glyph-name="seven.tf" 
d="M1124 1372v-67l-688 -1305h-119l680 1278h-893v94h1020z" />
    <glyph glyph-name="eight.tf" 
d="M813 707q166 -33 247 -131.5t81 -219.5q0 -169 -136 -274t-358 -105q-225 0 -363.5 105t-138.5 274q0 123 81.5 219.5t248.5 131.5q-150 35 -221.5 125t-71.5 208q0 160 126.5 257.5t338.5 97.5q207 0 332 -97.5t125 -257.5q0 -75 -27 -139t-94.5 -118t-169.5 -76z
M285 1034q-2 -122 96 -199t262 -77q166 0 263.5 78t97.5 198q0 124 -99.5 199.5t-259.5 75.5q-162 0 -261 -75.5t-99 -199.5zM643 70q172 0 278.5 79t106.5 213q0 128 -102.5 210.5t-280.5 82.5q-175 0 -280 -83t-105 -212q0 -132 105.5 -211t277.5 -79z" />
    <glyph glyph-name="nine.tf" 
d="M578 1393q256 0 393 -174t137 -490q0 -417 -188 -610q-141 -144 -353 -144q-155 0 -267 76t-150 213l100 19q29 -105 113.5 -160t207.5 -55q175 0 283 118q167 185 154 549v33q-43 -126 -164.5 -204.5t-272.5 -78.5q-210 0 -336 127.5t-126 323.5q0 198 129 327.5
t340 129.5zM580 573q172 0 277.5 109t105.5 258q0 156 -110.5 257t-272.5 101q-165 0 -267 -104.5t-102 -259.5q0 -154 102.5 -257.5t266.5 -103.5z" />
    <glyph glyph-name="zero.zero.tf" 
d="M625 1395q247 0 399 -195.5t152 -513.5t-152 -513.5t-399 -195.5t-398 195.5t-151 513.5t151 513.5t398 195.5zM625 1300q-201 0 -323 -169t-122 -445q0 -219 78 -369l664 848q-119 135 -297 135zM625 74q201 0 323.5 168.5t122.5 443.5q0 251 -100 412l-668 -856
q124 -168 322 -168z" />
    <glyph glyph-name="zero.zero" horiz-adv-x="1331" 
d="M680 1395q165 0 292.5 -88.5t197 -249.5t69.5 -371t-69.5 -371t-197 -249.5t-292.5 -88.5q-250 0 -403.5 195.5t-153.5 513.5t153.5 513.5t403.5 195.5zM680 1300q-204 0 -328.5 -169t-124.5 -445q0 -207 74 -358l668 852q-117 120 -289 120zM680 74q205 0 330 168
t125 444q0 262 -113 428l-676 -864q125 -176 334 -176z" />
    <glyph glyph-name="zero.dnom" horiz-adv-x="788" 
d="M395 750q141 0 227.5 -105.5t86.5 -277.5q0 -175 -86.5 -281t-227.5 -106t-228 106.5t-87 280.5q0 172 87 277.5t228 105.5zM395 53q105 0 167.5 85t62.5 229q0 141 -63 226t-167 85t-166.5 -85t-62.5 -226q0 -144 62 -229t167 -85z" />
    <glyph glyph-name="one.dnom" horiz-adv-x="452" 
d="M313 0h-82v639l-180 -109v84l211 131h51v-745z" />
    <glyph glyph-name="two.dnom" horiz-adv-x="655" 
d="M590 72v-72h-531v53l285 244q89 75 123.5 121.5t34.5 107.5q0 73 -49 117.5t-129 44.5q-85 0 -135 -51t-50 -137l-73 14q0 106 70.5 175t187.5 69q115 0 186.5 -63t71.5 -167q0 -79 -44 -139.5t-139 -140.5l-209 -176h400z" />
    <glyph glyph-name="three.dnom" horiz-adv-x="679" 
d="M481 377q63 -19 100 -64.5t37 -109.5q0 -97 -74 -161.5t-192 -64.5q-121 0 -201 68.5t-81 185.5l67 15q4 -94 64.5 -146.5t150.5 -52.5q86 0 138.5 44t52.5 114q0 65 -52 103t-139 38h-69v60h67q79 0 127.5 35t48.5 96q0 63 -51 104t-129 41q-84 0 -138.5 -48.5
t-57.5 -135.5l-72 16q4 106 79 170t187 64q114 0 186 -59.5t72 -151.5q0 -57 -32.5 -98t-88.5 -62z" />
    <glyph glyph-name="four.dnom" horiz-adv-x="731" 
d="M686 182h-129v-184h-76v184h-424v76l412 485h88v-493h129v-68zM481 250v401l-344 -401h344z" />
    <glyph glyph-name="five.dnom" horiz-adv-x="688" 
d="M186 449h187q115 0 185.5 -62t70.5 -164q0 -109 -77 -176t-202 -67q-110 0 -190 61.5t-92 155.5l77 12q12 -72 70 -116t135 -44q90 0 146.5 46.5t56.5 125.5q0 73 -54 116.5t-141 43.5h-247l14 356h467v-71h-395z" />
    <glyph glyph-name="six.dnom" horiz-adv-x="733" 
d="M397 475q115 0 185.5 -70t70.5 -178q0 -109 -73 -179.5t-191 -70.5q-146 0 -223.5 95t-77.5 266q0 225 107 332q78 78 198 78q94 0 159.5 -45.5t82.5 -127.5l-78 -12q-13 58 -58 87.5t-110 29.5q-87 0 -143 -59q-80 -87 -80 -267q31 55 93 88t138 33zM387 45
q86 0 139.5 54t53.5 132q0 77 -53.5 130t-139.5 53q-91 0 -146 -55.5t-55 -131.5q0 -78 57.5 -130t143.5 -52z" />
    <glyph glyph-name="seven.dnom" horiz-adv-x="557" 
d="M537 743v-59l-342 -686h-91l340 674h-430v71h523z" />
    <glyph glyph-name="eight.dnom" horiz-adv-x="708" 
d="M465 383q87 -21 133.5 -73t46.5 -122q0 -93 -79.5 -152t-209.5 -59q-132 0 -212.5 59t-80.5 152q0 73 47.5 124t137.5 71q-72 21 -115 64.5t-43 105.5q0 85 76 140t190 55q112 0 187 -55t75 -140q0 -62 -41 -105.5t-112 -64.5zM164 547q0 -57 54.5 -94t137.5 -37t134 36
t53 95q3 63 -50.5 102t-136.5 39t-137.5 -39t-54.5 -102zM354 47q93 0 150 40.5t57 107.5q0 64 -55 106.5t-150 42.5q-96 0 -153.5 -42t-57.5 -107q0 -67 57.5 -107.5t151.5 -40.5z" />
    <glyph glyph-name="nine.dnom" horiz-adv-x="733" 
d="M346 748q145 0 223 -95t78 -264q0 -226 -106 -332q-80 -80 -201 -80q-94 0 -159.5 46.5t-82.5 128.5l78 12q15 -58 59 -87.5t109 -29.5q87 0 143 59q80 87 80 267q-31 -55 -93 -88t-138 -33q-115 0 -185.5 69.5t-70.5 176.5q0 110 73 180t193 70zM348 311
q90 0 145.5 55.5t55.5 131.5q0 79 -58 131.5t-143 52.5q-87 0 -140.5 -53.5t-53.5 -132.5q0 -77 54 -131t140 -54z" />
    <glyph glyph-name="zero.numr" horiz-adv-x="788" 
d="M395 1393q141 0 227.5 -105.5t86.5 -277.5q0 -175 -86.5 -281t-227.5 -106t-228 106.5t-87 280.5q0 172 87 277.5t228 105.5zM395 696q105 0 167.5 85t62.5 229q0 141 -63 226t-167 85t-166.5 -85t-62.5 -226q0 -144 62 -229t167 -85z" />
    <glyph glyph-name="one.numr" horiz-adv-x="452" 
d="M313 627h-82v639l-180 -109v84l211 131h51v-745z" />
    <glyph glyph-name="two.numr" horiz-adv-x="655" 
d="M590 707v-72h-531v53l285 244q89 75 123.5 121.5t34.5 107.5q0 73 -49 117.5t-129 44.5q-85 0 -135 -51t-50 -137l-73 14q0 106 70.5 175t187.5 69q115 0 186.5 -63t71.5 -167q0 -79 -44 -139.5t-139 -140.5l-209 -176h400z" />
    <glyph glyph-name="three.numr" horiz-adv-x="679" 
d="M481 1022q63 -19 100 -64.5t37 -109.5q0 -97 -73.5 -160t-192.5 -63q-121 0 -201 67.5t-81 184.5l67 14q4 -94 64.5 -146.5t150.5 -52.5q86 0 138.5 44t52.5 114q0 65 -52 103t-139 38h-69v60h67q79 0 127.5 35t48.5 96q0 63 -51 104t-129 41q-84 0 -138.5 -48.5
t-57.5 -135.5l-72 16q4 106 79 170t187 64q114 0 186 -59.5t72 -151.5q0 -57 -32.5 -98t-88.5 -62z" />
    <glyph glyph-name="four.numr" horiz-adv-x="731" 
d="M686 811h-129v-182h-76v182h-424v76l412 485h88v-493h129v-68zM481 879v401l-344 -401h344z" />
    <glyph glyph-name="five.numr" horiz-adv-x="688" 
d="M186 1083h187q115 0 185.5 -61.5t70.5 -163.5q0 -109 -77.5 -176.5t-201.5 -67.5q-110 0 -190 61.5t-92 155.5l77 13q12 -72 70 -116t135 -44q90 0 146.5 46.5t56.5 125.5q0 73 -54 116.5t-141 43.5h-247l14 356h467v-72h-395z" />
    <glyph glyph-name="six.numr" horiz-adv-x="733" 
d="M397 1120q115 0 185.5 -70t70.5 -178t-72.5 -177.5t-191.5 -69.5q-146 0 -223.5 94t-77.5 264q0 225 107 332q78 78 198 78q94 0 159.5 -45t82.5 -127l-78 -13q-13 58 -58 87.5t-110 29.5q-87 0 -143 -59q-80 -87 -80 -267q31 55 93 88t138 33zM387 690q86 0 139.5 54
t53.5 133q0 77 -53.5 129.5t-139.5 52.5q-91 0 -146 -55.5t-55 -131.5q0 -78 57.5 -130t143.5 -52z" />
    <glyph glyph-name="seven.numr" horiz-adv-x="557" 
d="M537 1372v-59l-342 -684h-91l340 671h-430v72h523z" />
    <glyph glyph-name="eight.numr" horiz-adv-x="708" 
d="M465 1028q87 -21 133.5 -72.5t46.5 -121.5q0 -93 -79.5 -151t-209.5 -58q-133 0 -213 58t-80 151q0 73 47.5 123.5t137.5 70.5q-72 21 -115 64.5t-43 105.5q0 85 76 140t190 55q112 0 187 -55t75 -140q0 -62 -41 -105.5t-112 -64.5zM164 1192q0 -57 54.5 -94t137.5 -37
t134 36t53 95q3 63 -50.5 102t-136.5 39t-137.5 -39t-54.5 -102zM354 692q93 0 150 40.5t57 107.5q0 64 -55 106.5t-150 42.5q-96 0 -153.5 -42t-57.5 -107q0 -67 57.5 -107.5t151.5 -40.5z" />
    <glyph glyph-name="nine.numr" horiz-adv-x="733" 
d="M346 1393q145 0 223 -95t78 -264q0 -226 -106 -332q-77 -77 -201 -77q-94 0 -159.5 45t-82.5 127l78 12q15 -58 59 -87.5t109 -29.5q86 0 143 60q80 87 80 266q-31 -55 -93 -88t-138 -33q-115 0 -185.5 69.5t-70.5 176.5q0 110 73 180t193 70zM348 956q90 0 145.5 55.5
t55.5 131.5q0 79 -58 131.5t-143 52.5q-87 0 -140.5 -53.5t-53.5 -132.5q0 -77 54 -131t140 -54z" />
    <glyph glyph-name="backslash.case" horiz-adv-x="702" 
d="M643 0h-98l-484 1372h97z" />
    <glyph glyph-name="periodcentered.case" horiz-adv-x="382" 
d="M193 754q33 0 55 -22.5t22 -53.5q0 -34 -21.5 -55t-55.5 -21t-57 21.5t-23 54.5q0 31 23.5 53.5t56.5 22.5z" />
    <glyph glyph-name="bullet.case" horiz-adv-x="788" 
d="M393 952q118 0 200.5 -81t82.5 -191q0 -118 -81 -194t-202 -76t-200.5 76t-79.5 194q0 111 81 191.5t199 80.5z" />
    <glyph glyph-name="colon.case" horiz-adv-x="382" 
d="M193 1096q33 0 55 -22.5t22 -53.5q0 -34 -21.5 -55t-55.5 -21t-57 21.5t-23 54.5q0 31 23.5 53.5t56.5 22.5zM193 377q33 0 55 -22.5t22 -53.5q0 -33 -22 -54.5t-55 -21.5q-34 0 -57 22t-23 54q0 31 23.5 53.5t56.5 22.5z" />
    <glyph glyph-name="exclamdown.case" horiz-adv-x="532" 
d="M266 1225q-33 0 -56.5 23.5t-23.5 54.5q0 32 23 53.5t57 21.5t56 -21.5t22 -53.5q0 -31 -22.5 -54.5t-55.5 -23.5zM213 63l4 922h100l2 -922v-63h-106v63z" />
    <glyph glyph-name="questiondown.case" horiz-adv-x="1056" 
d="M545 1231q-33 0 -56.5 22.5t-23.5 53.5q0 32 23 53.5t57 21.5t56 -21.5t22 -53.5q0 -31 -22.5 -53.5t-55.5 -22.5zM883 438l98 -16q-3 -193 -130.5 -316.5t-330.5 -123.5q-201 0 -323.5 114.5t-122.5 302.5q0 172 119 283.5t303 122.5v182h96v-262h-55q-154 0 -259.5 -91
t-105.5 -235q0 -146 96 -236.5t252 -90.5q160 0 259 101t104 265z" />
    <glyph glyph-name="semicolon.case" horiz-adv-x="434" 
d="M242 1096q33 0 56.5 -22.5t23.5 -53.5q0 -33 -23 -54.5t-57 -21.5t-56 21t-22 55q0 31 22.5 53.5t55.5 22.5zM117 -270h-80l141 534h121v-6z" />
    <glyph glyph-name="slash.case" horiz-adv-x="763" 
d="M162 0h-96l534 1372h96z" />
    <glyph glyph-name="braceleft.case" horiz-adv-x="884" 
d="M442 1108v-201q0 -81 -37 -141t-102 -88q65 -28 102 -87.5t37 -141.5v-185q0 -79 46.5 -127.5t121.5 -48.5h148v-88h-156q-117 0 -187.5 70t-70.5 186v184q0 85 -51.5 136.5t-136.5 56.5l-37 6v80l37 6q85 5 136.5 55t51.5 135v201q0 116 70.5 186t187.5 70h156v-88h-148
q-75 0 -121.5 -48.5t-46.5 -127.5z" />
    <glyph glyph-name="braceright.case" horiz-adv-x="884" 
d="M768 719v-80l-37 -6q-86 -5 -137 -56.5t-51 -136.5v-184q0 -116 -70.5 -186t-187.5 -70h-156v88h147q74 0 120 48.5t46 127.5v185q0 82 37 141.5t103 87.5q-65 28 -102.5 88t-37.5 141v201q0 79 -46 127.5t-120 48.5h-147v88h156q117 0 187.5 -70t70.5 -186v-201
q0 -85 51 -135t137 -55z" />
    <glyph glyph-name="bracketleft.case" horiz-adv-x="786" 
d="M297 1284v-1196h362v-88h-462v1372h462v-88h-362z" />
    <glyph glyph-name="bracketright.case" horiz-adv-x="786" 
d="M590 1372v-1372h-461v88h363v1196h-363v88h461z" />
    <glyph glyph-name="parenleft.case" horiz-adv-x="657" 
d="M236 686q0 -185 68.5 -343.5t225.5 -305.5l-59 -60q-182 155 -262 330.5t-80 378.5q0 202 80.5 378t261.5 331l59 -60q-157 -147 -225.5 -305.5t-68.5 -343.5z" />
    <glyph glyph-name="parenright.case" horiz-adv-x="657" 
d="M129 1335l59 60q342 -294 342 -709q0 -202 -80.5 -378t-261.5 -331l-59 60q156 148 225.5 306.5t69.5 342.5t-69.5 342.5t-225.5 306.5z" />
    <glyph glyph-name="emdash.case" horiz-adv-x="2129" 
d="M2007 643h-1884v82h1884v-82z" />
    <glyph glyph-name="endash.case" horiz-adv-x="1269" 
d="M1147 643h-1024v82h1024v-82z" />
    <glyph glyph-name="hyphen.case" horiz-adv-x="903" 
d="M780 639h-657v90h657v-90z" />
    <glyph glyph-name="guillemotleft.case" horiz-adv-x="790" 
d="M51 659l260 365h105l-260 -365l260 -364h-105zM375 659l260 365h104l-260 -365l260 -364h-104z" />
    <glyph glyph-name="guillemotright.case" horiz-adv-x="790" 
d="M51 295l260 364l-260 365h105l260 -365l-260 -364h-105zM375 295l260 364l-260 365h104l260 -365l-260 -364h-104z" />
    <glyph glyph-name="guilsinglleft.case" horiz-adv-x="466" 
d="M51 659l260 365h105l-260 -365l260 -364h-105z" />
    <glyph glyph-name="guilsinglright.case" horiz-adv-x="466" 
d="M51 295l260 364l-260 365h105l260 -365l-260 -364h-105z" />
    <glyph glyph-name="cent.tf" 
d="M649 930v-858q120 8 211.5 70t124.5 167l92 -26q-38 -133 -155 -215t-271 -91v-243h-88v246q-128 13 -232.5 78.5t-167.5 181.5t-63 262q0 214 133.5 357.5t329.5 164.5v266h88v-266q151 -9 269 -93.5t159 -219.5l-94 -31q-31 111 -123.5 176.5t-212.5 73.5zM199 502
q0 -180 104 -295.5t262 -134.5v858q-157 -19 -261.5 -136.5t-104.5 -291.5z" />
    <glyph glyph-name="dollar.tf" 
d="M1094 395q0 -161 -117 -259.5t-309 -104.5v-236h-90v240q-183 18 -306.5 121t-138.5 262l103 22q13 -133 107.5 -216.5t236.5 -98.5v532l-111 27q-295 63 -295 303q0 154 112 249.5t292 104.5v236h90v-238q169 -15 277.5 -111.5t123.5 -238.5l-98 -20q-13 118 -96.5 192
t-208.5 88v-512l118 -28q52 -11 93.5 -26t83.5 -40.5t70 -58.5t45.5 -81.5t17.5 -107.5zM580 756v497q-134 -8 -216.5 -78.5t-82.5 -183.5q0 -94 57.5 -142.5t165.5 -74.5zM666 637v-516q150 4 238.5 77.5t88.5 192.5q0 97 -59 147t-172 76z" />
    <glyph glyph-name="Euro.tf" 
d="M678 74q146 0 250.5 101.5t150.5 285.5l101 -23q-46 -210 -180 -335.5t-322 -125.5q-197 0 -333 135t-179 371h-121v80h111q-6 59 -6 123q0 37 4 107h-109v79h119q38 244 175.5 383.5t338.5 139.5q188 0 322 -126t180 -339l-101 -21q-43 183 -149 287t-252 104
q-156 0 -264.5 -114t-143.5 -314h537l-21 -79h-528q-4 -70 -4 -107q0 -64 6 -123h469l-18 -80h-439q38 -192 145.5 -300.5t260.5 -108.5z" />
    <glyph glyph-name="florin.tf" 
d="M967 1305q-111 0 -184 -68t-95 -184l-59 -326h420v-86h-435l-133 -729q-20 -114 -97 -182t-187 -68q-85 0 -148 47l39 82q46 -35 111 -35q70 0 121 43.5t63 112.5l131 729h-262v86h276l60 326q30 156 132 249t255 93q133 0 221 -82l-43 -78q-76 70 -186 70z" />
    <glyph glyph-name="sterling.tf" 
d="M1151 94v-94h-1073v63l172 25v502h-172v94h172v277q0 195 123 314.5t321 119.5q199 0 320.5 -117t124.5 -311l-97 -17q-6 162 -99.5 254t-248.5 92q-153 0 -246.5 -91.5t-93.5 -243.5v-277h537v-94h-537v-496h797z" />
    <glyph glyph-name="yen.tf" 
d="M721 616h352v-81h-397v-181h397v-82h-397v-272h-105v272h-395v82h395v181h-395v81h350l-483 756h117l463 -737l462 737h121z" />
    <glyph glyph-name="approxequal.tf" 
d="M1065 862v-96q-85 -47 -199 -47q-67 0 -129 19t-103 42.5t-101 42.5t-123 19q-61 0 -125 -19t-101 -55v92q37 31 100 49.5t126 18.5q64 0 126.5 -19t104.5 -41.5t103 -41.5t124 -19q121 0 197 55zM1065 526v-96q-85 -47 -199 -47q-67 0 -129 19t-103 42.5t-101 42.5
t-123 19q-61 0 -125 -19t-101 -55v92q37 31 100 49.5t126 18.5q64 0 126.5 -19t104.5 -41.5t103 -41.5t124 -19q121 0 197 55z" />
    <glyph glyph-name="divide.tf" 
d="M623 1069q33 0 55 -23t22 -55q0 -33 -22 -54.5t-55 -21.5q-34 0 -57 22t-23 54q0 31 23.5 54.5t56.5 23.5zM1065 580h-881v90h881v-90zM623 324q33 0 55 -22.5t22 -53.5q0 -32 -22 -54t-55 -22q-34 0 -57 22t-23 54q0 31 23.5 53.5t56.5 22.5z" />
    <glyph glyph-name="equal.tf" 
d="M1065 793h-881v90h881v-90zM1065 416h-881v88h881v-88z" />
    <glyph glyph-name="greater.tf" 
d="M891 637l-610 283v106l739 -344v-90l-739 -344v104z" />
    <glyph glyph-name="greaterequal.tf" 
d="M866 702l-583 226v104l710 -289v-84l-710 -286v102zM987 188h-704v91h704v-91z" />
    <glyph glyph-name="less.tf" 
d="M969 248l-738 344v90l738 344v-106l-611 -283l611 -285v-104z" />
    <glyph glyph-name="lessequal.tf" 
d="M969 373l-713 286v84l713 289v-104l-584 -226l584 -227v-102zM969 279v-91h-707v91h707z" />
    <glyph glyph-name="minus.tf" 
d="M1065 580h-881v90h881v-90z" />
    <glyph glyph-name="multiply.tf" 
d="M690 625l297 -295l-65 -68l-297 297l-297 -297l-66 68l297 295l-297 297l66 65l297 -297l297 297l65 -65z" />
    <glyph glyph-name="notequal.tf" 
d="M766 793l-182 -289h481v-88h-539l-129 -205h-100l131 205h-244v88h299l185 289h-484v90h541l131 207h98l-131 -207h242v-90h-299z" />
    <glyph glyph-name="plus.tf" 
d="M1065 580h-395v-398h-90v398h-396v90h396v397h90v-397h395v-90z" />
    <glyph glyph-name="plusminus.tf" 
d="M1065 752v-90h-395v-367h-90v367h-396v90h396v376h90v-376h395zM184 90h881v-90h-881v90z" />
    <glyph glyph-name="bar.case" horiz-adv-x="493" 
d="M297 -84h-100v1538h100v-1538z" />
    <glyph glyph-name="at.case" horiz-adv-x="1980" 
d="M995 1477q174 0 328.5 -59t266.5 -162t177.5 -250.5t65.5 -317.5q0 -89 -18 -169.5t-54.5 -148.5t-100.5 -108.5t-147 -40.5q-103 0 -165.5 53t-67.5 142q-52 -87 -138 -136t-192 -49q-170 0 -286.5 117t-116.5 301q0 186 116 303t287 117q105 0 192 -49t138 -137v166h76
v-617q0 -65 45.5 -105t116.5 -40q61 0 108 34t75 91.5t42 127t14 146.5q0 209 -101 375.5t-275 258t-386 91.5q-163 0 -306.5 -57t-245.5 -156.5t-161 -239t-59 -299.5q0 -159 59 -300t159.5 -240t237.5 -156t288 -57q122 0 255.5 36t227.5 99l39 -64q-97 -65 -241.5 -103
t-278.5 -38q-167 0 -318 61.5t-261 168.5t-175 261t-65 330q0 175 64.5 328t176.5 260.5t268.5 169.5t335.5 62zM958 305q136 0 229 96t93 250q0 153 -93 246.5t-229 93.5q-138 0 -233.5 -94t-95.5 -246q0 -155 95.5 -250.5t233.5 -95.5z" />
    <glyph glyph-name="caron.alt" horiz-adv-x="1228" 
d="M641 1006h-82v325h103z" />
    </font>
</defs>
</svg>
