<svg width="24" height="24" viewBox="0 0 24 24" fill="none" xmlns="http://www.w3.org/2000/svg">
<path fill-rule="evenodd" clip-rule="evenodd" d="M4.58947 6.62829L12.0007 11.8161L19.4118 6.62829C19.274 6.35577 18.9906 6.16667 18.6673 6.16667H5.33398C5.01068 6.16667 4.72728 6.35577 4.58947 6.62829ZM19.5007 8.60055L12.4785 13.516C12.1916 13.7169 11.8097 13.7169 11.5228 13.516L4.50065 8.60055V17C4.50065 17.4564 4.87756 17.8333 5.33398 17.8333H18.6673C19.1237 17.8333 19.5007 17.4564 19.5007 17V8.60055ZM2.83398 7C2.83398 5.6231 3.95708 4.5 5.33398 4.5H18.6673C20.0442 4.5 21.1673 5.6231 21.1673 7V17C21.1673 18.3769 20.0442 19.5 18.6673 19.5H5.33398C3.95708 19.5 2.83398 18.3769 2.83398 17V7Z" fill="#1B1B1B"/>
</svg>
