<svg width="28" height="28" viewBox="0 0 28 28" fill="none" xmlns="http://www.w3.org/2000/svg">
<path d="M25.1968 9.01431V9.21467C25.1442 10.86 24.4466 12.3453 23.3454 13.4301L22.7668 14L23.3454 14.5699C24.4912 15.6987 25.2 17.2578 25.2 18.9857C25.2 22.4129 22.4046 25.2 18.9502 25.2C17.2377 25.2 15.6888 24.5154 14.5607 23.4071L14.0007 22.8569L13.4401 23.4064C12.308 24.5158 10.7617 25.2 9.0498 25.2C5.59541 25.2 2.8 22.4129 2.8 18.9857C2.8 17.2608 3.50892 15.6986 4.65464 14.5699L5.23316 14L4.65464 13.4301C3.50878 12.3013 2.8 10.7422 2.8 9.01431C2.8 5.58712 5.59541 2.8 9.0498 2.8C10.7619 2.8 12.3077 3.4843 13.4361 4.59292L13.9961 5.14306L14.5567 4.59363C15.6888 3.48421 17.2351 2.8 18.947 2.8C22.4014 2.8 25.1968 5.58712 25.1968 9.01431ZM15.6446 15.2876C15.7448 15.3184 15.8856 15.3565 16.0437 15.383C16.2001 15.4092 16.4114 15.4307 16.6332 15.4021C16.8519 15.3738 17.1673 15.2846 17.4127 15.0091C17.9308 14.4277 17.9308 13.5723 17.4127 12.9909C17.1673 12.7154 16.8519 12.6262 16.6332 12.5979C16.4114 12.5693 16.2001 12.5908 16.0437 12.617C15.8856 12.6435 15.7448 12.6816 15.6446 12.7124C15.4651 12.6737 15.326 12.5334 15.2871 12.3596C15.3175 12.26 15.3551 12.1207 15.3812 11.9642C15.4072 11.8085 15.4284 11.5983 15.4001 11.3775C15.3722 11.16 15.2839 10.8463 15.0114 10.6009C14.4288 10.0766 13.5648 10.0766 12.9823 10.6009C12.7097 10.8463 12.6214 11.16 12.5935 11.3775C12.5652 11.5983 12.5864 11.8085 12.6124 11.9642C12.6385 12.1207 12.6761 12.26 12.7065 12.3596C12.6677 12.5334 12.5285 12.6737 12.349 12.7124C12.2488 12.6816 12.108 12.6435 11.9499 12.617C11.7935 12.5908 11.5822 12.5693 11.3604 12.5979C11.1417 12.6262 10.8263 12.7154 10.5809 12.9909C10.0628 13.5723 10.0628 14.4277 10.5809 15.0091C10.8263 15.2846 11.1417 15.3738 11.3604 15.4021C11.5822 15.4307 11.7935 15.4092 11.9499 15.383C12.108 15.3565 12.2488 15.3184 12.349 15.2876C12.5285 15.3263 12.6677 15.4666 12.7065 15.6404C12.6761 15.74 12.6385 15.8793 12.6124 16.0358C12.5864 16.1915 12.5652 16.4017 12.5935 16.6225C12.6214 16.84 12.7097 17.1537 12.9823 17.3991C13.5648 17.9234 14.4288 17.9234 15.0114 17.3991C15.2839 17.1537 15.3722 16.84 15.4001 16.6225C15.4284 16.4017 15.4072 16.1915 15.3812 16.0358C15.3551 15.8793 15.3175 15.74 15.2871 15.6404C15.326 15.4666 15.4651 15.3263 15.6446 15.2876Z" stroke="#F5F5F5" stroke-width="1.6"/>
</svg>
