<svg width="28" height="28" viewBox="0 0 28 28" fill="none" xmlns="http://www.w3.org/2000/svg">
<path d="M25.9968 9.01431C25.9968 5.14149 22.8394 2 18.947 2C17.0168 2 15.2719 2.77266 13.9968 4.02226C12.7249 2.77266 10.98 2 9.0498 2C5.15739 2 2 5.14149 2 9.01431C2 10.9666 2.80213 12.7281 4.09321 14C2.80213 15.2719 2 17.0366 2 18.9857C2 22.8585 5.15739 26 9.0498 26C10.98 26 12.7249 25.2273 14 23.9777C15.2719 25.2273 17.02 26 18.9502 26C22.8426 26 26 22.8585 26 18.9857C26 17.0334 25.1979 15.2719 23.9068 14C25.1979 12.7281 26 10.9634 26 9.01431H25.9968ZM16.8154 14.4769C16.5373 14.7891 15.7449 14.4769 15.7449 14.4769C15.045 14.4769 14.4762 15.0429 14.4762 15.7393C14.4762 15.7393 14.7854 16.5262 14.4762 16.8045C14.1979 17.0549 13.7957 17.0549 13.5174 16.8045C13.2083 16.5262 13.5174 15.7393 13.5174 15.7393C13.5174 15.0429 12.9486 14.4769 12.2487 14.4769C12.2487 14.4769 11.4563 14.7891 11.1782 14.4769C10.9303 14.1988 10.9303 13.8012 11.1782 13.5231C11.4563 13.2109 12.2487 13.5231 12.2487 13.5231C12.9486 13.5231 13.5174 12.9571 13.5174 12.2607C13.5174 12.2607 13.2083 11.4738 13.5174 11.1955C13.7957 10.9451 14.1979 10.9451 14.4762 11.1955C14.7854 11.4738 14.4762 12.2607 14.4762 12.2607C14.4762 12.9571 15.045 13.5231 15.7449 13.5231C15.7449 13.5231 16.5373 13.2109 16.8154 13.5231C17.0633 13.8012 17.0633 14.1988 16.8154 14.4769Z" fill="#1B1B1B"/>
</svg>
