<svg width="24" height="24" viewBox="0 0 24 24" fill="none" xmlns="http://www.w3.org/2000/svg">
<g id="icon / sun">
<path id="Union" fill-rule="evenodd" clip-rule="evenodd" d="M12.8002 1.99922C12.8002 1.55739 12.442 1.19922 12.0002 1.19922C11.5584 1.19922 11.2002 1.55739 11.2002 1.99922V5.99922C11.2002 6.44105 11.5584 6.79922 12.0002 6.79922C12.442 6.79922 12.8002 6.44105 12.8002 5.99922V1.99922ZM12.8002 17.9992C12.8002 17.5574 12.442 17.1992 12.0002 17.1992C11.5584 17.1992 11.2002 17.5574 11.2002 17.9992V21.9992C11.2002 22.441 11.5584 22.7992 12.0002 22.7992C12.442 22.7992 12.8002 22.441 12.8002 21.9992V17.9992ZM1.2002 11.9992C1.2002 11.5574 1.55837 11.1992 2.0002 11.1992H6.0002C6.44202 11.1992 6.8002 11.5574 6.8002 11.9992C6.8002 12.441 6.44202 12.7992 6.0002 12.7992H2.0002C1.55837 12.7992 1.2002 12.441 1.2002 11.9992ZM18.0002 11.1992C17.5584 11.1992 17.2002 11.5574 17.2002 11.9992C17.2002 12.441 17.5584 12.7992 18.0002 12.7992H22.0002C22.442 12.7992 22.8002 12.441 22.8002 11.9992C22.8002 11.5574 22.442 11.1992 22.0002 11.1992H18.0002ZM15.4345 8.39303C15.1221 8.08061 15.1221 7.57408 15.4345 7.26166L18.2629 4.43323C18.5754 4.12081 19.0819 4.12081 19.3943 4.43323C19.7067 4.74565 19.7067 5.25218 19.3943 5.5646L16.5659 8.39303C16.2535 8.70545 15.7469 8.70545 15.4345 8.39303ZM15.4345 16.5649C15.1221 16.2525 15.1221 15.746 15.4345 15.4335C15.7469 15.1211 16.2535 15.1211 16.5659 15.4335L19.3943 18.262C19.7067 18.5744 19.7067 19.0809 19.3943 19.3933C19.0819 19.7058 18.5754 19.7058 18.2629 19.3933L15.4345 16.5649ZM4.43451 19.393C4.12209 19.0806 4.12209 18.5741 4.43451 18.2617L7.26294 15.4332C7.57536 15.1208 8.08189 15.1208 8.39431 15.4332C8.70673 15.7456 8.70673 16.2522 8.39431 16.5646L5.56588 19.393C5.25346 19.7054 4.74693 19.7054 4.43451 19.393ZM4.43451 5.5649C4.12209 5.25248 4.12209 4.74595 4.43451 4.43353C4.74693 4.12111 5.25346 4.12111 5.56588 4.43353L8.39431 7.26196C8.70673 7.57438 8.70673 8.08091 8.39431 8.39333C8.08189 8.70575 7.57536 8.70575 7.26294 8.39333L4.43451 5.5649Z" fill="#1B1B1B"/>
</g>
</svg>
